G04 #@! TF.GenerationSoftware,KiCad,Pcbnew,(5.1.6)-1*
G04 #@! TF.CreationDate,2020-07-19T16:04:00+09:00*
G04 #@! TF.ProjectId,AutoIRShield,4175746f-4952-4536-9869-656c642e6b69,Ver1.0*
G04 #@! TF.SameCoordinates,Original*
G04 #@! TF.FileFunction,Soldermask,Bot*
G04 #@! TF.FilePolarity,Negative*
%FSLAX46Y46*%
G04 Gerber Fmt 4.6, Leading zero omitted, Abs format (unit mm)*
G04 Created by KiCad (PCBNEW (5.1.6)-1) date 2020-07-19 16:04:00*
%MOMM*%
%LPD*%
G01*
G04 APERTURE LIST*
%ADD10C,1.524000*%
%ADD11C,1.200000*%
%ADD12R,1.524000X1.524000*%
%ADD13C,1.600000*%
%ADD14C,2.800000*%
%ADD15C,2.000000*%
%ADD16R,2.000000X2.000000*%
%ADD17C,1.800000*%
%ADD18O,1.600000X1.600000*%
%ADD19O,1.727200X2.032000*%
G04 APERTURE END LIST*
D10*
X99568000Y-98425000D03*
X99568000Y-90805000D03*
X99568000Y-100965000D03*
X99568000Y-93345000D03*
X99568000Y-88265000D03*
X99568000Y-95885000D03*
X129728000Y-85725000D03*
X132268000Y-85725000D03*
X134808000Y-85725000D03*
X137348000Y-85725000D03*
X139888000Y-85725000D03*
X142428000Y-85725000D03*
D11*
X138938000Y-114935000D03*
X138938000Y-117475000D03*
X138938000Y-120015000D03*
D12*
X146558000Y-119380000D03*
D10*
X146558000Y-117080000D03*
X146558000Y-114780000D03*
D13*
X155448000Y-115570000D03*
X155448000Y-118110000D03*
D14*
X168158000Y-89055000D03*
D15*
X175658000Y-92155000D03*
X175658000Y-94655000D03*
D14*
X168158000Y-100255000D03*
D16*
X175658000Y-97155000D03*
D17*
X121793000Y-117475000D03*
X119253000Y-117475000D03*
X116713000Y-117475000D03*
X114173000Y-117475000D03*
X111633000Y-117475000D03*
D18*
X127508000Y-113665000D03*
D13*
X127508000Y-121285000D03*
D18*
X175768000Y-111125000D03*
D13*
X175768000Y-118745000D03*
D18*
X170688000Y-111125000D03*
D13*
X170688000Y-118745000D03*
D18*
X132588000Y-121285000D03*
D13*
X132588000Y-113665000D03*
D18*
X165608000Y-111125000D03*
D13*
X165608000Y-118745000D03*
D19*
X135128000Y-78105000D03*
X137668000Y-78105000D03*
X140208000Y-78105000D03*
X142748000Y-78105000D03*
X145288000Y-78105000D03*
X147828000Y-78105000D03*
X150368000Y-78105000D03*
X152908000Y-78105000D03*
X117348000Y-78105000D03*
X119888000Y-78105000D03*
X122428000Y-78105000D03*
X124968000Y-78105000D03*
X127508000Y-78105000D03*
X130048000Y-78105000D03*
X139192000Y-126365000D03*
X141732000Y-126365000D03*
X144272000Y-126365000D03*
X146812000Y-126365000D03*
X149352000Y-126365000D03*
X151892000Y-126365000D03*
X154432000Y-126365000D03*
X156972000Y-126365000D03*
X159512000Y-126365000D03*
X162052000Y-126365000D03*
X117348000Y-126365000D03*
X119888000Y-126365000D03*
X122428000Y-126365000D03*
X124968000Y-126365000D03*
X127508000Y-126365000D03*
X130048000Y-126365000D03*
X132588000Y-126365000D03*
X135128000Y-126365000D03*
M02*
