G04 #@! TF.GenerationSoftware,KiCad,Pcbnew,(5.1.6)-1*
G04 #@! TF.CreationDate,2020-07-19T16:04:00+09:00*
G04 #@! TF.ProjectId,AutoIRShield,4175746f-4952-4536-9869-656c642e6b69,Ver1.0*
G04 #@! TF.SameCoordinates,Original*
G04 #@! TF.FileFunction,Legend,Top*
G04 #@! TF.FilePolarity,Positive*
%FSLAX46Y46*%
G04 Gerber Fmt 4.6, Leading zero omitted, Abs format (unit mm)*
G04 Created by KiCad (PCBNEW (5.1.6)-1) date 2020-07-19 16:04:00*
%MOMM*%
%LPD*%
G01*
G04 APERTURE LIST*
%ADD10C,0.150000*%
%ADD11C,0.120000*%
%ADD12C,0.010000*%
G04 APERTURE END LIST*
D10*
X105100380Y-101686428D02*
X104624190Y-102019761D01*
X105100380Y-102257857D02*
X104100380Y-102257857D01*
X104100380Y-101876904D01*
X104148000Y-101781666D01*
X104195619Y-101734047D01*
X104290857Y-101686428D01*
X104433714Y-101686428D01*
X104528952Y-101734047D01*
X104576571Y-101781666D01*
X104624190Y-101876904D01*
X104624190Y-102257857D01*
X104100380Y-101400714D02*
X104100380Y-100829285D01*
X105100380Y-101115000D02*
X104100380Y-101115000D01*
X105005142Y-99924523D02*
X105052761Y-99972142D01*
X105100380Y-100115000D01*
X105100380Y-100210238D01*
X105052761Y-100353095D01*
X104957523Y-100448333D01*
X104862285Y-100495952D01*
X104671809Y-100543571D01*
X104528952Y-100543571D01*
X104338476Y-100495952D01*
X104243238Y-100448333D01*
X104148000Y-100353095D01*
X104100380Y-100210238D01*
X104100380Y-100115000D01*
X104148000Y-99972142D01*
X104195619Y-99924523D01*
X105100380Y-98734047D02*
X104100380Y-98734047D01*
X104814666Y-98400714D01*
X104100380Y-98067380D01*
X105100380Y-98067380D01*
X105100380Y-97448333D02*
X105052761Y-97543571D01*
X105005142Y-97591190D01*
X104909904Y-97638809D01*
X104624190Y-97638809D01*
X104528952Y-97591190D01*
X104481333Y-97543571D01*
X104433714Y-97448333D01*
X104433714Y-97305476D01*
X104481333Y-97210238D01*
X104528952Y-97162619D01*
X104624190Y-97115000D01*
X104909904Y-97115000D01*
X105005142Y-97162619D01*
X105052761Y-97210238D01*
X105100380Y-97305476D01*
X105100380Y-97448333D01*
X105100380Y-96257857D02*
X104100380Y-96257857D01*
X105052761Y-96257857D02*
X105100380Y-96353095D01*
X105100380Y-96543571D01*
X105052761Y-96638809D01*
X105005142Y-96686428D01*
X104909904Y-96734047D01*
X104624190Y-96734047D01*
X104528952Y-96686428D01*
X104481333Y-96638809D01*
X104433714Y-96543571D01*
X104433714Y-96353095D01*
X104481333Y-96257857D01*
X104433714Y-95353095D02*
X105100380Y-95353095D01*
X104433714Y-95781666D02*
X104957523Y-95781666D01*
X105052761Y-95734047D01*
X105100380Y-95638809D01*
X105100380Y-95495952D01*
X105052761Y-95400714D01*
X105005142Y-95353095D01*
X105100380Y-94734047D02*
X105052761Y-94829285D01*
X104957523Y-94876904D01*
X104100380Y-94876904D01*
X105052761Y-93972142D02*
X105100380Y-94067380D01*
X105100380Y-94257857D01*
X105052761Y-94353095D01*
X104957523Y-94400714D01*
X104576571Y-94400714D01*
X104481333Y-94353095D01*
X104433714Y-94257857D01*
X104433714Y-94067380D01*
X104481333Y-93972142D01*
X104576571Y-93924523D01*
X104671809Y-93924523D01*
X104767047Y-94400714D01*
X105005142Y-93495952D02*
X105052761Y-93448333D01*
X105100380Y-93495952D01*
X105052761Y-93543571D01*
X105005142Y-93495952D01*
X105100380Y-93495952D01*
X104481333Y-93495952D02*
X104528952Y-93448333D01*
X104576571Y-93495952D01*
X104528952Y-93543571D01*
X104481333Y-93495952D01*
X104576571Y-93495952D01*
X105100380Y-92257857D02*
X104100380Y-92257857D01*
X104100380Y-92019761D01*
X104148000Y-91876904D01*
X104243238Y-91781666D01*
X104338476Y-91734047D01*
X104528952Y-91686428D01*
X104671809Y-91686428D01*
X104862285Y-91734047D01*
X104957523Y-91781666D01*
X105052761Y-91876904D01*
X105100380Y-92019761D01*
X105100380Y-92257857D01*
X105052761Y-91305476D02*
X105100380Y-91162619D01*
X105100380Y-90924523D01*
X105052761Y-90829285D01*
X105005142Y-90781666D01*
X104909904Y-90734047D01*
X104814666Y-90734047D01*
X104719428Y-90781666D01*
X104671809Y-90829285D01*
X104624190Y-90924523D01*
X104576571Y-91115000D01*
X104528952Y-91210238D01*
X104481333Y-91257857D01*
X104386095Y-91305476D01*
X104290857Y-91305476D01*
X104195619Y-91257857D01*
X104148000Y-91210238D01*
X104100380Y-91115000D01*
X104100380Y-90876904D01*
X104148000Y-90734047D01*
X104100380Y-90400714D02*
X104100380Y-89781666D01*
X104481333Y-90115000D01*
X104481333Y-89972142D01*
X104528952Y-89876904D01*
X104576571Y-89829285D01*
X104671809Y-89781666D01*
X104909904Y-89781666D01*
X105005142Y-89829285D01*
X105052761Y-89876904D01*
X105100380Y-89972142D01*
X105100380Y-90257857D01*
X105052761Y-90353095D01*
X105005142Y-90400714D01*
X104195619Y-89400714D02*
X104148000Y-89353095D01*
X104100380Y-89257857D01*
X104100380Y-89019761D01*
X104148000Y-88924523D01*
X104195619Y-88876904D01*
X104290857Y-88829285D01*
X104386095Y-88829285D01*
X104528952Y-88876904D01*
X105100380Y-89448333D01*
X105100380Y-88829285D01*
X104100380Y-88495952D02*
X104100380Y-87876904D01*
X104481333Y-88210238D01*
X104481333Y-88067380D01*
X104528952Y-87972142D01*
X104576571Y-87924523D01*
X104671809Y-87876904D01*
X104909904Y-87876904D01*
X105005142Y-87924523D01*
X105052761Y-87972142D01*
X105100380Y-88067380D01*
X105100380Y-88353095D01*
X105052761Y-88448333D01*
X105005142Y-88495952D01*
X105100380Y-86924523D02*
X105100380Y-87495952D01*
X105100380Y-87210238D02*
X104100380Y-87210238D01*
X104243238Y-87305476D01*
X104338476Y-87400714D01*
X104386095Y-87495952D01*
X141660619Y-88185714D02*
X141660619Y-87709523D01*
X142660619Y-87709523D01*
X142184428Y-88519047D02*
X142184428Y-88852381D01*
X141660619Y-88995238D02*
X141660619Y-88519047D01*
X142660619Y-88519047D01*
X142660619Y-88995238D01*
X141660619Y-89423809D02*
X142660619Y-89423809D01*
X142660619Y-89661904D01*
X142613000Y-89804762D01*
X142517761Y-89900000D01*
X142422523Y-89947619D01*
X142232047Y-89995238D01*
X142089190Y-89995238D01*
X141898714Y-89947619D01*
X141803476Y-89900000D01*
X141708238Y-89804762D01*
X141660619Y-89661904D01*
X141660619Y-89423809D01*
X141946333Y-90376190D02*
X141946333Y-90852381D01*
X141660619Y-90280952D02*
X142660619Y-90614285D01*
X141660619Y-90947619D01*
X139120619Y-88280952D02*
X139596809Y-87947619D01*
X139120619Y-87709524D02*
X140120619Y-87709524D01*
X140120619Y-88090476D01*
X140073000Y-88185714D01*
X140025380Y-88233333D01*
X139930142Y-88280952D01*
X139787285Y-88280952D01*
X139692047Y-88233333D01*
X139644428Y-88185714D01*
X139596809Y-88090476D01*
X139596809Y-87709524D01*
X139168238Y-88661905D02*
X139120619Y-88804762D01*
X139120619Y-89042857D01*
X139168238Y-89138095D01*
X139215857Y-89185714D01*
X139311095Y-89233333D01*
X139406333Y-89233333D01*
X139501571Y-89185714D01*
X139549190Y-89138095D01*
X139596809Y-89042857D01*
X139644428Y-88852381D01*
X139692047Y-88757143D01*
X139739666Y-88709524D01*
X139834904Y-88661905D01*
X139930142Y-88661905D01*
X140025380Y-88709524D01*
X140073000Y-88757143D01*
X140120619Y-88852381D01*
X140120619Y-89090476D01*
X140073000Y-89233333D01*
X140120619Y-89519048D02*
X140120619Y-90090476D01*
X139120619Y-89804762D02*
X140120619Y-89804762D01*
X136628238Y-87661904D02*
X136580619Y-87804761D01*
X136580619Y-88042857D01*
X136628238Y-88138095D01*
X136675857Y-88185714D01*
X136771095Y-88233333D01*
X136866333Y-88233333D01*
X136961571Y-88185714D01*
X137009190Y-88138095D01*
X137056809Y-88042857D01*
X137104428Y-87852381D01*
X137152047Y-87757142D01*
X137199666Y-87709523D01*
X137294904Y-87661904D01*
X137390142Y-87661904D01*
X137485380Y-87709523D01*
X137533000Y-87757142D01*
X137580619Y-87852381D01*
X137580619Y-88090476D01*
X137533000Y-88233333D01*
X136675857Y-89233333D02*
X136628238Y-89185714D01*
X136580619Y-89042857D01*
X136580619Y-88947619D01*
X136628238Y-88804761D01*
X136723476Y-88709523D01*
X136818714Y-88661904D01*
X137009190Y-88614285D01*
X137152047Y-88614285D01*
X137342523Y-88661904D01*
X137437761Y-88709523D01*
X137533000Y-88804761D01*
X137580619Y-88947619D01*
X137580619Y-89042857D01*
X137533000Y-89185714D01*
X137485380Y-89233333D01*
X136580619Y-90138095D02*
X136580619Y-89661904D01*
X137580619Y-89661904D01*
X134088238Y-87661905D02*
X134040619Y-87804762D01*
X134040619Y-88042857D01*
X134088238Y-88138095D01*
X134135857Y-88185714D01*
X134231095Y-88233333D01*
X134326333Y-88233333D01*
X134421571Y-88185714D01*
X134469190Y-88138095D01*
X134516809Y-88042857D01*
X134564428Y-87852381D01*
X134612047Y-87757143D01*
X134659666Y-87709524D01*
X134754904Y-87661905D01*
X134850142Y-87661905D01*
X134945380Y-87709524D01*
X134993000Y-87757143D01*
X135040619Y-87852381D01*
X135040619Y-88090476D01*
X134993000Y-88233333D01*
X134040619Y-88661905D02*
X135040619Y-88661905D01*
X135040619Y-88900000D01*
X134993000Y-89042857D01*
X134897761Y-89138095D01*
X134802523Y-89185714D01*
X134612047Y-89233333D01*
X134469190Y-89233333D01*
X134278714Y-89185714D01*
X134183476Y-89138095D01*
X134088238Y-89042857D01*
X134040619Y-88900000D01*
X134040619Y-88661905D01*
X134326333Y-89614286D02*
X134326333Y-90090476D01*
X134040619Y-89519048D02*
X135040619Y-89852381D01*
X134040619Y-90185714D01*
X132453000Y-88233333D02*
X132500619Y-88138095D01*
X132500619Y-87995238D01*
X132453000Y-87852380D01*
X132357761Y-87757142D01*
X132262523Y-87709523D01*
X132072047Y-87661904D01*
X131929190Y-87661904D01*
X131738714Y-87709523D01*
X131643476Y-87757142D01*
X131548238Y-87852380D01*
X131500619Y-87995238D01*
X131500619Y-88090476D01*
X131548238Y-88233333D01*
X131595857Y-88280952D01*
X131929190Y-88280952D01*
X131929190Y-88090476D01*
X131500619Y-88709523D02*
X132500619Y-88709523D01*
X131500619Y-89280952D01*
X132500619Y-89280952D01*
X131500619Y-89757142D02*
X132500619Y-89757142D01*
X132500619Y-89995238D01*
X132453000Y-90138095D01*
X132357761Y-90233333D01*
X132262523Y-90280952D01*
X132072047Y-90328571D01*
X131929190Y-90328571D01*
X131738714Y-90280952D01*
X131643476Y-90233333D01*
X131548238Y-90138095D01*
X131500619Y-89995238D01*
X131500619Y-89757142D01*
X129960619Y-87566666D02*
X128960619Y-87900000D01*
X129960619Y-88233333D01*
X128960619Y-88566666D02*
X129960619Y-88566666D01*
X129960619Y-88804761D01*
X129913000Y-88947619D01*
X129817761Y-89042857D01*
X129722523Y-89090476D01*
X129532047Y-89138095D01*
X129389190Y-89138095D01*
X129198714Y-89090476D01*
X129103476Y-89042857D01*
X129008238Y-88947619D01*
X128960619Y-88804761D01*
X128960619Y-88566666D01*
X128960619Y-89566666D02*
X129960619Y-89566666D01*
X129960619Y-89804761D01*
X129913000Y-89947619D01*
X129817761Y-90042857D01*
X129722523Y-90090476D01*
X129532047Y-90138095D01*
X129389190Y-90138095D01*
X129198714Y-90090476D01*
X129103476Y-90042857D01*
X129008238Y-89947619D01*
X128960619Y-89804761D01*
X128960619Y-89566666D01*
X127969190Y-109687380D02*
X127493000Y-109687380D01*
X127493000Y-108687380D01*
X128873952Y-109592142D02*
X128826333Y-109639761D01*
X128683476Y-109687380D01*
X128588238Y-109687380D01*
X128445380Y-109639761D01*
X128350142Y-109544523D01*
X128302523Y-109449285D01*
X128254904Y-109258809D01*
X128254904Y-109115952D01*
X128302523Y-108925476D01*
X128350142Y-108830238D01*
X128445380Y-108735000D01*
X128588238Y-108687380D01*
X128683476Y-108687380D01*
X128826333Y-108735000D01*
X128873952Y-108782619D01*
X129302523Y-109687380D02*
X129302523Y-108687380D01*
X129540619Y-108687380D01*
X129683476Y-108735000D01*
X129778714Y-108830238D01*
X129826333Y-108925476D01*
X129873952Y-109115952D01*
X129873952Y-109258809D01*
X129826333Y-109449285D01*
X129778714Y-109544523D01*
X129683476Y-109639761D01*
X129540619Y-109687380D01*
X129302523Y-109687380D01*
X131064428Y-109687380D02*
X131064428Y-108687380D01*
X131397761Y-109401666D01*
X131731095Y-108687380D01*
X131731095Y-109687380D01*
X132350142Y-109687380D02*
X132254904Y-109639761D01*
X132207285Y-109592142D01*
X132159666Y-109496904D01*
X132159666Y-109211190D01*
X132207285Y-109115952D01*
X132254904Y-109068333D01*
X132350142Y-109020714D01*
X132493000Y-109020714D01*
X132588238Y-109068333D01*
X132635857Y-109115952D01*
X132683476Y-109211190D01*
X132683476Y-109496904D01*
X132635857Y-109592142D01*
X132588238Y-109639761D01*
X132493000Y-109687380D01*
X132350142Y-109687380D01*
X133540619Y-109687380D02*
X133540619Y-108687380D01*
X133540619Y-109639761D02*
X133445380Y-109687380D01*
X133254904Y-109687380D01*
X133159666Y-109639761D01*
X133112047Y-109592142D01*
X133064428Y-109496904D01*
X133064428Y-109211190D01*
X133112047Y-109115952D01*
X133159666Y-109068333D01*
X133254904Y-109020714D01*
X133445380Y-109020714D01*
X133540619Y-109068333D01*
X134445380Y-109020714D02*
X134445380Y-109687380D01*
X134016809Y-109020714D02*
X134016809Y-109544523D01*
X134064428Y-109639761D01*
X134159666Y-109687380D01*
X134302523Y-109687380D01*
X134397761Y-109639761D01*
X134445380Y-109592142D01*
X135064428Y-109687380D02*
X134969190Y-109639761D01*
X134921571Y-109544523D01*
X134921571Y-108687380D01*
X135826333Y-109639761D02*
X135731095Y-109687380D01*
X135540619Y-109687380D01*
X135445380Y-109639761D01*
X135397761Y-109544523D01*
X135397761Y-109163571D01*
X135445380Y-109068333D01*
X135540619Y-109020714D01*
X135731095Y-109020714D01*
X135826333Y-109068333D01*
X135873952Y-109163571D01*
X135873952Y-109258809D01*
X135397761Y-109354047D01*
X136302523Y-109592142D02*
X136350142Y-109639761D01*
X136302523Y-109687380D01*
X136254904Y-109639761D01*
X136302523Y-109592142D01*
X136302523Y-109687380D01*
X136302523Y-109068333D02*
X136350142Y-109115952D01*
X136302523Y-109163571D01*
X136254904Y-109115952D01*
X136302523Y-109068333D01*
X136302523Y-109163571D01*
X137493000Y-109401666D02*
X137969190Y-109401666D01*
X137397761Y-109687380D02*
X137731095Y-108687380D01*
X138064428Y-109687380D01*
X138254904Y-108687380D02*
X138826333Y-108687380D01*
X138540619Y-109687380D02*
X138540619Y-108687380D01*
X139159666Y-109687380D02*
X139159666Y-108687380D01*
X139397761Y-108687380D01*
X139540619Y-108735000D01*
X139635857Y-108830238D01*
X139683476Y-108925476D01*
X139731095Y-109115952D01*
X139731095Y-109258809D01*
X139683476Y-109449285D01*
X139635857Y-109544523D01*
X139540619Y-109639761D01*
X139397761Y-109687380D01*
X139159666Y-109687380D01*
X140683476Y-109687380D02*
X140112047Y-109687380D01*
X140397761Y-109687380D02*
X140397761Y-108687380D01*
X140302523Y-108830238D01*
X140207285Y-108925476D01*
X140112047Y-108973095D01*
X141540619Y-108687380D02*
X141350142Y-108687380D01*
X141254904Y-108735000D01*
X141207285Y-108782619D01*
X141112047Y-108925476D01*
X141064428Y-109115952D01*
X141064428Y-109496904D01*
X141112047Y-109592142D01*
X141159666Y-109639761D01*
X141254904Y-109687380D01*
X141445380Y-109687380D01*
X141540619Y-109639761D01*
X141588238Y-109592142D01*
X141635857Y-109496904D01*
X141635857Y-109258809D01*
X141588238Y-109163571D01*
X141540619Y-109115952D01*
X141445380Y-109068333D01*
X141254904Y-109068333D01*
X141159666Y-109115952D01*
X141112047Y-109163571D01*
X141064428Y-109258809D01*
X142254904Y-108687380D02*
X142350142Y-108687380D01*
X142445380Y-108735000D01*
X142493000Y-108782619D01*
X142540619Y-108877857D01*
X142588238Y-109068333D01*
X142588238Y-109306428D01*
X142540619Y-109496904D01*
X142493000Y-109592142D01*
X142445380Y-109639761D01*
X142350142Y-109687380D01*
X142254904Y-109687380D01*
X142159666Y-109639761D01*
X142112047Y-109592142D01*
X142064428Y-109496904D01*
X142016809Y-109306428D01*
X142016809Y-109068333D01*
X142064428Y-108877857D01*
X142112047Y-108782619D01*
X142159666Y-108735000D01*
X142254904Y-108687380D01*
X142969190Y-108782619D02*
X143016809Y-108735000D01*
X143112047Y-108687380D01*
X143350142Y-108687380D01*
X143445380Y-108735000D01*
X143493000Y-108782619D01*
X143540619Y-108877857D01*
X143540619Y-108973095D01*
X143493000Y-109115952D01*
X142921571Y-109687380D01*
X143540619Y-109687380D01*
X144540619Y-109592142D02*
X144493000Y-109639761D01*
X144350142Y-109687380D01*
X144254904Y-109687380D01*
X144112047Y-109639761D01*
X144016809Y-109544523D01*
X143969190Y-109449285D01*
X143921571Y-109258809D01*
X143921571Y-109115952D01*
X143969190Y-108925476D01*
X144016809Y-108830238D01*
X144112047Y-108735000D01*
X144254904Y-108687380D01*
X144350142Y-108687380D01*
X144493000Y-108735000D01*
X144540619Y-108782619D01*
X144969190Y-109687380D02*
X144969190Y-108687380D01*
X145350142Y-108687380D01*
X145445380Y-108735000D01*
X145493000Y-108782619D01*
X145540619Y-108877857D01*
X145540619Y-109020714D01*
X145493000Y-109115952D01*
X145445380Y-109163571D01*
X145350142Y-109211190D01*
X144969190Y-109211190D01*
X146302523Y-109163571D02*
X146445380Y-109211190D01*
X146493000Y-109258809D01*
X146540619Y-109354047D01*
X146540619Y-109496904D01*
X146493000Y-109592142D01*
X146445380Y-109639761D01*
X146350142Y-109687380D01*
X145969190Y-109687380D01*
X145969190Y-108687380D01*
X146302523Y-108687380D01*
X146397761Y-108735000D01*
X146445380Y-108782619D01*
X146493000Y-108877857D01*
X146493000Y-108973095D01*
X146445380Y-109068333D01*
X146397761Y-109115952D01*
X146302523Y-109163571D01*
X145969190Y-109163571D01*
X161474190Y-122263096D02*
X161436095Y-122377381D01*
X161436095Y-122567857D01*
X161474190Y-122644048D01*
X161512285Y-122682143D01*
X161588476Y-122720238D01*
X161664666Y-122720238D01*
X161740857Y-122682143D01*
X161778952Y-122644048D01*
X161817047Y-122567857D01*
X161855142Y-122415477D01*
X161893238Y-122339286D01*
X161931333Y-122301191D01*
X162007523Y-122263096D01*
X162083714Y-122263096D01*
X162159904Y-122301191D01*
X162198000Y-122339286D01*
X162236095Y-122415477D01*
X162236095Y-122605953D01*
X162198000Y-122720238D01*
X161512285Y-123520238D02*
X161474190Y-123482143D01*
X161436095Y-123367857D01*
X161436095Y-123291667D01*
X161474190Y-123177381D01*
X161550380Y-123101191D01*
X161626571Y-123063096D01*
X161778952Y-123025000D01*
X161893238Y-123025000D01*
X162045619Y-123063096D01*
X162121809Y-123101191D01*
X162198000Y-123177381D01*
X162236095Y-123291667D01*
X162236095Y-123367857D01*
X162198000Y-123482143D01*
X162159904Y-123520238D01*
X161436095Y-124244048D02*
X161436095Y-123863096D01*
X162236095Y-123863096D01*
X158934190Y-122225000D02*
X158896095Y-122339286D01*
X158896095Y-122529762D01*
X158934190Y-122605952D01*
X158972285Y-122644048D01*
X159048476Y-122682143D01*
X159124666Y-122682143D01*
X159200857Y-122644048D01*
X159238952Y-122605952D01*
X159277047Y-122529762D01*
X159315142Y-122377381D01*
X159353238Y-122301190D01*
X159391333Y-122263095D01*
X159467523Y-122225000D01*
X159543714Y-122225000D01*
X159619904Y-122263095D01*
X159658000Y-122301190D01*
X159696095Y-122377381D01*
X159696095Y-122567857D01*
X159658000Y-122682143D01*
X158896095Y-123025000D02*
X159696095Y-123025000D01*
X159696095Y-123215476D01*
X159658000Y-123329762D01*
X159581809Y-123405952D01*
X159505619Y-123444048D01*
X159353238Y-123482143D01*
X159238952Y-123482143D01*
X159086571Y-123444048D01*
X159010380Y-123405952D01*
X158934190Y-123329762D01*
X158896095Y-123215476D01*
X158896095Y-123025000D01*
X159124666Y-123786905D02*
X159124666Y-124167857D01*
X158896095Y-123710714D02*
X159696095Y-123977381D01*
X158896095Y-124244048D01*
X156584666Y-121577381D02*
X156584666Y-121958334D01*
X156356095Y-121501191D02*
X157156095Y-121767858D01*
X156356095Y-122034524D01*
X156356095Y-122758334D02*
X156737047Y-122491667D01*
X156356095Y-122301191D02*
X157156095Y-122301191D01*
X157156095Y-122605953D01*
X157118000Y-122682143D01*
X157079904Y-122720239D01*
X157003714Y-122758334D01*
X156889428Y-122758334D01*
X156813238Y-122720239D01*
X156775142Y-122682143D01*
X156737047Y-122605953D01*
X156737047Y-122301191D01*
X156775142Y-123101191D02*
X156775142Y-123367858D01*
X156356095Y-123482143D02*
X156356095Y-123101191D01*
X157156095Y-123101191D01*
X157156095Y-123482143D01*
X156775142Y-124091667D02*
X156775142Y-123825000D01*
X156356095Y-123825000D02*
X157156095Y-123825000D01*
X157156095Y-124205953D01*
X154578000Y-122491667D02*
X154616095Y-122415476D01*
X154616095Y-122301191D01*
X154578000Y-122186905D01*
X154501809Y-122110714D01*
X154425619Y-122072619D01*
X154273238Y-122034524D01*
X154158952Y-122034524D01*
X154006571Y-122072619D01*
X153930380Y-122110714D01*
X153854190Y-122186905D01*
X153816095Y-122301191D01*
X153816095Y-122377381D01*
X153854190Y-122491667D01*
X153892285Y-122529762D01*
X154158952Y-122529762D01*
X154158952Y-122377381D01*
X153816095Y-122872619D02*
X154616095Y-122872619D01*
X153816095Y-123329762D01*
X154616095Y-123329762D01*
X153816095Y-123710714D02*
X154616095Y-123710714D01*
X154616095Y-123901191D01*
X154578000Y-124015476D01*
X154501809Y-124091667D01*
X154425619Y-124129762D01*
X154273238Y-124167857D01*
X154158952Y-124167857D01*
X154006571Y-124129762D01*
X153930380Y-124091667D01*
X153854190Y-124015476D01*
X153816095Y-123901191D01*
X153816095Y-123710714D01*
X151276095Y-123405953D02*
X151276095Y-122948810D01*
X151276095Y-123177381D02*
X152076095Y-123177381D01*
X151961809Y-123101191D01*
X151885619Y-123025000D01*
X151847523Y-122948810D01*
X152076095Y-123672619D02*
X152076095Y-124167857D01*
X151771333Y-123901191D01*
X151771333Y-124015476D01*
X151733238Y-124091667D01*
X151695142Y-124129762D01*
X151618952Y-124167857D01*
X151428476Y-124167857D01*
X151352285Y-124129762D01*
X151314190Y-124091667D01*
X151276095Y-124015476D01*
X151276095Y-123786905D01*
X151314190Y-123710714D01*
X151352285Y-123672619D01*
X148736095Y-123405953D02*
X148736095Y-122948810D01*
X148736095Y-123177381D02*
X149536095Y-123177381D01*
X149421809Y-123101191D01*
X149345619Y-123025000D01*
X149307523Y-122948810D01*
X149459904Y-123710714D02*
X149498000Y-123748810D01*
X149536095Y-123825000D01*
X149536095Y-124015476D01*
X149498000Y-124091667D01*
X149459904Y-124129762D01*
X149383714Y-124167857D01*
X149307523Y-124167857D01*
X149193238Y-124129762D01*
X148736095Y-123672619D01*
X148736095Y-124167857D01*
X146500857Y-121996429D02*
X146500857Y-122605953D01*
X146196095Y-123405953D02*
X146196095Y-122948810D01*
X146196095Y-123177381D02*
X146996095Y-123177381D01*
X146881809Y-123101191D01*
X146805619Y-123025000D01*
X146767523Y-122948810D01*
X146196095Y-124167857D02*
X146196095Y-123710715D01*
X146196095Y-123939286D02*
X146996095Y-123939286D01*
X146881809Y-123863096D01*
X146805619Y-123786905D01*
X146767523Y-123710715D01*
X143960857Y-121996429D02*
X143960857Y-122605953D01*
X143656095Y-123405953D02*
X143656095Y-122948810D01*
X143656095Y-123177381D02*
X144456095Y-123177381D01*
X144341809Y-123101191D01*
X144265619Y-123025000D01*
X144227523Y-122948810D01*
X144456095Y-123901191D02*
X144456095Y-123977381D01*
X144418000Y-124053572D01*
X144379904Y-124091667D01*
X144303714Y-124129762D01*
X144151333Y-124167857D01*
X143960857Y-124167857D01*
X143808476Y-124129762D01*
X143732285Y-124091667D01*
X143694190Y-124053572D01*
X143656095Y-123977381D01*
X143656095Y-123901191D01*
X143694190Y-123825000D01*
X143732285Y-123786905D01*
X143808476Y-123748810D01*
X143960857Y-123710715D01*
X144151333Y-123710715D01*
X144303714Y-123748810D01*
X144379904Y-123786905D01*
X144418000Y-123825000D01*
X144456095Y-123901191D01*
X141420857Y-122758333D02*
X141420857Y-123367857D01*
X141116095Y-123786905D02*
X141116095Y-123939286D01*
X141154190Y-124015476D01*
X141192285Y-124053571D01*
X141306571Y-124129762D01*
X141458952Y-124167857D01*
X141763714Y-124167857D01*
X141839904Y-124129762D01*
X141878000Y-124091667D01*
X141916095Y-124015476D01*
X141916095Y-123863095D01*
X141878000Y-123786905D01*
X141839904Y-123748809D01*
X141763714Y-123710714D01*
X141573238Y-123710714D01*
X141497047Y-123748809D01*
X141458952Y-123786905D01*
X141420857Y-123863095D01*
X141420857Y-124015476D01*
X141458952Y-124091667D01*
X141497047Y-124129762D01*
X141573238Y-124167857D01*
X139033238Y-123863095D02*
X139071333Y-123786905D01*
X139109428Y-123748809D01*
X139185619Y-123710714D01*
X139223714Y-123710714D01*
X139299904Y-123748809D01*
X139338000Y-123786905D01*
X139376095Y-123863095D01*
X139376095Y-124015476D01*
X139338000Y-124091666D01*
X139299904Y-124129762D01*
X139223714Y-124167857D01*
X139185619Y-124167857D01*
X139109428Y-124129762D01*
X139071333Y-124091666D01*
X139033238Y-124015476D01*
X139033238Y-123863095D01*
X138995142Y-123786905D01*
X138957047Y-123748809D01*
X138880857Y-123710714D01*
X138728476Y-123710714D01*
X138652285Y-123748809D01*
X138614190Y-123786905D01*
X138576095Y-123863095D01*
X138576095Y-124015476D01*
X138614190Y-124091666D01*
X138652285Y-124129762D01*
X138728476Y-124167857D01*
X138880857Y-124167857D01*
X138957047Y-124129762D01*
X138995142Y-124091666D01*
X139033238Y-124015476D01*
X135566095Y-123672619D02*
X135566095Y-124205952D01*
X134766095Y-123863095D01*
X132530857Y-122758333D02*
X132530857Y-123367857D01*
X133026095Y-124091667D02*
X133026095Y-123939286D01*
X132988000Y-123863095D01*
X132949904Y-123825000D01*
X132835619Y-123748809D01*
X132683238Y-123710714D01*
X132378476Y-123710714D01*
X132302285Y-123748809D01*
X132264190Y-123786905D01*
X132226095Y-123863095D01*
X132226095Y-124015476D01*
X132264190Y-124091667D01*
X132302285Y-124129762D01*
X132378476Y-124167857D01*
X132568952Y-124167857D01*
X132645142Y-124129762D01*
X132683238Y-124091667D01*
X132721333Y-124015476D01*
X132721333Y-123863095D01*
X132683238Y-123786905D01*
X132645142Y-123748809D01*
X132568952Y-123710714D01*
X129990857Y-122758333D02*
X129990857Y-123367857D01*
X130486095Y-124129762D02*
X130486095Y-123748809D01*
X130105142Y-123710714D01*
X130143238Y-123748809D01*
X130181333Y-123825000D01*
X130181333Y-124015476D01*
X130143238Y-124091667D01*
X130105142Y-124129762D01*
X130028952Y-124167857D01*
X129838476Y-124167857D01*
X129762285Y-124129762D01*
X129724190Y-124091667D01*
X129686095Y-124015476D01*
X129686095Y-123825000D01*
X129724190Y-123748809D01*
X129762285Y-123710714D01*
X127679428Y-124091666D02*
X127146095Y-124091666D01*
X127984190Y-123901190D02*
X127412761Y-123710714D01*
X127412761Y-124205952D01*
X124910857Y-122758333D02*
X124910857Y-123367857D01*
X125406095Y-123672619D02*
X125406095Y-124167857D01*
X125101333Y-123901190D01*
X125101333Y-124015476D01*
X125063238Y-124091667D01*
X125025142Y-124129762D01*
X124948952Y-124167857D01*
X124758476Y-124167857D01*
X124682285Y-124129762D01*
X124644190Y-124091667D01*
X124606095Y-124015476D01*
X124606095Y-123786905D01*
X124644190Y-123710714D01*
X124682285Y-123672619D01*
X122789904Y-123710714D02*
X122828000Y-123748809D01*
X122866095Y-123825000D01*
X122866095Y-124015476D01*
X122828000Y-124091666D01*
X122789904Y-124129762D01*
X122713714Y-124167857D01*
X122637523Y-124167857D01*
X122523238Y-124129762D01*
X122066095Y-123672619D01*
X122066095Y-124167857D01*
X119526095Y-124167857D02*
X119526095Y-123710714D01*
X119526095Y-123939286D02*
X120326095Y-123939286D01*
X120211809Y-123863095D01*
X120135619Y-123786905D01*
X120097523Y-123710714D01*
X117786095Y-123901190D02*
X117786095Y-123977381D01*
X117748000Y-124053571D01*
X117709904Y-124091666D01*
X117633714Y-124129762D01*
X117481333Y-124167857D01*
X117290857Y-124167857D01*
X117138476Y-124129762D01*
X117062285Y-124091666D01*
X117024190Y-124053571D01*
X116986095Y-123977381D01*
X116986095Y-123901190D01*
X117024190Y-123825000D01*
X117062285Y-123786905D01*
X117138476Y-123748809D01*
X117290857Y-123710714D01*
X117481333Y-123710714D01*
X117633714Y-123748809D01*
X117709904Y-123786905D01*
X117748000Y-123825000D01*
X117786095Y-123901190D01*
X150006095Y-80848334D02*
X150387047Y-80581667D01*
X150006095Y-80391191D02*
X150806095Y-80391191D01*
X150806095Y-80695953D01*
X150768000Y-80772143D01*
X150729904Y-80810238D01*
X150653714Y-80848334D01*
X150539428Y-80848334D01*
X150463238Y-80810238D01*
X150425142Y-80772143D01*
X150387047Y-80695953D01*
X150387047Y-80391191D01*
X150425142Y-81191191D02*
X150425142Y-81457857D01*
X150006095Y-81572143D02*
X150006095Y-81191191D01*
X150806095Y-81191191D01*
X150806095Y-81572143D01*
X150425142Y-82181667D02*
X150425142Y-81915000D01*
X150006095Y-81915000D02*
X150806095Y-81915000D01*
X150806095Y-82295953D01*
X147466095Y-80848333D02*
X147847047Y-80581667D01*
X147466095Y-80391190D02*
X148266095Y-80391190D01*
X148266095Y-80695952D01*
X148228000Y-80772143D01*
X148189904Y-80810238D01*
X148113714Y-80848333D01*
X147999428Y-80848333D01*
X147923238Y-80810238D01*
X147885142Y-80772143D01*
X147847047Y-80695952D01*
X147847047Y-80391190D01*
X147504190Y-81153095D02*
X147466095Y-81267381D01*
X147466095Y-81457857D01*
X147504190Y-81534048D01*
X147542285Y-81572143D01*
X147618476Y-81610238D01*
X147694666Y-81610238D01*
X147770857Y-81572143D01*
X147808952Y-81534048D01*
X147847047Y-81457857D01*
X147885142Y-81305476D01*
X147923238Y-81229286D01*
X147961333Y-81191190D01*
X148037523Y-81153095D01*
X148113714Y-81153095D01*
X148189904Y-81191190D01*
X148228000Y-81229286D01*
X148266095Y-81305476D01*
X148266095Y-81495952D01*
X148228000Y-81610238D01*
X148266095Y-81838809D02*
X148266095Y-82295952D01*
X147466095Y-82067381D02*
X148266095Y-82067381D01*
X145726095Y-80315000D02*
X145726095Y-80810238D01*
X145421333Y-80543572D01*
X145421333Y-80657857D01*
X145383238Y-80734048D01*
X145345142Y-80772143D01*
X145268952Y-80810238D01*
X145078476Y-80810238D01*
X145002285Y-80772143D01*
X144964190Y-80734048D01*
X144926095Y-80657857D01*
X144926095Y-80429286D01*
X144964190Y-80353095D01*
X145002285Y-80315000D01*
X145002285Y-81153095D02*
X144964190Y-81191191D01*
X144926095Y-81153095D01*
X144964190Y-81115000D01*
X145002285Y-81153095D01*
X144926095Y-81153095D01*
X145726095Y-81457857D02*
X145726095Y-81953095D01*
X145421333Y-81686429D01*
X145421333Y-81800714D01*
X145383238Y-81876905D01*
X145345142Y-81915000D01*
X145268952Y-81953095D01*
X145078476Y-81953095D01*
X145002285Y-81915000D01*
X144964190Y-81876905D01*
X144926095Y-81800714D01*
X144926095Y-81572143D01*
X144964190Y-81495953D01*
X145002285Y-81457857D01*
X145726095Y-82181667D02*
X144926095Y-82448333D01*
X145726095Y-82715000D01*
X143186095Y-80772143D02*
X143186095Y-80391190D01*
X142805142Y-80353095D01*
X142843238Y-80391190D01*
X142881333Y-80467381D01*
X142881333Y-80657857D01*
X142843238Y-80734047D01*
X142805142Y-80772143D01*
X142728952Y-80810238D01*
X142538476Y-80810238D01*
X142462285Y-80772143D01*
X142424190Y-80734047D01*
X142386095Y-80657857D01*
X142386095Y-80467381D01*
X142424190Y-80391190D01*
X142462285Y-80353095D01*
X143186095Y-81038809D02*
X142386095Y-81305476D01*
X143186095Y-81572143D01*
X140608000Y-80810238D02*
X140646095Y-80734047D01*
X140646095Y-80619762D01*
X140608000Y-80505476D01*
X140531809Y-80429285D01*
X140455619Y-80391190D01*
X140303238Y-80353095D01*
X140188952Y-80353095D01*
X140036571Y-80391190D01*
X139960380Y-80429285D01*
X139884190Y-80505476D01*
X139846095Y-80619762D01*
X139846095Y-80695952D01*
X139884190Y-80810238D01*
X139922285Y-80848333D01*
X140188952Y-80848333D01*
X140188952Y-80695952D01*
X139846095Y-81191190D02*
X140646095Y-81191190D01*
X139846095Y-81648333D01*
X140646095Y-81648333D01*
X139846095Y-82029285D02*
X140646095Y-82029285D01*
X140646095Y-82219762D01*
X140608000Y-82334047D01*
X140531809Y-82410238D01*
X140455619Y-82448333D01*
X140303238Y-82486428D01*
X140188952Y-82486428D01*
X140036571Y-82448333D01*
X139960380Y-82410238D01*
X139884190Y-82334047D01*
X139846095Y-82219762D01*
X139846095Y-82029285D01*
X138068000Y-80810238D02*
X138106095Y-80734047D01*
X138106095Y-80619762D01*
X138068000Y-80505476D01*
X137991809Y-80429285D01*
X137915619Y-80391190D01*
X137763238Y-80353095D01*
X137648952Y-80353095D01*
X137496571Y-80391190D01*
X137420380Y-80429285D01*
X137344190Y-80505476D01*
X137306095Y-80619762D01*
X137306095Y-80695952D01*
X137344190Y-80810238D01*
X137382285Y-80848333D01*
X137648952Y-80848333D01*
X137648952Y-80695952D01*
X137306095Y-81191190D02*
X138106095Y-81191190D01*
X137306095Y-81648333D01*
X138106095Y-81648333D01*
X137306095Y-82029285D02*
X138106095Y-82029285D01*
X138106095Y-82219762D01*
X138068000Y-82334047D01*
X137991809Y-82410238D01*
X137915619Y-82448333D01*
X137763238Y-82486428D01*
X137648952Y-82486428D01*
X137496571Y-82448333D01*
X137420380Y-82410238D01*
X137344190Y-82334047D01*
X137306095Y-82219762D01*
X137306095Y-82029285D01*
X135566095Y-80276905D02*
X134766095Y-80543572D01*
X135566095Y-80810238D01*
X134766095Y-81076905D02*
X135299428Y-81076905D01*
X135566095Y-81076905D02*
X135528000Y-81038810D01*
X135489904Y-81076905D01*
X135528000Y-81115000D01*
X135566095Y-81076905D01*
X135489904Y-81076905D01*
X135299428Y-81457857D02*
X134766095Y-81457857D01*
X135223238Y-81457857D02*
X135261333Y-81495953D01*
X135299428Y-81572143D01*
X135299428Y-81686429D01*
X135261333Y-81762619D01*
X135185142Y-81800714D01*
X134766095Y-81800714D01*
X129914666Y-80353095D02*
X129914666Y-80734047D01*
X129686095Y-80276904D02*
X130486095Y-80543571D01*
X129686095Y-80810238D01*
X130486095Y-81229285D02*
X130486095Y-81305476D01*
X130448000Y-81381666D01*
X130409904Y-81419762D01*
X130333714Y-81457857D01*
X130181333Y-81495952D01*
X129990857Y-81495952D01*
X129838476Y-81457857D01*
X129762285Y-81419762D01*
X129724190Y-81381666D01*
X129686095Y-81305476D01*
X129686095Y-81229285D01*
X129724190Y-81153095D01*
X129762285Y-81115000D01*
X129838476Y-81076904D01*
X129990857Y-81038809D01*
X130181333Y-81038809D01*
X130333714Y-81076904D01*
X130409904Y-81115000D01*
X130448000Y-81153095D01*
X130486095Y-81229285D01*
X127374666Y-80353095D02*
X127374666Y-80734047D01*
X127146095Y-80276904D02*
X127946095Y-80543571D01*
X127146095Y-80810238D01*
X127146095Y-81495952D02*
X127146095Y-81038809D01*
X127146095Y-81267381D02*
X127946095Y-81267381D01*
X127831809Y-81191190D01*
X127755619Y-81115000D01*
X127717523Y-81038809D01*
X124834666Y-80353095D02*
X124834666Y-80734047D01*
X124606095Y-80276904D02*
X125406095Y-80543571D01*
X124606095Y-80810238D01*
X125329904Y-81038809D02*
X125368000Y-81076904D01*
X125406095Y-81153095D01*
X125406095Y-81343571D01*
X125368000Y-81419762D01*
X125329904Y-81457857D01*
X125253714Y-81495952D01*
X125177523Y-81495952D01*
X125063238Y-81457857D01*
X124606095Y-81000714D01*
X124606095Y-81495952D01*
X122294666Y-80353095D02*
X122294666Y-80734047D01*
X122066095Y-80276904D02*
X122866095Y-80543571D01*
X122066095Y-80810238D01*
X122866095Y-81000714D02*
X122866095Y-81495952D01*
X122561333Y-81229285D01*
X122561333Y-81343571D01*
X122523238Y-81419762D01*
X122485142Y-81457857D01*
X122408952Y-81495952D01*
X122218476Y-81495952D01*
X122142285Y-81457857D01*
X122104190Y-81419762D01*
X122066095Y-81343571D01*
X122066095Y-81115000D01*
X122104190Y-81038809D01*
X122142285Y-81000714D01*
X117024190Y-80353096D02*
X116986095Y-80467381D01*
X116986095Y-80657857D01*
X117024190Y-80734048D01*
X117062285Y-80772143D01*
X117138476Y-80810238D01*
X117214666Y-80810238D01*
X117290857Y-80772143D01*
X117328952Y-80734048D01*
X117367047Y-80657857D01*
X117405142Y-80505477D01*
X117443238Y-80429286D01*
X117481333Y-80391191D01*
X117557523Y-80353096D01*
X117633714Y-80353096D01*
X117709904Y-80391191D01*
X117748000Y-80429286D01*
X117786095Y-80505477D01*
X117786095Y-80695953D01*
X117748000Y-80810238D01*
X117062285Y-81610238D02*
X117024190Y-81572143D01*
X116986095Y-81457857D01*
X116986095Y-81381667D01*
X117024190Y-81267381D01*
X117100380Y-81191191D01*
X117176571Y-81153096D01*
X117328952Y-81115000D01*
X117443238Y-81115000D01*
X117595619Y-81153096D01*
X117671809Y-81191191D01*
X117748000Y-81267381D01*
X117786095Y-81381667D01*
X117786095Y-81457857D01*
X117748000Y-81572143D01*
X117709904Y-81610238D01*
X116986095Y-82334048D02*
X116986095Y-81953096D01*
X117786095Y-81953096D01*
X119564190Y-80353095D02*
X119526095Y-80467381D01*
X119526095Y-80657857D01*
X119564190Y-80734047D01*
X119602285Y-80772143D01*
X119678476Y-80810238D01*
X119754666Y-80810238D01*
X119830857Y-80772143D01*
X119868952Y-80734047D01*
X119907047Y-80657857D01*
X119945142Y-80505476D01*
X119983238Y-80429285D01*
X120021333Y-80391190D01*
X120097523Y-80353095D01*
X120173714Y-80353095D01*
X120249904Y-80391190D01*
X120288000Y-80429285D01*
X120326095Y-80505476D01*
X120326095Y-80695952D01*
X120288000Y-80810238D01*
X119526095Y-81153095D02*
X120326095Y-81153095D01*
X120326095Y-81343571D01*
X120288000Y-81457857D01*
X120211809Y-81534047D01*
X120135619Y-81572143D01*
X119983238Y-81610238D01*
X119868952Y-81610238D01*
X119716571Y-81572143D01*
X119640380Y-81534047D01*
X119564190Y-81457857D01*
X119526095Y-81343571D01*
X119526095Y-81153095D01*
X119754666Y-81915000D02*
X119754666Y-82295952D01*
X119526095Y-81838809D02*
X120326095Y-82105476D01*
X119526095Y-82372143D01*
X165648000Y-85256666D02*
X166124190Y-85256666D01*
X165552761Y-85542380D02*
X165886095Y-84542380D01*
X166219428Y-85542380D01*
X166552761Y-85542380D02*
X166552761Y-84542380D01*
X166790857Y-84542380D01*
X166933714Y-84590000D01*
X167028952Y-84685238D01*
X167076571Y-84780476D01*
X167124190Y-84970952D01*
X167124190Y-85113809D01*
X167076571Y-85304285D01*
X167028952Y-85399523D01*
X166933714Y-85494761D01*
X166790857Y-85542380D01*
X166552761Y-85542380D01*
X167838476Y-84542380D02*
X167838476Y-85256666D01*
X167790857Y-85399523D01*
X167695619Y-85494761D01*
X167552761Y-85542380D01*
X167457523Y-85542380D01*
X168314666Y-84542380D02*
X168314666Y-85351904D01*
X168362285Y-85447142D01*
X168409904Y-85494761D01*
X168505142Y-85542380D01*
X168695619Y-85542380D01*
X168790857Y-85494761D01*
X168838476Y-85447142D01*
X168886095Y-85351904D01*
X168886095Y-84542380D01*
X169314666Y-85494761D02*
X169457523Y-85542380D01*
X169695619Y-85542380D01*
X169790857Y-85494761D01*
X169838476Y-85447142D01*
X169886095Y-85351904D01*
X169886095Y-85256666D01*
X169838476Y-85161428D01*
X169790857Y-85113809D01*
X169695619Y-85066190D01*
X169505142Y-85018571D01*
X169409904Y-84970952D01*
X169362285Y-84923333D01*
X169314666Y-84828095D01*
X169314666Y-84732857D01*
X169362285Y-84637619D01*
X169409904Y-84590000D01*
X169505142Y-84542380D01*
X169743238Y-84542380D01*
X169886095Y-84590000D01*
X170171809Y-84542380D02*
X170743238Y-84542380D01*
X170457523Y-85542380D02*
X170457523Y-84542380D01*
X106489666Y-117403571D02*
X106823000Y-117403571D01*
X106965857Y-117927380D02*
X106489666Y-117927380D01*
X106489666Y-116927380D01*
X106965857Y-116927380D01*
X107394428Y-117927380D02*
X107394428Y-116927380D01*
X107632523Y-116927380D01*
X107775380Y-116975000D01*
X107870619Y-117070238D01*
X107918238Y-117165476D01*
X107965857Y-117355952D01*
X107965857Y-117498809D01*
X107918238Y-117689285D01*
X107870619Y-117784523D01*
X107775380Y-117879761D01*
X107632523Y-117927380D01*
X107394428Y-117927380D01*
X108394428Y-117927380D02*
X108394428Y-116927380D01*
X108727761Y-116927380D02*
X109299190Y-116927380D01*
X109013476Y-117927380D02*
X109013476Y-116927380D01*
D11*
X103378000Y-105615000D02*
X103378000Y-83615000D01*
X103378000Y-105615000D02*
X98298000Y-105615000D01*
X98298000Y-105615000D02*
X98298000Y-83615000D01*
X103378000Y-83615000D02*
X98298000Y-83615000D01*
X116078000Y-83185000D02*
X116078000Y-112185000D01*
X116078000Y-83185000D02*
X156078000Y-83185000D01*
X156078000Y-83185000D02*
X156078000Y-112185000D01*
X156078000Y-112185000D02*
X116078000Y-112185000D01*
D12*
G36*
X103123139Y-122643712D02*
G01*
X103120730Y-122783495D01*
X103117039Y-122897141D01*
X103112330Y-122977242D01*
X103106867Y-123016391D01*
X103104950Y-123019060D01*
X103076755Y-123013160D01*
X103004796Y-122996507D01*
X102894650Y-122970437D01*
X102751893Y-122936285D01*
X102582103Y-122895384D01*
X102390856Y-122849068D01*
X102183730Y-122798674D01*
X102171500Y-122795691D01*
X101257100Y-122572663D01*
X101250071Y-122935731D01*
X101247047Y-123064954D01*
X101243501Y-123173896D01*
X101239804Y-123253565D01*
X101236326Y-123294967D01*
X101235101Y-123298800D01*
X101211154Y-123287354D01*
X101147031Y-123254680D01*
X101047477Y-123203269D01*
X100917238Y-123135615D01*
X100761058Y-123054209D01*
X100583683Y-122961544D01*
X100389859Y-122860112D01*
X100184331Y-122752406D01*
X99971844Y-122640919D01*
X99757143Y-122528142D01*
X99544973Y-122416569D01*
X99340081Y-122308692D01*
X99147211Y-122207003D01*
X98971108Y-122113995D01*
X98816518Y-122032160D01*
X98688187Y-121963991D01*
X98590858Y-121911980D01*
X98529279Y-121878620D01*
X98508258Y-121866524D01*
X98503448Y-121851271D01*
X98505566Y-121851000D01*
X98532954Y-121856394D01*
X98603392Y-121871603D01*
X98710396Y-121895164D01*
X98847483Y-121925618D01*
X99008170Y-121961501D01*
X99185975Y-122001353D01*
X99374413Y-122043713D01*
X99567002Y-122087118D01*
X99757259Y-122130108D01*
X99938699Y-122171221D01*
X100104841Y-122208995D01*
X100249202Y-122241970D01*
X100365297Y-122268683D01*
X100446643Y-122287673D01*
X100486759Y-122297480D01*
X100488750Y-122298047D01*
X100506073Y-122299690D01*
X100518220Y-122287427D01*
X100526100Y-122253986D01*
X100530618Y-122192098D01*
X100532682Y-122094491D01*
X100533199Y-121953894D01*
X100533200Y-121941611D01*
X100534525Y-121811074D01*
X100538169Y-121700734D01*
X100543639Y-121619500D01*
X100550442Y-121576279D01*
X100553691Y-121571600D01*
X100585872Y-121575142D01*
X100662108Y-121585200D01*
X100776516Y-121600924D01*
X100923212Y-121621461D01*
X101096316Y-121645959D01*
X101289943Y-121673568D01*
X101498211Y-121703436D01*
X101715239Y-121734711D01*
X101935143Y-121766541D01*
X102152040Y-121798075D01*
X102360049Y-121828462D01*
X102553287Y-121856850D01*
X102725870Y-121882387D01*
X102871917Y-121904222D01*
X102985545Y-121921504D01*
X103060871Y-121933380D01*
X103092013Y-121938999D01*
X103092250Y-121939079D01*
X103103504Y-121956291D01*
X103111990Y-122001605D01*
X103117991Y-122079890D01*
X103121791Y-122196012D01*
X103123672Y-122354840D01*
X103124000Y-122485202D01*
X103123139Y-122643712D01*
G37*
X103123139Y-122643712D02*
X103120730Y-122783495D01*
X103117039Y-122897141D01*
X103112330Y-122977242D01*
X103106867Y-123016391D01*
X103104950Y-123019060D01*
X103076755Y-123013160D01*
X103004796Y-122996507D01*
X102894650Y-122970437D01*
X102751893Y-122936285D01*
X102582103Y-122895384D01*
X102390856Y-122849068D01*
X102183730Y-122798674D01*
X102171500Y-122795691D01*
X101257100Y-122572663D01*
X101250071Y-122935731D01*
X101247047Y-123064954D01*
X101243501Y-123173896D01*
X101239804Y-123253565D01*
X101236326Y-123294967D01*
X101235101Y-123298800D01*
X101211154Y-123287354D01*
X101147031Y-123254680D01*
X101047477Y-123203269D01*
X100917238Y-123135615D01*
X100761058Y-123054209D01*
X100583683Y-122961544D01*
X100389859Y-122860112D01*
X100184331Y-122752406D01*
X99971844Y-122640919D01*
X99757143Y-122528142D01*
X99544973Y-122416569D01*
X99340081Y-122308692D01*
X99147211Y-122207003D01*
X98971108Y-122113995D01*
X98816518Y-122032160D01*
X98688187Y-121963991D01*
X98590858Y-121911980D01*
X98529279Y-121878620D01*
X98508258Y-121866524D01*
X98503448Y-121851271D01*
X98505566Y-121851000D01*
X98532954Y-121856394D01*
X98603392Y-121871603D01*
X98710396Y-121895164D01*
X98847483Y-121925618D01*
X99008170Y-121961501D01*
X99185975Y-122001353D01*
X99374413Y-122043713D01*
X99567002Y-122087118D01*
X99757259Y-122130108D01*
X99938699Y-122171221D01*
X100104841Y-122208995D01*
X100249202Y-122241970D01*
X100365297Y-122268683D01*
X100446643Y-122287673D01*
X100486759Y-122297480D01*
X100488750Y-122298047D01*
X100506073Y-122299690D01*
X100518220Y-122287427D01*
X100526100Y-122253986D01*
X100530618Y-122192098D01*
X100532682Y-122094491D01*
X100533199Y-121953894D01*
X100533200Y-121941611D01*
X100534525Y-121811074D01*
X100538169Y-121700734D01*
X100543639Y-121619500D01*
X100550442Y-121576279D01*
X100553691Y-121571600D01*
X100585872Y-121575142D01*
X100662108Y-121585200D01*
X100776516Y-121600924D01*
X100923212Y-121621461D01*
X101096316Y-121645959D01*
X101289943Y-121673568D01*
X101498211Y-121703436D01*
X101715239Y-121734711D01*
X101935143Y-121766541D01*
X102152040Y-121798075D01*
X102360049Y-121828462D01*
X102553287Y-121856850D01*
X102725870Y-121882387D01*
X102871917Y-121904222D01*
X102985545Y-121921504D01*
X103060871Y-121933380D01*
X103092013Y-121938999D01*
X103092250Y-121939079D01*
X103103504Y-121956291D01*
X103111990Y-122001605D01*
X103117991Y-122079890D01*
X103121791Y-122196012D01*
X103123672Y-122354840D01*
X103124000Y-122485202D01*
X103123139Y-122643712D01*
G36*
X102763884Y-109259468D02*
G01*
X102762109Y-109496786D01*
X102758787Y-109684575D01*
X102753923Y-109822491D01*
X102747522Y-109910190D01*
X102742651Y-109939697D01*
X102688971Y-110059177D01*
X102603400Y-110159858D01*
X102498806Y-110227714D01*
X102468223Y-110238814D01*
X102430420Y-110245163D01*
X102360808Y-110250669D01*
X102257164Y-110255365D01*
X102117261Y-110259287D01*
X101938872Y-110262470D01*
X101719773Y-110264950D01*
X101457738Y-110266762D01*
X101150540Y-110267941D01*
X100795954Y-110268522D01*
X100587404Y-110268600D01*
X98806000Y-110268600D01*
X98806000Y-109481200D01*
X99872800Y-109481200D01*
X99872800Y-107906400D01*
X98806000Y-107906400D01*
X98806000Y-107091372D01*
X101981000Y-107104554D01*
X101981000Y-107906400D01*
X100660200Y-107906400D01*
X100660200Y-109481200D01*
X101981000Y-109481200D01*
X101981000Y-107906400D01*
X101981000Y-107104554D01*
X102401530Y-107106300D01*
X102525485Y-107170108D01*
X102632107Y-107242297D01*
X102701866Y-107333871D01*
X102702570Y-107335208D01*
X102714894Y-107360277D01*
X102725188Y-107387449D01*
X102733668Y-107421358D01*
X102740547Y-107466643D01*
X102746040Y-107527941D01*
X102750362Y-107609887D01*
X102753726Y-107717120D01*
X102756348Y-107854275D01*
X102758440Y-108025990D01*
X102760219Y-108236901D01*
X102761897Y-108491646D01*
X102762770Y-108637614D01*
X102764106Y-108972963D01*
X102763884Y-109259468D01*
G37*
X102763884Y-109259468D02*
X102762109Y-109496786D01*
X102758787Y-109684575D01*
X102753923Y-109822491D01*
X102747522Y-109910190D01*
X102742651Y-109939697D01*
X102688971Y-110059177D01*
X102603400Y-110159858D01*
X102498806Y-110227714D01*
X102468223Y-110238814D01*
X102430420Y-110245163D01*
X102360808Y-110250669D01*
X102257164Y-110255365D01*
X102117261Y-110259287D01*
X101938872Y-110262470D01*
X101719773Y-110264950D01*
X101457738Y-110266762D01*
X101150540Y-110267941D01*
X100795954Y-110268522D01*
X100587404Y-110268600D01*
X98806000Y-110268600D01*
X98806000Y-109481200D01*
X99872800Y-109481200D01*
X99872800Y-107906400D01*
X98806000Y-107906400D01*
X98806000Y-107091372D01*
X101981000Y-107104554D01*
X101981000Y-107906400D01*
X100660200Y-107906400D01*
X100660200Y-109481200D01*
X101981000Y-109481200D01*
X101981000Y-107906400D01*
X101981000Y-107104554D01*
X102401530Y-107106300D01*
X102525485Y-107170108D01*
X102632107Y-107242297D01*
X102701866Y-107333871D01*
X102702570Y-107335208D01*
X102714894Y-107360277D01*
X102725188Y-107387449D01*
X102733668Y-107421358D01*
X102740547Y-107466643D01*
X102746040Y-107527941D01*
X102750362Y-107609887D01*
X102753726Y-107717120D01*
X102756348Y-107854275D01*
X102758440Y-108025990D01*
X102760219Y-108236901D01*
X102761897Y-108491646D01*
X102762770Y-108637614D01*
X102764106Y-108972963D01*
X102763884Y-109259468D01*
G36*
X99593400Y-111614800D02*
G01*
X99593400Y-113189600D01*
X101701600Y-113189600D01*
X101701600Y-113977000D01*
X100450650Y-113976858D01*
X100150980Y-113976284D01*
X99882647Y-113974672D01*
X99648712Y-113972083D01*
X99452234Y-113968574D01*
X99296276Y-113964205D01*
X99183896Y-113959036D01*
X99118155Y-113953126D01*
X99106540Y-113950841D01*
X99009474Y-113901264D01*
X98920676Y-113816188D01*
X98853960Y-113710612D01*
X98832928Y-113653844D01*
X98827370Y-113608354D01*
X98822507Y-113518617D01*
X98818345Y-113390950D01*
X98814889Y-113231673D01*
X98812145Y-113047103D01*
X98810118Y-112843558D01*
X98808815Y-112627356D01*
X98808239Y-112404815D01*
X98808397Y-112182254D01*
X98809294Y-111965991D01*
X98810936Y-111762344D01*
X98813328Y-111577630D01*
X98816476Y-111418169D01*
X98820385Y-111290277D01*
X98825060Y-111200274D01*
X98830508Y-111154477D01*
X98830758Y-111153602D01*
X98895684Y-111013283D01*
X98994816Y-110910204D01*
X99059446Y-110871310D01*
X99086443Y-110858501D01*
X99114018Y-110847754D01*
X99146713Y-110838856D01*
X99189072Y-110831596D01*
X99245638Y-110825760D01*
X99320952Y-110821136D01*
X99419559Y-110817511D01*
X99546001Y-110814674D01*
X99704821Y-110812412D01*
X99900562Y-110810511D01*
X100137767Y-110808761D01*
X100420979Y-110806948D01*
X100437950Y-110806842D01*
X101701600Y-110798985D01*
X101701600Y-111614800D01*
X99593400Y-111614800D01*
G37*
X99593400Y-111614800D02*
X99593400Y-113189600D01*
X101701600Y-113189600D01*
X101701600Y-113977000D01*
X100450650Y-113976858D01*
X100150980Y-113976284D01*
X99882647Y-113974672D01*
X99648712Y-113972083D01*
X99452234Y-113968574D01*
X99296276Y-113964205D01*
X99183896Y-113959036D01*
X99118155Y-113953126D01*
X99106540Y-113950841D01*
X99009474Y-113901264D01*
X98920676Y-113816188D01*
X98853960Y-113710612D01*
X98832928Y-113653844D01*
X98827370Y-113608354D01*
X98822507Y-113518617D01*
X98818345Y-113390950D01*
X98814889Y-113231673D01*
X98812145Y-113047103D01*
X98810118Y-112843558D01*
X98808815Y-112627356D01*
X98808239Y-112404815D01*
X98808397Y-112182254D01*
X98809294Y-111965991D01*
X98810936Y-111762344D01*
X98813328Y-111577630D01*
X98816476Y-111418169D01*
X98820385Y-111290277D01*
X98825060Y-111200274D01*
X98830508Y-111154477D01*
X98830758Y-111153602D01*
X98895684Y-111013283D01*
X98994816Y-110910204D01*
X99059446Y-110871310D01*
X99086443Y-110858501D01*
X99114018Y-110847754D01*
X99146713Y-110838856D01*
X99189072Y-110831596D01*
X99245638Y-110825760D01*
X99320952Y-110821136D01*
X99419559Y-110817511D01*
X99546001Y-110814674D01*
X99704821Y-110812412D01*
X99900562Y-110810511D01*
X100137767Y-110808761D01*
X100420979Y-110806948D01*
X100437950Y-110806842D01*
X101701600Y-110798985D01*
X101701600Y-111614800D01*
X99593400Y-111614800D01*
G36*
X101727000Y-115323200D02*
G01*
X101727000Y-115577200D01*
X101725174Y-115700880D01*
X101719157Y-115780176D01*
X101708146Y-115821393D01*
X101694584Y-115831200D01*
X101660188Y-115823482D01*
X101586933Y-115802219D01*
X101484047Y-115770241D01*
X101360756Y-115730380D01*
X101294534Y-115708442D01*
X100926900Y-115585684D01*
X100911546Y-115323200D01*
X99593400Y-115323200D01*
X99593400Y-115856600D01*
X98806000Y-115856600D01*
X98808184Y-115393050D01*
X98809981Y-115240010D01*
X98813625Y-115100573D01*
X98818709Y-114984319D01*
X98824826Y-114900827D01*
X98830758Y-114862002D01*
X98895684Y-114721683D01*
X98994816Y-114618604D01*
X99059446Y-114579710D01*
X99083957Y-114567989D01*
X99108934Y-114557987D01*
X99138441Y-114549547D01*
X99176541Y-114542510D01*
X99227299Y-114536716D01*
X99294778Y-114532008D01*
X99383042Y-114528227D01*
X99496156Y-114525213D01*
X99638182Y-114522808D01*
X99813185Y-114520854D01*
X100025229Y-114519192D01*
X100278378Y-114517663D01*
X100576695Y-114516108D01*
X100704650Y-114515468D01*
X102235000Y-114507837D01*
X102235000Y-115323200D01*
X101727000Y-115323200D01*
G37*
X101727000Y-115323200D02*
X101727000Y-115577200D01*
X101725174Y-115700880D01*
X101719157Y-115780176D01*
X101708146Y-115821393D01*
X101694584Y-115831200D01*
X101660188Y-115823482D01*
X101586933Y-115802219D01*
X101484047Y-115770241D01*
X101360756Y-115730380D01*
X101294534Y-115708442D01*
X100926900Y-115585684D01*
X100911546Y-115323200D01*
X99593400Y-115323200D01*
X99593400Y-115856600D01*
X98806000Y-115856600D01*
X98808184Y-115393050D01*
X98809981Y-115240010D01*
X98813625Y-115100573D01*
X98818709Y-114984319D01*
X98824826Y-114900827D01*
X98830758Y-114862002D01*
X98895684Y-114721683D01*
X98994816Y-114618604D01*
X99059446Y-114579710D01*
X99083957Y-114567989D01*
X99108934Y-114557987D01*
X99138441Y-114549547D01*
X99176541Y-114542510D01*
X99227299Y-114536716D01*
X99294778Y-114532008D01*
X99383042Y-114528227D01*
X99496156Y-114525213D01*
X99638182Y-114522808D01*
X99813185Y-114520854D01*
X100025229Y-114519192D01*
X100278378Y-114517663D01*
X100576695Y-114516108D01*
X100704650Y-114515468D01*
X102235000Y-114507837D01*
X102235000Y-115323200D01*
X101727000Y-115323200D01*
G36*
X101702713Y-118184857D02*
G01*
X101701211Y-118406111D01*
X101698722Y-118614494D01*
X101695246Y-118803639D01*
X101690782Y-118967181D01*
X101685332Y-119098753D01*
X101678894Y-119191988D01*
X101671815Y-119239422D01*
X101616040Y-119346165D01*
X101524083Y-119438270D01*
X101410552Y-119502133D01*
X101378445Y-119512672D01*
X101327133Y-119519665D01*
X101231896Y-119525616D01*
X101099601Y-119530529D01*
X100937110Y-119534407D01*
X100751289Y-119537255D01*
X100549003Y-119539075D01*
X100337117Y-119539873D01*
X100122495Y-119539651D01*
X99912003Y-119538413D01*
X99712505Y-119536164D01*
X99530865Y-119532907D01*
X99373950Y-119528645D01*
X99248623Y-119523382D01*
X99161749Y-119517123D01*
X99124692Y-119511440D01*
X99010172Y-119455930D01*
X98911898Y-119364809D01*
X98845047Y-119253255D01*
X98834160Y-119220908D01*
X98828060Y-119173179D01*
X98822775Y-119081095D01*
X98818305Y-118950979D01*
X98814650Y-118789159D01*
X98811808Y-118601959D01*
X98809779Y-118395706D01*
X98808563Y-118176725D01*
X98808160Y-117951342D01*
X98808568Y-117725883D01*
X98809787Y-117506673D01*
X98811816Y-117300039D01*
X98814656Y-117112305D01*
X98818305Y-116949799D01*
X98822763Y-116818845D01*
X98828030Y-116725769D01*
X98834105Y-116676897D01*
X98834375Y-116675912D01*
X98887085Y-116573448D01*
X98975570Y-116481770D01*
X99084884Y-116414476D01*
X99144550Y-116393745D01*
X99199795Y-116386396D01*
X99298481Y-116380075D01*
X99433685Y-116374789D01*
X99598487Y-116370546D01*
X99785965Y-116367351D01*
X99989201Y-116365213D01*
X100201272Y-116364137D01*
X100415258Y-116364130D01*
X100624237Y-116365201D01*
X100821291Y-116367354D01*
X100914200Y-116369045D01*
X100914200Y-117152000D01*
X100270734Y-117152000D01*
X100094823Y-117152642D01*
X99935918Y-117154450D01*
X99801013Y-117157243D01*
X99697104Y-117160844D01*
X99631187Y-117165071D01*
X99610334Y-117168933D01*
X99606138Y-117197623D01*
X99602320Y-117270811D01*
X99599015Y-117382195D01*
X99596354Y-117525473D01*
X99594473Y-117694344D01*
X99593504Y-117882505D01*
X99593400Y-117969033D01*
X99593400Y-118752200D01*
X100914200Y-118752200D01*
X100914200Y-117152000D01*
X100914200Y-116369045D01*
X100999497Y-116370598D01*
X101151934Y-116374939D01*
X101271683Y-116380384D01*
X101351822Y-116386939D01*
X101378445Y-116391527D01*
X101495266Y-116445544D01*
X101594415Y-116531437D01*
X101661284Y-116635602D01*
X101671815Y-116664777D01*
X101679196Y-116715395D01*
X101685590Y-116810438D01*
X101690998Y-116943539D01*
X101695418Y-117108331D01*
X101698851Y-117298450D01*
X101701297Y-117507528D01*
X101702756Y-117729199D01*
X101703228Y-117957097D01*
X101702713Y-118184857D01*
G37*
X101702713Y-118184857D02*
X101701211Y-118406111D01*
X101698722Y-118614494D01*
X101695246Y-118803639D01*
X101690782Y-118967181D01*
X101685332Y-119098753D01*
X101678894Y-119191988D01*
X101671815Y-119239422D01*
X101616040Y-119346165D01*
X101524083Y-119438270D01*
X101410552Y-119502133D01*
X101378445Y-119512672D01*
X101327133Y-119519665D01*
X101231896Y-119525616D01*
X101099601Y-119530529D01*
X100937110Y-119534407D01*
X100751289Y-119537255D01*
X100549003Y-119539075D01*
X100337117Y-119539873D01*
X100122495Y-119539651D01*
X99912003Y-119538413D01*
X99712505Y-119536164D01*
X99530865Y-119532907D01*
X99373950Y-119528645D01*
X99248623Y-119523382D01*
X99161749Y-119517123D01*
X99124692Y-119511440D01*
X99010172Y-119455930D01*
X98911898Y-119364809D01*
X98845047Y-119253255D01*
X98834160Y-119220908D01*
X98828060Y-119173179D01*
X98822775Y-119081095D01*
X98818305Y-118950979D01*
X98814650Y-118789159D01*
X98811808Y-118601959D01*
X98809779Y-118395706D01*
X98808563Y-118176725D01*
X98808160Y-117951342D01*
X98808568Y-117725883D01*
X98809787Y-117506673D01*
X98811816Y-117300039D01*
X98814656Y-117112305D01*
X98818305Y-116949799D01*
X98822763Y-116818845D01*
X98828030Y-116725769D01*
X98834105Y-116676897D01*
X98834375Y-116675912D01*
X98887085Y-116573448D01*
X98975570Y-116481770D01*
X99084884Y-116414476D01*
X99144550Y-116393745D01*
X99199795Y-116386396D01*
X99298481Y-116380075D01*
X99433685Y-116374789D01*
X99598487Y-116370546D01*
X99785965Y-116367351D01*
X99989201Y-116365213D01*
X100201272Y-116364137D01*
X100415258Y-116364130D01*
X100624237Y-116365201D01*
X100821291Y-116367354D01*
X100914200Y-116369045D01*
X100914200Y-117152000D01*
X100270734Y-117152000D01*
X100094823Y-117152642D01*
X99935918Y-117154450D01*
X99801013Y-117157243D01*
X99697104Y-117160844D01*
X99631187Y-117165071D01*
X99610334Y-117168933D01*
X99606138Y-117197623D01*
X99602320Y-117270811D01*
X99599015Y-117382195D01*
X99596354Y-117525473D01*
X99594473Y-117694344D01*
X99593504Y-117882505D01*
X99593400Y-117969033D01*
X99593400Y-118752200D01*
X100914200Y-118752200D01*
X100914200Y-117152000D01*
X100914200Y-116369045D01*
X100999497Y-116370598D01*
X101151934Y-116374939D01*
X101271683Y-116380384D01*
X101351822Y-116386939D01*
X101378445Y-116391527D01*
X101495266Y-116445544D01*
X101594415Y-116531437D01*
X101661284Y-116635602D01*
X101671815Y-116664777D01*
X101679196Y-116715395D01*
X101685590Y-116810438D01*
X101690998Y-116943539D01*
X101695418Y-117108331D01*
X101698851Y-117298450D01*
X101701297Y-117507528D01*
X101702756Y-117729199D01*
X101703228Y-117957097D01*
X101702713Y-118184857D01*
G36*
X102764208Y-125895525D02*
G01*
X102762666Y-126129476D01*
X102759723Y-126318562D01*
X102755399Y-126461246D01*
X102749719Y-126555989D01*
X102743857Y-126597618D01*
X102683604Y-126733380D01*
X102585109Y-126835738D01*
X102503697Y-126882833D01*
X102471162Y-126895884D01*
X102433392Y-126906302D01*
X102384581Y-126914384D01*
X102318926Y-126920427D01*
X102230622Y-126924729D01*
X102113863Y-126927587D01*
X101962846Y-126929297D01*
X101771765Y-126930157D01*
X101573632Y-126930442D01*
X101346608Y-126930492D01*
X101164513Y-126930068D01*
X101021477Y-126928816D01*
X100911629Y-126926383D01*
X100829099Y-126922415D01*
X100768017Y-126916558D01*
X100722512Y-126908459D01*
X100686714Y-126897765D01*
X100654752Y-126884121D01*
X100633937Y-126873850D01*
X100524621Y-126793969D01*
X100448430Y-126679828D01*
X100403373Y-126528072D01*
X100395205Y-126471012D01*
X100385334Y-126391637D01*
X100376884Y-126337388D01*
X100372470Y-126321400D01*
X100348381Y-126330490D01*
X100282760Y-126356273D01*
X100181222Y-126396518D01*
X100049377Y-126448990D01*
X99892838Y-126511460D01*
X99717218Y-126581693D01*
X99606101Y-126626200D01*
X99421068Y-126700115D01*
X99251080Y-126767567D01*
X99101881Y-126826310D01*
X98979216Y-126874101D01*
X98888830Y-126908695D01*
X98836467Y-126927849D01*
X98825770Y-126931000D01*
X98818976Y-126907045D01*
X98813191Y-126840955D01*
X98808850Y-126741391D01*
X98806392Y-126617015D01*
X98806000Y-126539556D01*
X98806000Y-126148113D01*
X99101527Y-126025206D01*
X99221776Y-125975114D01*
X99375091Y-125911125D01*
X99547693Y-125838997D01*
X99725806Y-125764486D01*
X99882577Y-125698830D01*
X100368100Y-125495360D01*
X100381946Y-124568800D01*
X98806000Y-124568800D01*
X98806000Y-123753772D01*
X101981000Y-123766959D01*
X101981000Y-124568800D01*
X101193600Y-124568800D01*
X101193600Y-126143600D01*
X101981000Y-126143600D01*
X101981000Y-124568800D01*
X101981000Y-123766959D01*
X102400100Y-123768700D01*
X102516075Y-123825852D01*
X102629120Y-123905144D01*
X102693875Y-123990952D01*
X102755700Y-124098900D01*
X102762993Y-125299184D01*
X102764324Y-125618249D01*
X102764208Y-125895525D01*
G37*
X102764208Y-125895525D02*
X102762666Y-126129476D01*
X102759723Y-126318562D01*
X102755399Y-126461246D01*
X102749719Y-126555989D01*
X102743857Y-126597618D01*
X102683604Y-126733380D01*
X102585109Y-126835738D01*
X102503697Y-126882833D01*
X102471162Y-126895884D01*
X102433392Y-126906302D01*
X102384581Y-126914384D01*
X102318926Y-126920427D01*
X102230622Y-126924729D01*
X102113863Y-126927587D01*
X101962846Y-126929297D01*
X101771765Y-126930157D01*
X101573632Y-126930442D01*
X101346608Y-126930492D01*
X101164513Y-126930068D01*
X101021477Y-126928816D01*
X100911629Y-126926383D01*
X100829099Y-126922415D01*
X100768017Y-126916558D01*
X100722512Y-126908459D01*
X100686714Y-126897765D01*
X100654752Y-126884121D01*
X100633937Y-126873850D01*
X100524621Y-126793969D01*
X100448430Y-126679828D01*
X100403373Y-126528072D01*
X100395205Y-126471012D01*
X100385334Y-126391637D01*
X100376884Y-126337388D01*
X100372470Y-126321400D01*
X100348381Y-126330490D01*
X100282760Y-126356273D01*
X100181222Y-126396518D01*
X100049377Y-126448990D01*
X99892838Y-126511460D01*
X99717218Y-126581693D01*
X99606101Y-126626200D01*
X99421068Y-126700115D01*
X99251080Y-126767567D01*
X99101881Y-126826310D01*
X98979216Y-126874101D01*
X98888830Y-126908695D01*
X98836467Y-126927849D01*
X98825770Y-126931000D01*
X98818976Y-126907045D01*
X98813191Y-126840955D01*
X98808850Y-126741391D01*
X98806392Y-126617015D01*
X98806000Y-126539556D01*
X98806000Y-126148113D01*
X99101527Y-126025206D01*
X99221776Y-125975114D01*
X99375091Y-125911125D01*
X99547693Y-125838997D01*
X99725806Y-125764486D01*
X99882577Y-125698830D01*
X100368100Y-125495360D01*
X100381946Y-124568800D01*
X98806000Y-124568800D01*
X98806000Y-123753772D01*
X101981000Y-123766959D01*
X101981000Y-124568800D01*
X101193600Y-124568800D01*
X101193600Y-126143600D01*
X101981000Y-126143600D01*
X101981000Y-124568800D01*
X101981000Y-123766959D01*
X102400100Y-123768700D01*
X102516075Y-123825852D01*
X102629120Y-123905144D01*
X102693875Y-123990952D01*
X102755700Y-124098900D01*
X102762993Y-125299184D01*
X102764324Y-125618249D01*
X102764208Y-125895525D01*
D11*
X140208000Y-116205000D02*
G75*
G02*
X140208000Y-118745000I0J-1270000D01*
G01*
X137668000Y-121285000D02*
X140208000Y-121285000D01*
X140208000Y-121285000D02*
X140208000Y-113665000D01*
X140208000Y-113665000D02*
X137668000Y-113665000D01*
X137668000Y-113665000D02*
X137668000Y-121285000D01*
X144828000Y-113830000D02*
X144828000Y-120330000D01*
X145288000Y-113830000D02*
X144828000Y-113830000D01*
X145288000Y-120330000D02*
X144828000Y-120330000D01*
X145288000Y-113830000D02*
X147588000Y-113830000D01*
X145288000Y-113830000D02*
X145288000Y-120330000D01*
X145288000Y-120330000D02*
X147588000Y-120330000D01*
X147588000Y-113830000D02*
X147588000Y-120330000D01*
X158248000Y-116840000D02*
G75*
G03*
X158248000Y-116840000I-2800000J0D01*
G01*
X158248000Y-116840000D02*
G75*
G03*
X158248000Y-116840000I-2800000J0D01*
G01*
X171158000Y-94655000D02*
G75*
G03*
X171158000Y-94655000I-3000000J0D01*
G01*
X170058000Y-100955000D02*
X174858000Y-100955000D01*
X174858000Y-88355000D02*
X174858000Y-91155000D01*
X174858000Y-100955000D02*
X174858000Y-98455000D01*
X169958000Y-88355000D02*
X174858000Y-88355000D01*
X175658000Y-98455000D02*
X175958000Y-98755000D01*
X175958000Y-98755000D02*
X175358000Y-98755000D01*
X175358000Y-98755000D02*
X175658000Y-98455000D01*
X161458000Y-100955000D02*
X161458000Y-98355000D01*
X161458000Y-90955000D02*
X161458000Y-88355000D01*
X168158000Y-95155000D02*
X168158000Y-94155000D01*
X168658000Y-94655000D02*
X167658000Y-94655000D01*
X166358000Y-100955000D02*
X161458000Y-100955000D01*
X161458000Y-88355000D02*
X166358000Y-88355000D01*
X161458000Y-98355000D02*
X161458000Y-90955000D01*
X111633000Y-114935000D02*
X111633000Y-117475000D01*
X121833000Y-114935000D02*
X111633000Y-114935000D01*
X121833000Y-120015000D02*
X121833000Y-114935000D01*
X111633000Y-120015000D02*
X121833000Y-120015000D01*
X111633000Y-117475000D02*
X111633000Y-120015000D01*
X126468000Y-120745000D02*
X126138000Y-120745000D01*
X126138000Y-120745000D02*
X126138000Y-114205000D01*
X126138000Y-114205000D02*
X126468000Y-114205000D01*
X128548000Y-120745000D02*
X128878000Y-120745000D01*
X128878000Y-120745000D02*
X128878000Y-114205000D01*
X128878000Y-114205000D02*
X128548000Y-114205000D01*
X174728000Y-118205000D02*
X174398000Y-118205000D01*
X174398000Y-118205000D02*
X174398000Y-111665000D01*
X174398000Y-111665000D02*
X174728000Y-111665000D01*
X176808000Y-118205000D02*
X177138000Y-118205000D01*
X177138000Y-118205000D02*
X177138000Y-111665000D01*
X177138000Y-111665000D02*
X176808000Y-111665000D01*
X169648000Y-118205000D02*
X169318000Y-118205000D01*
X169318000Y-118205000D02*
X169318000Y-111665000D01*
X169318000Y-111665000D02*
X169648000Y-111665000D01*
X171728000Y-118205000D02*
X172058000Y-118205000D01*
X172058000Y-118205000D02*
X172058000Y-111665000D01*
X172058000Y-111665000D02*
X171728000Y-111665000D01*
X133628000Y-114205000D02*
X133958000Y-114205000D01*
X133958000Y-114205000D02*
X133958000Y-120745000D01*
X133958000Y-120745000D02*
X133628000Y-120745000D01*
X131548000Y-114205000D02*
X131218000Y-114205000D01*
X131218000Y-114205000D02*
X131218000Y-120745000D01*
X131218000Y-120745000D02*
X131548000Y-120745000D01*
X164568000Y-118205000D02*
X164238000Y-118205000D01*
X164238000Y-118205000D02*
X164238000Y-111665000D01*
X164238000Y-111665000D02*
X164568000Y-111665000D01*
X166648000Y-118205000D02*
X166978000Y-118205000D01*
X166978000Y-118205000D02*
X166978000Y-111665000D01*
X166978000Y-111665000D02*
X166648000Y-111665000D01*
D10*
X151638000Y-76835000D02*
X133858000Y-76835000D01*
X133858000Y-76835000D02*
X133858000Y-79375000D01*
X133858000Y-79375000D02*
X151638000Y-79375000D01*
X154458000Y-76555000D02*
X152908000Y-76555000D01*
X151638000Y-76835000D02*
X151638000Y-79375000D01*
X152908000Y-79655000D02*
X154458000Y-79655000D01*
X154458000Y-79655000D02*
X154458000Y-76555000D01*
X128778000Y-76835000D02*
X116078000Y-76835000D01*
X116078000Y-76835000D02*
X116078000Y-79375000D01*
X116078000Y-79375000D02*
X128778000Y-79375000D01*
X131598000Y-76555000D02*
X130048000Y-76555000D01*
X128778000Y-76835000D02*
X128778000Y-79375000D01*
X130048000Y-79655000D02*
X131598000Y-79655000D01*
X131598000Y-79655000D02*
X131598000Y-76555000D01*
X160782000Y-125095000D02*
X137922000Y-125095000D01*
X137922000Y-125095000D02*
X137922000Y-127635000D01*
X137922000Y-127635000D02*
X160782000Y-127635000D01*
X163602000Y-124815000D02*
X162052000Y-124815000D01*
X160782000Y-125095000D02*
X160782000Y-127635000D01*
X162052000Y-127915000D02*
X163602000Y-127915000D01*
X163602000Y-127915000D02*
X163602000Y-124815000D01*
X133858000Y-125095000D02*
X116078000Y-125095000D01*
X116078000Y-125095000D02*
X116078000Y-127635000D01*
X116078000Y-127635000D02*
X133858000Y-127635000D01*
X136678000Y-124815000D02*
X135128000Y-124815000D01*
X133858000Y-125095000D02*
X133858000Y-127635000D01*
X135128000Y-127915000D02*
X136678000Y-127915000D01*
X136678000Y-127915000D02*
X136678000Y-124815000D01*
X100076095Y-81367380D02*
X100076095Y-82176904D01*
X100123714Y-82272142D01*
X100171333Y-82319761D01*
X100266571Y-82367380D01*
X100457047Y-82367380D01*
X100552285Y-82319761D01*
X100599904Y-82272142D01*
X100647523Y-82176904D01*
X100647523Y-81367380D01*
X101076095Y-81462619D02*
X101123714Y-81415000D01*
X101218952Y-81367380D01*
X101457047Y-81367380D01*
X101552285Y-81415000D01*
X101599904Y-81462619D01*
X101647523Y-81557857D01*
X101647523Y-81653095D01*
X101599904Y-81795952D01*
X101028476Y-82367380D01*
X101647523Y-82367380D01*
X101054666Y-100615000D02*
X100988000Y-100581666D01*
X100888000Y-100581666D01*
X100788000Y-100615000D01*
X100721333Y-100681666D01*
X100688000Y-100748333D01*
X100654666Y-100881666D01*
X100654666Y-100981666D01*
X100688000Y-101115000D01*
X100721333Y-101181666D01*
X100788000Y-101248333D01*
X100888000Y-101281666D01*
X100954666Y-101281666D01*
X101054666Y-101248333D01*
X101088000Y-101215000D01*
X101088000Y-100981666D01*
X100954666Y-100981666D01*
X101388000Y-101281666D02*
X101388000Y-100581666D01*
X101788000Y-101281666D01*
X101788000Y-100581666D01*
X102121333Y-101281666D02*
X102121333Y-100581666D01*
X102288000Y-100581666D01*
X102388000Y-100615000D01*
X102454666Y-100681666D01*
X102488000Y-100748333D01*
X102521333Y-100881666D01*
X102521333Y-100981666D01*
X102488000Y-101115000D01*
X102454666Y-101181666D01*
X102388000Y-101248333D01*
X102288000Y-101281666D01*
X102121333Y-101281666D01*
X100587999Y-98041666D02*
X100821333Y-98741666D01*
X101054666Y-98041666D01*
X101687999Y-98675000D02*
X101654666Y-98708333D01*
X101554666Y-98741666D01*
X101487999Y-98741666D01*
X101387999Y-98708333D01*
X101321333Y-98641666D01*
X101287999Y-98575000D01*
X101254666Y-98441666D01*
X101254666Y-98341666D01*
X101287999Y-98208333D01*
X101321333Y-98141666D01*
X101387999Y-98075000D01*
X101487999Y-98041666D01*
X101554666Y-98041666D01*
X101654666Y-98075000D01*
X101687999Y-98108333D01*
X102387999Y-98675000D02*
X102354666Y-98708333D01*
X102254666Y-98741666D01*
X102187999Y-98741666D01*
X102087999Y-98708333D01*
X102021333Y-98641666D01*
X101987999Y-98575000D01*
X101954666Y-98441666D01*
X101954666Y-98341666D01*
X101987999Y-98208333D01*
X102021333Y-98141666D01*
X102087999Y-98075000D01*
X102187999Y-98041666D01*
X102254666Y-98041666D01*
X102354666Y-98075000D01*
X102387999Y-98108333D01*
X100654667Y-96168333D02*
X100754667Y-96201666D01*
X100921333Y-96201666D01*
X100988000Y-96168333D01*
X101021333Y-96135000D01*
X101054667Y-96068333D01*
X101054667Y-96001666D01*
X101021333Y-95935000D01*
X100988000Y-95901666D01*
X100921333Y-95868333D01*
X100788000Y-95835000D01*
X100721333Y-95801666D01*
X100688000Y-95768333D01*
X100654667Y-95701666D01*
X100654667Y-95635000D01*
X100688000Y-95568333D01*
X100721333Y-95535000D01*
X100788000Y-95501666D01*
X100954667Y-95501666D01*
X101054667Y-95535000D01*
X101354667Y-96201666D02*
X101354667Y-95501666D01*
X101521333Y-95501666D01*
X101621333Y-95535000D01*
X101688000Y-95601666D01*
X101721333Y-95668333D01*
X101754667Y-95801666D01*
X101754667Y-95901666D01*
X101721333Y-96035000D01*
X101688000Y-96101666D01*
X101621333Y-96168333D01*
X101521333Y-96201666D01*
X101354667Y-96201666D01*
X102021333Y-96001666D02*
X102354667Y-96001666D01*
X101954667Y-96201666D02*
X102188000Y-95501666D01*
X102421333Y-96201666D01*
X100654666Y-93628333D02*
X100754666Y-93661666D01*
X100921333Y-93661666D01*
X100988000Y-93628333D01*
X101021333Y-93595000D01*
X101054666Y-93528333D01*
X101054666Y-93461666D01*
X101021333Y-93395000D01*
X100988000Y-93361666D01*
X100921333Y-93328333D01*
X100788000Y-93295000D01*
X100721333Y-93261666D01*
X100688000Y-93228333D01*
X100654666Y-93161666D01*
X100654666Y-93095000D01*
X100688000Y-93028333D01*
X100721333Y-92995000D01*
X100788000Y-92961666D01*
X100954666Y-92961666D01*
X101054666Y-92995000D01*
X101754666Y-93595000D02*
X101721333Y-93628333D01*
X101621333Y-93661666D01*
X101554666Y-93661666D01*
X101454666Y-93628333D01*
X101388000Y-93561666D01*
X101354666Y-93495000D01*
X101321333Y-93361666D01*
X101321333Y-93261666D01*
X101354666Y-93128333D01*
X101388000Y-93061666D01*
X101454666Y-92995000D01*
X101554666Y-92961666D01*
X101621333Y-92961666D01*
X101721333Y-92995000D01*
X101754666Y-93028333D01*
X102388000Y-93661666D02*
X102054666Y-93661666D01*
X102054666Y-92961666D01*
X100654666Y-91088333D02*
X100754666Y-91121666D01*
X100921333Y-91121666D01*
X100987999Y-91088333D01*
X101021333Y-91055000D01*
X101054666Y-90988333D01*
X101054666Y-90921666D01*
X101021333Y-90855000D01*
X100987999Y-90821666D01*
X100921333Y-90788333D01*
X100787999Y-90755000D01*
X100721333Y-90721666D01*
X100687999Y-90688333D01*
X100654666Y-90621666D01*
X100654666Y-90555000D01*
X100687999Y-90488333D01*
X100721333Y-90455000D01*
X100787999Y-90421666D01*
X100954666Y-90421666D01*
X101054666Y-90455000D01*
X101821333Y-91188333D02*
X101754666Y-91155000D01*
X101687999Y-91088333D01*
X101587999Y-90988333D01*
X101521333Y-90955000D01*
X101454666Y-90955000D01*
X101487999Y-91121666D02*
X101421333Y-91088333D01*
X101354666Y-91021666D01*
X101321333Y-90888333D01*
X101321333Y-90655000D01*
X101354666Y-90521666D01*
X101421333Y-90455000D01*
X101487999Y-90421666D01*
X101621333Y-90421666D01*
X101687999Y-90455000D01*
X101754666Y-90521666D01*
X101787999Y-90655000D01*
X101787999Y-90888333D01*
X101754666Y-91021666D01*
X101687999Y-91088333D01*
X101621333Y-91121666D01*
X101487999Y-91121666D01*
X102021333Y-90421666D02*
X102187999Y-91121666D01*
X102321333Y-90621666D01*
X102454666Y-91121666D01*
X102621333Y-90421666D01*
X100621333Y-87881666D02*
X101054666Y-87881666D01*
X100821333Y-88148333D01*
X100921333Y-88148333D01*
X100988000Y-88181666D01*
X101021333Y-88215000D01*
X101054666Y-88281666D01*
X101054666Y-88448333D01*
X101021333Y-88515000D01*
X100988000Y-88548333D01*
X100921333Y-88581666D01*
X100721333Y-88581666D01*
X100654666Y-88548333D01*
X100621333Y-88515000D01*
X101321333Y-87948333D02*
X101354666Y-87915000D01*
X101421333Y-87881666D01*
X101588000Y-87881666D01*
X101654666Y-87915000D01*
X101688000Y-87948333D01*
X101721333Y-88015000D01*
X101721333Y-88081666D01*
X101688000Y-88181666D01*
X101288000Y-88581666D01*
X101721333Y-88581666D01*
X102021333Y-88581666D02*
X102021333Y-87881666D01*
X102421333Y-88581666D02*
X102121333Y-88181666D01*
X102421333Y-87881666D02*
X102021333Y-88281666D01*
X136231095Y-106707380D02*
X136231095Y-107516904D01*
X136278714Y-107612142D01*
X136326333Y-107659761D01*
X136421571Y-107707380D01*
X136612047Y-107707380D01*
X136707285Y-107659761D01*
X136754904Y-107612142D01*
X136802523Y-107516904D01*
X136802523Y-106707380D01*
X137802523Y-107707380D02*
X137231095Y-107707380D01*
X137516809Y-107707380D02*
X137516809Y-106707380D01*
X137421571Y-106850238D01*
X137326333Y-106945476D01*
X137231095Y-106993095D01*
X135850380Y-118236904D02*
X136659904Y-118236904D01*
X136755142Y-118189285D01*
X136802761Y-118141666D01*
X136850380Y-118046428D01*
X136850380Y-117855952D01*
X136802761Y-117760714D01*
X136755142Y-117713095D01*
X136659904Y-117665476D01*
X135850380Y-117665476D01*
X135850380Y-117284523D02*
X135850380Y-116665476D01*
X136231333Y-116998809D01*
X136231333Y-116855952D01*
X136278952Y-116760714D01*
X136326571Y-116713095D01*
X136421809Y-116665476D01*
X136659904Y-116665476D01*
X136755142Y-116713095D01*
X136802761Y-116760714D01*
X136850380Y-116855952D01*
X136850380Y-117141666D01*
X136802761Y-117236904D01*
X136755142Y-117284523D01*
X143930619Y-116945238D02*
X143883000Y-117040476D01*
X143787761Y-117135714D01*
X143644904Y-117278571D01*
X143597285Y-117373809D01*
X143597285Y-117469047D01*
X143835380Y-117421428D02*
X143787761Y-117516666D01*
X143692523Y-117611904D01*
X143502047Y-117659523D01*
X143168714Y-117659523D01*
X142978238Y-117611904D01*
X142883000Y-117516666D01*
X142835380Y-117421428D01*
X142835380Y-117230952D01*
X142883000Y-117135714D01*
X142978238Y-117040476D01*
X143168714Y-116992857D01*
X143502047Y-116992857D01*
X143692523Y-117040476D01*
X143787761Y-117135714D01*
X143835380Y-117230952D01*
X143835380Y-117421428D01*
X143835380Y-116040476D02*
X143835380Y-116611904D01*
X143835380Y-116326190D02*
X142835380Y-116326190D01*
X142978238Y-116421428D01*
X143073476Y-116516666D01*
X143121095Y-116611904D01*
X152090380Y-117578095D02*
X151090380Y-117578095D01*
X151090380Y-117340000D01*
X151138000Y-117197142D01*
X151233238Y-117101904D01*
X151328476Y-117054285D01*
X151518952Y-117006666D01*
X151661809Y-117006666D01*
X151852285Y-117054285D01*
X151947523Y-117101904D01*
X152042761Y-117197142D01*
X152090380Y-117340000D01*
X152090380Y-117578095D01*
X152090380Y-116054285D02*
X152090380Y-116625714D01*
X152090380Y-116340000D02*
X151090380Y-116340000D01*
X151233238Y-116435238D01*
X151328476Y-116530476D01*
X151376095Y-116625714D01*
X153467047Y-115641428D02*
X154228952Y-115641428D01*
X153848000Y-116022380D02*
X153848000Y-115260476D01*
X170694666Y-99939761D02*
X170837523Y-99987380D01*
X171075619Y-99987380D01*
X171170857Y-99939761D01*
X171218476Y-99892142D01*
X171266095Y-99796904D01*
X171266095Y-99701666D01*
X171218476Y-99606428D01*
X171170857Y-99558809D01*
X171075619Y-99511190D01*
X170885142Y-99463571D01*
X170789904Y-99415952D01*
X170742285Y-99368333D01*
X170694666Y-99273095D01*
X170694666Y-99177857D01*
X170742285Y-99082619D01*
X170789904Y-99035000D01*
X170885142Y-98987380D01*
X171123238Y-98987380D01*
X171266095Y-99035000D01*
X171599428Y-98987380D02*
X171837523Y-99987380D01*
X172028000Y-99273095D01*
X172218476Y-99987380D01*
X172456571Y-98987380D01*
X172789904Y-99082619D02*
X172837523Y-99035000D01*
X172932761Y-98987380D01*
X173170857Y-98987380D01*
X173266095Y-99035000D01*
X173313714Y-99082619D01*
X173361333Y-99177857D01*
X173361333Y-99273095D01*
X173313714Y-99415952D01*
X172742285Y-99987380D01*
X173361333Y-99987380D01*
X125590380Y-117641666D02*
X125114190Y-117975000D01*
X125590380Y-118213095D02*
X124590380Y-118213095D01*
X124590380Y-117832142D01*
X124638000Y-117736904D01*
X124685619Y-117689285D01*
X124780857Y-117641666D01*
X124923714Y-117641666D01*
X125018952Y-117689285D01*
X125066571Y-117736904D01*
X125114190Y-117832142D01*
X125114190Y-118213095D01*
X124590380Y-116736904D02*
X124590380Y-117213095D01*
X125066571Y-117260714D01*
X125018952Y-117213095D01*
X124971333Y-117117857D01*
X124971333Y-116879761D01*
X125018952Y-116784523D01*
X125066571Y-116736904D01*
X125161809Y-116689285D01*
X125399904Y-116689285D01*
X125495142Y-116736904D01*
X125542761Y-116784523D01*
X125590380Y-116879761D01*
X125590380Y-117117857D01*
X125542761Y-117213095D01*
X125495142Y-117260714D01*
X127960380Y-117689285D02*
X127960380Y-118260714D01*
X127960380Y-117975000D02*
X126960380Y-117975000D01*
X127103238Y-118070238D01*
X127198476Y-118165476D01*
X127246095Y-118260714D01*
X127960380Y-117260714D02*
X126960380Y-117260714D01*
X127960380Y-116689285D02*
X127388952Y-117117857D01*
X126960380Y-116689285D02*
X127531809Y-117260714D01*
X173850380Y-115101666D02*
X173374190Y-115435000D01*
X173850380Y-115673095D02*
X172850380Y-115673095D01*
X172850380Y-115292142D01*
X172898000Y-115196904D01*
X172945619Y-115149285D01*
X173040857Y-115101666D01*
X173183714Y-115101666D01*
X173278952Y-115149285D01*
X173326571Y-115196904D01*
X173374190Y-115292142D01*
X173374190Y-115673095D01*
X173183714Y-114244523D02*
X173850380Y-114244523D01*
X172802761Y-114482619D02*
X173517047Y-114720714D01*
X173517047Y-114101666D01*
X176220380Y-115625476D02*
X176220380Y-116196904D01*
X176220380Y-115911190D02*
X175220380Y-115911190D01*
X175363238Y-116006428D01*
X175458476Y-116101666D01*
X175506095Y-116196904D01*
X175220380Y-115006428D02*
X175220380Y-114911190D01*
X175268000Y-114815952D01*
X175315619Y-114768333D01*
X175410857Y-114720714D01*
X175601333Y-114673095D01*
X175839428Y-114673095D01*
X176029904Y-114720714D01*
X176125142Y-114768333D01*
X176172761Y-114815952D01*
X176220380Y-114911190D01*
X176220380Y-115006428D01*
X176172761Y-115101666D01*
X176125142Y-115149285D01*
X176029904Y-115196904D01*
X175839428Y-115244523D01*
X175601333Y-115244523D01*
X175410857Y-115196904D01*
X175315619Y-115149285D01*
X175268000Y-115101666D01*
X175220380Y-115006428D01*
X176220380Y-114244523D02*
X175220380Y-114244523D01*
X176220380Y-113673095D02*
X175648952Y-114101666D01*
X175220380Y-113673095D02*
X175791809Y-114244523D01*
X168770380Y-115101666D02*
X168294190Y-115435000D01*
X168770380Y-115673095D02*
X167770380Y-115673095D01*
X167770380Y-115292142D01*
X167818000Y-115196904D01*
X167865619Y-115149285D01*
X167960857Y-115101666D01*
X168103714Y-115101666D01*
X168198952Y-115149285D01*
X168246571Y-115196904D01*
X168294190Y-115292142D01*
X168294190Y-115673095D01*
X167770380Y-114768333D02*
X167770380Y-114149285D01*
X168151333Y-114482619D01*
X168151333Y-114339761D01*
X168198952Y-114244523D01*
X168246571Y-114196904D01*
X168341809Y-114149285D01*
X168579904Y-114149285D01*
X168675142Y-114196904D01*
X168722761Y-114244523D01*
X168770380Y-114339761D01*
X168770380Y-114625476D01*
X168722761Y-114720714D01*
X168675142Y-114768333D01*
X171140380Y-115625476D02*
X171140380Y-116196904D01*
X171140380Y-115911190D02*
X170140380Y-115911190D01*
X170283238Y-116006428D01*
X170378476Y-116101666D01*
X170426095Y-116196904D01*
X170140380Y-115006428D02*
X170140380Y-114911190D01*
X170188000Y-114815952D01*
X170235619Y-114768333D01*
X170330857Y-114720714D01*
X170521333Y-114673095D01*
X170759428Y-114673095D01*
X170949904Y-114720714D01*
X171045142Y-114768333D01*
X171092761Y-114815952D01*
X171140380Y-114911190D01*
X171140380Y-115006428D01*
X171092761Y-115101666D01*
X171045142Y-115149285D01*
X170949904Y-115196904D01*
X170759428Y-115244523D01*
X170521333Y-115244523D01*
X170330857Y-115196904D01*
X170235619Y-115149285D01*
X170188000Y-115101666D01*
X170140380Y-115006428D01*
X171140380Y-114244523D02*
X170140380Y-114244523D01*
X171140380Y-113673095D02*
X170568952Y-114101666D01*
X170140380Y-113673095D02*
X170711809Y-114244523D01*
X135410380Y-117641666D02*
X134934190Y-117975000D01*
X135410380Y-118213095D02*
X134410380Y-118213095D01*
X134410380Y-117832142D01*
X134458000Y-117736904D01*
X134505619Y-117689285D01*
X134600857Y-117641666D01*
X134743714Y-117641666D01*
X134838952Y-117689285D01*
X134886571Y-117736904D01*
X134934190Y-117832142D01*
X134934190Y-118213095D01*
X134505619Y-117260714D02*
X134458000Y-117213095D01*
X134410380Y-117117857D01*
X134410380Y-116879761D01*
X134458000Y-116784523D01*
X134505619Y-116736904D01*
X134600857Y-116689285D01*
X134696095Y-116689285D01*
X134838952Y-116736904D01*
X135410380Y-117308333D01*
X135410380Y-116689285D01*
X133040380Y-118141666D02*
X133040380Y-118713095D01*
X133040380Y-118427380D02*
X132040380Y-118427380D01*
X132183238Y-118522619D01*
X132278476Y-118617857D01*
X132326095Y-118713095D01*
X132040380Y-117522619D02*
X132040380Y-117427380D01*
X132088000Y-117332142D01*
X132135619Y-117284523D01*
X132230857Y-117236904D01*
X132421333Y-117189285D01*
X132659428Y-117189285D01*
X132849904Y-117236904D01*
X132945142Y-117284523D01*
X132992761Y-117332142D01*
X133040380Y-117427380D01*
X133040380Y-117522619D01*
X132992761Y-117617857D01*
X132945142Y-117665476D01*
X132849904Y-117713095D01*
X132659428Y-117760714D01*
X132421333Y-117760714D01*
X132230857Y-117713095D01*
X132135619Y-117665476D01*
X132088000Y-117617857D01*
X132040380Y-117522619D01*
X132040380Y-116570238D02*
X132040380Y-116475000D01*
X132088000Y-116379761D01*
X132135619Y-116332142D01*
X132230857Y-116284523D01*
X132421333Y-116236904D01*
X132659428Y-116236904D01*
X132849904Y-116284523D01*
X132945142Y-116332142D01*
X132992761Y-116379761D01*
X133040380Y-116475000D01*
X133040380Y-116570238D01*
X132992761Y-116665476D01*
X132945142Y-116713095D01*
X132849904Y-116760714D01*
X132659428Y-116808333D01*
X132421333Y-116808333D01*
X132230857Y-116760714D01*
X132135619Y-116713095D01*
X132088000Y-116665476D01*
X132040380Y-116570238D01*
X163690380Y-115101666D02*
X163214190Y-115435000D01*
X163690380Y-115673095D02*
X162690380Y-115673095D01*
X162690380Y-115292142D01*
X162738000Y-115196904D01*
X162785619Y-115149285D01*
X162880857Y-115101666D01*
X163023714Y-115101666D01*
X163118952Y-115149285D01*
X163166571Y-115196904D01*
X163214190Y-115292142D01*
X163214190Y-115673095D01*
X163690380Y-114149285D02*
X163690380Y-114720714D01*
X163690380Y-114435000D02*
X162690380Y-114435000D01*
X162833238Y-114530238D01*
X162928476Y-114625476D01*
X162976095Y-114720714D01*
X165060380Y-115744523D02*
X165060380Y-115077857D01*
X166060380Y-115506428D01*
X165060380Y-114220714D02*
X165060380Y-114696904D01*
X165536571Y-114744523D01*
X165488952Y-114696904D01*
X165441333Y-114601666D01*
X165441333Y-114363571D01*
X165488952Y-114268333D01*
X165536571Y-114220714D01*
X165631809Y-114173095D01*
X165869904Y-114173095D01*
X165965142Y-114220714D01*
X166012761Y-114268333D01*
X166060380Y-114363571D01*
X166060380Y-114601666D01*
X166012761Y-114696904D01*
X165965142Y-114744523D01*
M02*
