M48
; DRILL file {KiCad (5.1.6)-1} date 07/19/20 16:04:44
; FORMAT={-:-/ absolute / metric / decimal}
; #@! TF.CreationDate,2020-07-19T16:04:44+09:00
; #@! TF.GenerationSoftware,Kicad,Pcbnew,(5.1.6)-1
FMAT,2
METRIC
T1C0.400
T2C0.600
T3C0.762
T4C0.800
T5C1.000
T6C1.016
T7C1.100
T8C2.200
%
G90
G05
T1
X145.288Y-108.585
T2
X138.938Y-114.935
X138.938Y-117.475
X138.938Y-120.015
T3
X129.728Y-85.725
X132.268Y-85.725
X134.808Y-85.725
X137.348Y-85.725
X139.888Y-85.725
X142.428Y-85.725
X99.568Y-88.265
X99.568Y-90.805
X99.568Y-93.345
X99.568Y-95.885
X99.568Y-98.425
X99.568Y-100.965
X146.558Y-114.78
X146.558Y-117.08
X146.558Y-119.38
T4
X175.768Y-111.125
X175.768Y-118.745
X165.608Y-111.125
X165.608Y-118.745
X132.588Y-113.665
X132.588Y-121.285
X170.688Y-111.125
X170.688Y-118.745
X127.508Y-113.665
X127.508Y-121.285
T5
X175.658Y-92.155
X175.658Y-94.655
X175.658Y-97.155
T6
X117.348Y-78.105
X119.888Y-78.105
X122.428Y-78.105
X124.968Y-78.105
X127.508Y-78.105
X130.048Y-78.105
X139.192Y-126.365
X141.732Y-126.365
X144.272Y-126.365
X146.812Y-126.365
X149.352Y-126.365
X151.892Y-126.365
X154.432Y-126.365
X156.972Y-126.365
X159.512Y-126.365
X162.052Y-126.365
X135.128Y-78.105
X137.668Y-78.105
X140.208Y-78.105
X142.748Y-78.105
X145.288Y-78.105
X147.828Y-78.105
X150.368Y-78.105
X152.908Y-78.105
X117.348Y-126.365
X119.888Y-126.365
X122.428Y-126.365
X124.968Y-126.365
X127.508Y-126.365
X130.048Y-126.365
X132.588Y-126.365
X135.128Y-126.365
T7
X155.448Y-115.57
X155.448Y-118.11
X111.633Y-117.475
X114.173Y-117.475
X116.713Y-117.475
X119.253Y-117.475
X121.793Y-117.475
T8
X168.158Y-89.055
X168.158Y-100.255
T0
M30
