G04 #@! TF.GenerationSoftware,KiCad,Pcbnew,(5.1.6)-1*
G04 #@! TF.CreationDate,2020-07-19T16:04:00+09:00*
G04 #@! TF.ProjectId,AutoIRShield,4175746f-4952-4536-9869-656c642e6b69,Ver1.0*
G04 #@! TF.SameCoordinates,Original*
G04 #@! TF.FileFunction,Copper,L2,Bot*
G04 #@! TF.FilePolarity,Positive*
%FSLAX46Y46*%
G04 Gerber Fmt 4.6, Leading zero omitted, Abs format (unit mm)*
G04 Created by KiCad (PCBNEW (5.1.6)-1) date 2020-07-19 16:04:00*
%MOMM*%
%LPD*%
G01*
G04 APERTURE LIST*
G04 #@! TA.AperFunction,ComponentPad*
%ADD10C,1.524000*%
G04 #@! TD*
G04 #@! TA.AperFunction,ComponentPad*
%ADD11C,1.200000*%
G04 #@! TD*
G04 #@! TA.AperFunction,ComponentPad*
%ADD12R,1.524000X1.524000*%
G04 #@! TD*
G04 #@! TA.AperFunction,ComponentPad*
%ADD13C,1.600000*%
G04 #@! TD*
G04 #@! TA.AperFunction,ComponentPad*
%ADD14C,2.800000*%
G04 #@! TD*
G04 #@! TA.AperFunction,ComponentPad*
%ADD15C,2.000000*%
G04 #@! TD*
G04 #@! TA.AperFunction,ComponentPad*
%ADD16R,2.000000X2.000000*%
G04 #@! TD*
G04 #@! TA.AperFunction,ComponentPad*
%ADD17C,1.800000*%
G04 #@! TD*
G04 #@! TA.AperFunction,ComponentPad*
%ADD18O,1.600000X1.600000*%
G04 #@! TD*
G04 #@! TA.AperFunction,ComponentPad*
%ADD19O,1.727200X2.032000*%
G04 #@! TD*
G04 #@! TA.AperFunction,ViaPad*
%ADD20C,0.600000*%
G04 #@! TD*
G04 #@! TA.AperFunction,Conductor*
%ADD21C,0.250000*%
G04 #@! TD*
G04 #@! TA.AperFunction,Conductor*
%ADD22C,0.254000*%
G04 #@! TD*
G04 APERTURE END LIST*
D10*
X99568000Y-98425000D03*
X99568000Y-90805000D03*
X99568000Y-100965000D03*
X99568000Y-93345000D03*
X99568000Y-88265000D03*
X99568000Y-95885000D03*
X129728000Y-85725000D03*
X132268000Y-85725000D03*
X134808000Y-85725000D03*
X137348000Y-85725000D03*
X139888000Y-85725000D03*
X142428000Y-85725000D03*
D11*
X138938000Y-114935000D03*
X138938000Y-117475000D03*
X138938000Y-120015000D03*
D12*
X146558000Y-119380000D03*
D10*
X146558000Y-117080000D03*
X146558000Y-114780000D03*
D13*
X155448000Y-115570000D03*
X155448000Y-118110000D03*
D14*
X168158000Y-89055000D03*
D15*
X175658000Y-92155000D03*
X175658000Y-94655000D03*
D14*
X168158000Y-100255000D03*
D16*
X175658000Y-97155000D03*
D17*
X121793000Y-117475000D03*
X119253000Y-117475000D03*
X116713000Y-117475000D03*
X114173000Y-117475000D03*
X111633000Y-117475000D03*
D18*
X127508000Y-113665000D03*
D13*
X127508000Y-121285000D03*
D18*
X175768000Y-111125000D03*
D13*
X175768000Y-118745000D03*
D18*
X170688000Y-111125000D03*
D13*
X170688000Y-118745000D03*
D18*
X132588000Y-121285000D03*
D13*
X132588000Y-113665000D03*
D18*
X165608000Y-111125000D03*
D13*
X165608000Y-118745000D03*
D19*
X135128000Y-78105000D03*
X137668000Y-78105000D03*
X140208000Y-78105000D03*
X142748000Y-78105000D03*
X145288000Y-78105000D03*
X147828000Y-78105000D03*
X150368000Y-78105000D03*
X152908000Y-78105000D03*
X117348000Y-78105000D03*
X119888000Y-78105000D03*
X122428000Y-78105000D03*
X124968000Y-78105000D03*
X127508000Y-78105000D03*
X130048000Y-78105000D03*
X139192000Y-126365000D03*
X141732000Y-126365000D03*
X144272000Y-126365000D03*
X146812000Y-126365000D03*
X149352000Y-126365000D03*
X151892000Y-126365000D03*
X154432000Y-126365000D03*
X156972000Y-126365000D03*
X159512000Y-126365000D03*
X162052000Y-126365000D03*
X117348000Y-126365000D03*
X119888000Y-126365000D03*
X122428000Y-126365000D03*
X124968000Y-126365000D03*
X127508000Y-126365000D03*
X130048000Y-126365000D03*
X132588000Y-126365000D03*
X135128000Y-126365000D03*
D20*
X145288000Y-108585000D03*
D21*
X147828000Y-78105000D02*
X147463000Y-78105000D01*
X147508000Y-78105000D02*
X139888000Y-85725000D01*
X147828000Y-78105000D02*
X147508000Y-78105000D01*
X135128000Y-98425000D02*
X145288000Y-108585000D01*
X116713000Y-117475000D02*
X116713000Y-110490000D01*
X116713000Y-110490000D02*
X128778000Y-98425000D01*
X99568000Y-98425000D02*
X128778000Y-98425000D01*
X128778000Y-98425000D02*
X135128000Y-98425000D01*
X105918000Y-93345000D02*
X112268000Y-93345000D01*
X117348000Y-88265000D02*
X117348000Y-78105000D01*
X112268000Y-93345000D02*
X117348000Y-88265000D01*
X134808000Y-88265000D02*
X137348000Y-85725000D01*
X117348000Y-88265000D02*
X134808000Y-88265000D01*
X105918000Y-93345000D02*
X99568000Y-93345000D01*
X132588000Y-121285000D02*
X133827980Y-122524980D01*
X143413020Y-122524980D02*
X146558000Y-119380000D01*
X133827980Y-122524980D02*
X143413020Y-122524980D01*
X131633000Y-83820000D02*
X129728000Y-85725000D01*
X145288000Y-78105000D02*
X139573000Y-83820000D01*
X139573000Y-83820000D02*
X131633000Y-83820000D01*
X117983000Y-121285000D02*
X114173000Y-117475000D01*
X127508000Y-121285000D02*
X117983000Y-121285000D01*
X124968000Y-125099000D02*
X126242000Y-123825000D01*
X124968000Y-126365000D02*
X124968000Y-125099000D01*
X126242000Y-123825000D02*
X170688000Y-123825000D01*
X170688000Y-123825000D02*
X173228000Y-121285000D01*
X173228000Y-113665000D02*
X175768000Y-111125000D01*
X173228000Y-121285000D02*
X173228000Y-113665000D01*
X170688000Y-111125000D02*
X169418000Y-111125000D01*
X168148000Y-112395000D02*
X168148000Y-120015000D01*
X169418000Y-111125000D02*
X168148000Y-112395000D01*
X168148000Y-120015000D02*
X166878000Y-121285000D01*
X122428000Y-125095000D02*
X122428000Y-126365000D01*
X165608000Y-122555000D02*
X166878000Y-121285000D01*
X122428000Y-125095000D02*
X124333000Y-123190000D01*
X125957748Y-123190000D02*
X125972758Y-123174990D01*
X124333000Y-123190000D02*
X125957748Y-123190000D01*
X125972758Y-123174990D02*
X164988010Y-123174990D01*
X165608000Y-122555000D02*
X164988010Y-123174990D01*
D22*
G36*
X180138000Y-128195000D02*
G01*
X96468000Y-128195000D01*
X96468000Y-101930565D01*
X98782040Y-101930565D01*
X98849020Y-102170656D01*
X99098048Y-102287756D01*
X99365135Y-102354023D01*
X99640017Y-102366910D01*
X99912133Y-102325922D01*
X100171023Y-102232636D01*
X100286980Y-102170656D01*
X100353960Y-101930565D01*
X99568000Y-101144605D01*
X98782040Y-101930565D01*
X96468000Y-101930565D01*
X96468000Y-101037017D01*
X98166090Y-101037017D01*
X98207078Y-101309133D01*
X98300364Y-101568023D01*
X98362344Y-101683980D01*
X98602435Y-101750960D01*
X99388395Y-100965000D01*
X99747605Y-100965000D01*
X100533565Y-101750960D01*
X100773656Y-101683980D01*
X100890756Y-101434952D01*
X100957023Y-101167865D01*
X100969910Y-100892983D01*
X100928922Y-100620867D01*
X100835636Y-100361977D01*
X100773656Y-100246020D01*
X100533565Y-100179040D01*
X99747605Y-100965000D01*
X99388395Y-100965000D01*
X98602435Y-100179040D01*
X98362344Y-100246020D01*
X98245244Y-100495048D01*
X98178977Y-100762135D01*
X98166090Y-101037017D01*
X96468000Y-101037017D01*
X96468000Y-88127408D01*
X98171000Y-88127408D01*
X98171000Y-88402592D01*
X98224686Y-88672490D01*
X98329995Y-88926727D01*
X98482880Y-89155535D01*
X98677465Y-89350120D01*
X98906273Y-89503005D01*
X98983515Y-89535000D01*
X98906273Y-89566995D01*
X98677465Y-89719880D01*
X98482880Y-89914465D01*
X98329995Y-90143273D01*
X98224686Y-90397510D01*
X98171000Y-90667408D01*
X98171000Y-90942592D01*
X98224686Y-91212490D01*
X98329995Y-91466727D01*
X98482880Y-91695535D01*
X98677465Y-91890120D01*
X98906273Y-92043005D01*
X98983515Y-92075000D01*
X98906273Y-92106995D01*
X98677465Y-92259880D01*
X98482880Y-92454465D01*
X98329995Y-92683273D01*
X98224686Y-92937510D01*
X98171000Y-93207408D01*
X98171000Y-93482592D01*
X98224686Y-93752490D01*
X98329995Y-94006727D01*
X98482880Y-94235535D01*
X98677465Y-94430120D01*
X98906273Y-94583005D01*
X98983515Y-94615000D01*
X98906273Y-94646995D01*
X98677465Y-94799880D01*
X98482880Y-94994465D01*
X98329995Y-95223273D01*
X98224686Y-95477510D01*
X98171000Y-95747408D01*
X98171000Y-96022592D01*
X98224686Y-96292490D01*
X98329995Y-96546727D01*
X98482880Y-96775535D01*
X98677465Y-96970120D01*
X98906273Y-97123005D01*
X98983515Y-97155000D01*
X98906273Y-97186995D01*
X98677465Y-97339880D01*
X98482880Y-97534465D01*
X98329995Y-97763273D01*
X98224686Y-98017510D01*
X98171000Y-98287408D01*
X98171000Y-98562592D01*
X98224686Y-98832490D01*
X98329995Y-99086727D01*
X98482880Y-99315535D01*
X98677465Y-99510120D01*
X98906273Y-99663005D01*
X98977943Y-99692692D01*
X98964977Y-99697364D01*
X98849020Y-99759344D01*
X98782040Y-99999435D01*
X99568000Y-100785395D01*
X100353960Y-99999435D01*
X100286980Y-99759344D01*
X100151240Y-99695515D01*
X100229727Y-99663005D01*
X100458535Y-99510120D01*
X100653120Y-99315535D01*
X100740341Y-99185000D01*
X126943198Y-99185000D01*
X116201998Y-109926201D01*
X116173000Y-109949999D01*
X116149202Y-109978997D01*
X116149201Y-109978998D01*
X116078026Y-110065724D01*
X116007454Y-110197754D01*
X115977180Y-110297558D01*
X115963998Y-110341014D01*
X115960552Y-110375998D01*
X115949324Y-110490000D01*
X115953001Y-110527332D01*
X115953000Y-116136687D01*
X115734495Y-116282688D01*
X115520688Y-116496495D01*
X115443000Y-116612763D01*
X115365312Y-116496495D01*
X115151505Y-116282688D01*
X114900095Y-116114701D01*
X114620743Y-115998989D01*
X114324184Y-115940000D01*
X114021816Y-115940000D01*
X113725257Y-115998989D01*
X113445905Y-116114701D01*
X113194495Y-116282688D01*
X112980688Y-116496495D01*
X112903000Y-116612763D01*
X112825312Y-116496495D01*
X112611505Y-116282688D01*
X112360095Y-116114701D01*
X112080743Y-115998989D01*
X111784184Y-115940000D01*
X111481816Y-115940000D01*
X111185257Y-115998989D01*
X110905905Y-116114701D01*
X110654495Y-116282688D01*
X110440688Y-116496495D01*
X110272701Y-116747905D01*
X110156989Y-117027257D01*
X110098000Y-117323816D01*
X110098000Y-117626184D01*
X110156989Y-117922743D01*
X110272701Y-118202095D01*
X110440688Y-118453505D01*
X110654495Y-118667312D01*
X110905905Y-118835299D01*
X111185257Y-118951011D01*
X111481816Y-119010000D01*
X111784184Y-119010000D01*
X112080743Y-118951011D01*
X112360095Y-118835299D01*
X112611505Y-118667312D01*
X112825312Y-118453505D01*
X112903000Y-118337237D01*
X112980688Y-118453505D01*
X113194495Y-118667312D01*
X113445905Y-118835299D01*
X113725257Y-118951011D01*
X114021816Y-119010000D01*
X114324184Y-119010000D01*
X114581930Y-118958731D01*
X117419200Y-121796002D01*
X117442999Y-121825001D01*
X117558724Y-121919974D01*
X117690753Y-121990546D01*
X117834014Y-122034003D01*
X117945667Y-122045000D01*
X117945675Y-122045000D01*
X117983000Y-122048676D01*
X118020325Y-122045000D01*
X126289957Y-122045000D01*
X126393363Y-122199759D01*
X126593241Y-122399637D01*
X126616218Y-122414990D01*
X126010080Y-122414990D01*
X125972757Y-122411314D01*
X125935435Y-122414990D01*
X125935425Y-122414990D01*
X125823772Y-122425987D01*
X125810543Y-122430000D01*
X124370323Y-122430000D01*
X124333000Y-122426324D01*
X124295677Y-122430000D01*
X124295667Y-122430000D01*
X124184014Y-122440997D01*
X124040753Y-122484454D01*
X123908724Y-122555026D01*
X123792999Y-122649999D01*
X123769201Y-122678997D01*
X121917003Y-124531196D01*
X121887999Y-124554999D01*
X121832871Y-124622174D01*
X121793026Y-124670724D01*
X121790888Y-124674724D01*
X121722454Y-124802754D01*
X121690694Y-124907454D01*
X121591395Y-124960531D01*
X121363203Y-125147803D01*
X121175931Y-125375994D01*
X121158000Y-125409541D01*
X121140069Y-125375994D01*
X120952797Y-125147803D01*
X120724606Y-124960531D01*
X120464264Y-124821375D01*
X120181777Y-124735684D01*
X119888000Y-124706749D01*
X119594224Y-124735684D01*
X119311737Y-124821375D01*
X119051395Y-124960531D01*
X118823203Y-125147803D01*
X118635931Y-125375994D01*
X118618000Y-125409541D01*
X118600069Y-125375994D01*
X118412797Y-125147803D01*
X118184606Y-124960531D01*
X117924264Y-124821375D01*
X117641777Y-124735684D01*
X117348000Y-124706749D01*
X117054224Y-124735684D01*
X116771737Y-124821375D01*
X116511395Y-124960531D01*
X116283203Y-125147803D01*
X116095931Y-125375994D01*
X115956775Y-125636336D01*
X115871084Y-125918823D01*
X115849400Y-126138981D01*
X115849400Y-126591018D01*
X115871084Y-126811176D01*
X115956775Y-127093663D01*
X116095931Y-127354005D01*
X116283203Y-127582197D01*
X116511394Y-127769469D01*
X116771736Y-127908625D01*
X117054223Y-127994316D01*
X117348000Y-128023251D01*
X117641776Y-127994316D01*
X117924263Y-127908625D01*
X118184605Y-127769469D01*
X118412797Y-127582197D01*
X118600069Y-127354006D01*
X118618000Y-127320459D01*
X118635931Y-127354005D01*
X118823203Y-127582197D01*
X119051394Y-127769469D01*
X119311736Y-127908625D01*
X119594223Y-127994316D01*
X119888000Y-128023251D01*
X120181776Y-127994316D01*
X120464263Y-127908625D01*
X120724605Y-127769469D01*
X120952797Y-127582197D01*
X121140069Y-127354006D01*
X121158000Y-127320459D01*
X121175931Y-127354005D01*
X121363203Y-127582197D01*
X121591394Y-127769469D01*
X121851736Y-127908625D01*
X122134223Y-127994316D01*
X122428000Y-128023251D01*
X122721776Y-127994316D01*
X123004263Y-127908625D01*
X123264605Y-127769469D01*
X123492797Y-127582197D01*
X123680069Y-127354006D01*
X123698000Y-127320459D01*
X123715931Y-127354005D01*
X123903203Y-127582197D01*
X124131394Y-127769469D01*
X124391736Y-127908625D01*
X124674223Y-127994316D01*
X124968000Y-128023251D01*
X125261776Y-127994316D01*
X125544263Y-127908625D01*
X125804605Y-127769469D01*
X126032797Y-127582197D01*
X126220069Y-127354006D01*
X126238000Y-127320459D01*
X126255931Y-127354005D01*
X126443203Y-127582197D01*
X126671394Y-127769469D01*
X126931736Y-127908625D01*
X127214223Y-127994316D01*
X127508000Y-128023251D01*
X127801776Y-127994316D01*
X128084263Y-127908625D01*
X128344605Y-127769469D01*
X128572797Y-127582197D01*
X128760069Y-127354006D01*
X128778000Y-127320459D01*
X128795931Y-127354005D01*
X128983203Y-127582197D01*
X129211394Y-127769469D01*
X129471736Y-127908625D01*
X129754223Y-127994316D01*
X130048000Y-128023251D01*
X130341776Y-127994316D01*
X130624263Y-127908625D01*
X130884605Y-127769469D01*
X131112797Y-127582197D01*
X131300069Y-127354006D01*
X131318000Y-127320459D01*
X131335931Y-127354005D01*
X131523203Y-127582197D01*
X131751394Y-127769469D01*
X132011736Y-127908625D01*
X132294223Y-127994316D01*
X132588000Y-128023251D01*
X132881776Y-127994316D01*
X133164263Y-127908625D01*
X133424605Y-127769469D01*
X133652797Y-127582197D01*
X133840069Y-127354006D01*
X133858000Y-127320459D01*
X133875931Y-127354005D01*
X134063203Y-127582197D01*
X134291394Y-127769469D01*
X134551736Y-127908625D01*
X134834223Y-127994316D01*
X135128000Y-128023251D01*
X135421776Y-127994316D01*
X135704263Y-127908625D01*
X135964605Y-127769469D01*
X136192797Y-127582197D01*
X136380069Y-127354006D01*
X136519225Y-127093664D01*
X136604916Y-126811177D01*
X136626600Y-126591019D01*
X136626600Y-126138982D01*
X136626600Y-126138981D01*
X137693400Y-126138981D01*
X137693400Y-126591018D01*
X137715084Y-126811176D01*
X137800775Y-127093663D01*
X137939931Y-127354005D01*
X138127203Y-127582197D01*
X138355394Y-127769469D01*
X138615736Y-127908625D01*
X138898223Y-127994316D01*
X139192000Y-128023251D01*
X139485776Y-127994316D01*
X139768263Y-127908625D01*
X140028605Y-127769469D01*
X140256797Y-127582197D01*
X140444069Y-127354006D01*
X140462000Y-127320459D01*
X140479931Y-127354005D01*
X140667203Y-127582197D01*
X140895394Y-127769469D01*
X141155736Y-127908625D01*
X141438223Y-127994316D01*
X141732000Y-128023251D01*
X142025776Y-127994316D01*
X142308263Y-127908625D01*
X142568605Y-127769469D01*
X142796797Y-127582197D01*
X142984069Y-127354006D01*
X143002000Y-127320459D01*
X143019931Y-127354005D01*
X143207203Y-127582197D01*
X143435394Y-127769469D01*
X143695736Y-127908625D01*
X143978223Y-127994316D01*
X144272000Y-128023251D01*
X144565776Y-127994316D01*
X144848263Y-127908625D01*
X145108605Y-127769469D01*
X145336797Y-127582197D01*
X145524069Y-127354006D01*
X145542000Y-127320459D01*
X145559931Y-127354005D01*
X145747203Y-127582197D01*
X145975394Y-127769469D01*
X146235736Y-127908625D01*
X146518223Y-127994316D01*
X146812000Y-128023251D01*
X147105776Y-127994316D01*
X147388263Y-127908625D01*
X147648605Y-127769469D01*
X147876797Y-127582197D01*
X148064069Y-127354006D01*
X148082000Y-127320459D01*
X148099931Y-127354005D01*
X148287203Y-127582197D01*
X148515394Y-127769469D01*
X148775736Y-127908625D01*
X149058223Y-127994316D01*
X149352000Y-128023251D01*
X149645776Y-127994316D01*
X149928263Y-127908625D01*
X150188605Y-127769469D01*
X150416797Y-127582197D01*
X150604069Y-127354006D01*
X150622000Y-127320459D01*
X150639931Y-127354005D01*
X150827203Y-127582197D01*
X151055394Y-127769469D01*
X151315736Y-127908625D01*
X151598223Y-127994316D01*
X151892000Y-128023251D01*
X152185776Y-127994316D01*
X152468263Y-127908625D01*
X152728605Y-127769469D01*
X152956797Y-127582197D01*
X153144069Y-127354006D01*
X153165424Y-127314053D01*
X153313514Y-127516729D01*
X153529965Y-127715733D01*
X153781081Y-127868686D01*
X154057211Y-127969709D01*
X154072974Y-127972358D01*
X154305000Y-127851217D01*
X154305000Y-126492000D01*
X154285000Y-126492000D01*
X154285000Y-126238000D01*
X154305000Y-126238000D01*
X154305000Y-124878783D01*
X154559000Y-124878783D01*
X154559000Y-126238000D01*
X154579000Y-126238000D01*
X154579000Y-126492000D01*
X154559000Y-126492000D01*
X154559000Y-127851217D01*
X154791026Y-127972358D01*
X154806789Y-127969709D01*
X155082919Y-127868686D01*
X155334035Y-127715733D01*
X155550486Y-127516729D01*
X155698576Y-127314053D01*
X155719931Y-127354005D01*
X155907203Y-127582197D01*
X156135394Y-127769469D01*
X156395736Y-127908625D01*
X156678223Y-127994316D01*
X156972000Y-128023251D01*
X157265776Y-127994316D01*
X157548263Y-127908625D01*
X157808605Y-127769469D01*
X158036797Y-127582197D01*
X158224069Y-127354006D01*
X158242000Y-127320459D01*
X158259931Y-127354005D01*
X158447203Y-127582197D01*
X158675394Y-127769469D01*
X158935736Y-127908625D01*
X159218223Y-127994316D01*
X159512000Y-128023251D01*
X159805776Y-127994316D01*
X160088263Y-127908625D01*
X160348605Y-127769469D01*
X160576797Y-127582197D01*
X160764069Y-127354006D01*
X160782000Y-127320459D01*
X160799931Y-127354005D01*
X160987203Y-127582197D01*
X161215394Y-127769469D01*
X161475736Y-127908625D01*
X161758223Y-127994316D01*
X162052000Y-128023251D01*
X162345776Y-127994316D01*
X162628263Y-127908625D01*
X162888605Y-127769469D01*
X163116797Y-127582197D01*
X163304069Y-127354006D01*
X163443225Y-127093664D01*
X163528916Y-126811177D01*
X163550600Y-126591019D01*
X163550600Y-126138982D01*
X163528916Y-125918824D01*
X163443225Y-125636337D01*
X163304069Y-125375994D01*
X163116797Y-125147803D01*
X162888606Y-124960531D01*
X162628264Y-124821375D01*
X162345777Y-124735684D01*
X162052000Y-124706749D01*
X161758224Y-124735684D01*
X161475737Y-124821375D01*
X161215395Y-124960531D01*
X160987203Y-125147803D01*
X160799931Y-125375994D01*
X160782000Y-125409541D01*
X160764069Y-125375994D01*
X160576797Y-125147803D01*
X160348606Y-124960531D01*
X160088264Y-124821375D01*
X159805777Y-124735684D01*
X159512000Y-124706749D01*
X159218224Y-124735684D01*
X158935737Y-124821375D01*
X158675395Y-124960531D01*
X158447203Y-125147803D01*
X158259931Y-125375994D01*
X158242000Y-125409541D01*
X158224069Y-125375994D01*
X158036797Y-125147803D01*
X157808606Y-124960531D01*
X157548264Y-124821375D01*
X157265777Y-124735684D01*
X156972000Y-124706749D01*
X156678224Y-124735684D01*
X156395737Y-124821375D01*
X156135395Y-124960531D01*
X155907203Y-125147803D01*
X155719931Y-125375994D01*
X155698576Y-125415947D01*
X155550486Y-125213271D01*
X155334035Y-125014267D01*
X155082919Y-124861314D01*
X154806789Y-124760291D01*
X154791026Y-124757642D01*
X154559000Y-124878783D01*
X154305000Y-124878783D01*
X154072974Y-124757642D01*
X154057211Y-124760291D01*
X153781081Y-124861314D01*
X153529965Y-125014267D01*
X153313514Y-125213271D01*
X153165424Y-125415947D01*
X153144069Y-125375994D01*
X152956797Y-125147803D01*
X152728606Y-124960531D01*
X152468264Y-124821375D01*
X152185777Y-124735684D01*
X151892000Y-124706749D01*
X151598224Y-124735684D01*
X151315737Y-124821375D01*
X151055395Y-124960531D01*
X150827203Y-125147803D01*
X150639931Y-125375994D01*
X150622000Y-125409541D01*
X150604069Y-125375994D01*
X150416797Y-125147803D01*
X150188606Y-124960531D01*
X149928264Y-124821375D01*
X149645777Y-124735684D01*
X149352000Y-124706749D01*
X149058224Y-124735684D01*
X148775737Y-124821375D01*
X148515395Y-124960531D01*
X148287203Y-125147803D01*
X148099931Y-125375994D01*
X148082000Y-125409541D01*
X148064069Y-125375994D01*
X147876797Y-125147803D01*
X147648606Y-124960531D01*
X147388264Y-124821375D01*
X147105777Y-124735684D01*
X146812000Y-124706749D01*
X146518224Y-124735684D01*
X146235737Y-124821375D01*
X145975395Y-124960531D01*
X145747203Y-125147803D01*
X145559931Y-125375994D01*
X145542000Y-125409541D01*
X145524069Y-125375994D01*
X145336797Y-125147803D01*
X145108606Y-124960531D01*
X144848264Y-124821375D01*
X144565777Y-124735684D01*
X144272000Y-124706749D01*
X143978224Y-124735684D01*
X143695737Y-124821375D01*
X143435395Y-124960531D01*
X143207203Y-125147803D01*
X143019931Y-125375994D01*
X143002000Y-125409541D01*
X142984069Y-125375994D01*
X142796797Y-125147803D01*
X142568606Y-124960531D01*
X142308264Y-124821375D01*
X142025777Y-124735684D01*
X141732000Y-124706749D01*
X141438224Y-124735684D01*
X141155737Y-124821375D01*
X140895395Y-124960531D01*
X140667203Y-125147803D01*
X140479931Y-125375994D01*
X140462000Y-125409541D01*
X140444069Y-125375994D01*
X140256797Y-125147803D01*
X140028606Y-124960531D01*
X139768264Y-124821375D01*
X139485777Y-124735684D01*
X139192000Y-124706749D01*
X138898224Y-124735684D01*
X138615737Y-124821375D01*
X138355395Y-124960531D01*
X138127203Y-125147803D01*
X137939931Y-125375994D01*
X137800775Y-125636336D01*
X137715084Y-125918823D01*
X137693400Y-126138981D01*
X136626600Y-126138981D01*
X136604916Y-125918824D01*
X136519225Y-125636337D01*
X136380069Y-125375994D01*
X136192797Y-125147803D01*
X135964606Y-124960531D01*
X135704264Y-124821375D01*
X135421777Y-124735684D01*
X135128000Y-124706749D01*
X134834224Y-124735684D01*
X134551737Y-124821375D01*
X134291395Y-124960531D01*
X134063203Y-125147803D01*
X133875931Y-125375994D01*
X133858000Y-125409541D01*
X133840069Y-125375994D01*
X133652797Y-125147803D01*
X133424606Y-124960531D01*
X133164264Y-124821375D01*
X132881777Y-124735684D01*
X132588000Y-124706749D01*
X132294224Y-124735684D01*
X132011737Y-124821375D01*
X131751395Y-124960531D01*
X131523203Y-125147803D01*
X131335931Y-125375994D01*
X131318000Y-125409541D01*
X131300069Y-125375994D01*
X131112797Y-125147803D01*
X130884606Y-124960531D01*
X130624264Y-124821375D01*
X130341777Y-124735684D01*
X130048000Y-124706749D01*
X129754224Y-124735684D01*
X129471737Y-124821375D01*
X129211395Y-124960531D01*
X128983203Y-125147803D01*
X128795931Y-125375994D01*
X128778000Y-125409541D01*
X128760069Y-125375994D01*
X128572797Y-125147803D01*
X128344606Y-124960531D01*
X128084264Y-124821375D01*
X127801777Y-124735684D01*
X127508000Y-124706749D01*
X127214224Y-124735684D01*
X126931737Y-124821375D01*
X126671395Y-124960531D01*
X126443203Y-125147803D01*
X126255931Y-125375994D01*
X126238000Y-125409541D01*
X126220069Y-125375994D01*
X126032797Y-125147803D01*
X126011487Y-125130314D01*
X126556802Y-124585000D01*
X170650678Y-124585000D01*
X170688000Y-124588676D01*
X170725322Y-124585000D01*
X170725333Y-124585000D01*
X170836986Y-124574003D01*
X170980247Y-124530546D01*
X171112276Y-124459974D01*
X171228001Y-124365001D01*
X171251804Y-124335997D01*
X173739009Y-121848794D01*
X173768001Y-121825001D01*
X173791795Y-121796008D01*
X173791799Y-121796004D01*
X173862973Y-121709277D01*
X173862974Y-121709276D01*
X173933546Y-121577247D01*
X173977003Y-121433986D01*
X173988000Y-121322333D01*
X173988000Y-121322324D01*
X173991676Y-121285001D01*
X173988000Y-121247678D01*
X173988000Y-118603665D01*
X174333000Y-118603665D01*
X174333000Y-118886335D01*
X174388147Y-119163574D01*
X174496320Y-119424727D01*
X174653363Y-119659759D01*
X174853241Y-119859637D01*
X175088273Y-120016680D01*
X175349426Y-120124853D01*
X175626665Y-120180000D01*
X175909335Y-120180000D01*
X176186574Y-120124853D01*
X176447727Y-120016680D01*
X176682759Y-119859637D01*
X176882637Y-119659759D01*
X177039680Y-119424727D01*
X177147853Y-119163574D01*
X177203000Y-118886335D01*
X177203000Y-118603665D01*
X177147853Y-118326426D01*
X177039680Y-118065273D01*
X176882637Y-117830241D01*
X176682759Y-117630363D01*
X176447727Y-117473320D01*
X176186574Y-117365147D01*
X175909335Y-117310000D01*
X175626665Y-117310000D01*
X175349426Y-117365147D01*
X175088273Y-117473320D01*
X174853241Y-117630363D01*
X174653363Y-117830241D01*
X174496320Y-118065273D01*
X174388147Y-118326426D01*
X174333000Y-118603665D01*
X173988000Y-118603665D01*
X173988000Y-113979801D01*
X175444114Y-112523688D01*
X175626665Y-112560000D01*
X175909335Y-112560000D01*
X176186574Y-112504853D01*
X176447727Y-112396680D01*
X176682759Y-112239637D01*
X176882637Y-112039759D01*
X177039680Y-111804727D01*
X177147853Y-111543574D01*
X177203000Y-111266335D01*
X177203000Y-110983665D01*
X177147853Y-110706426D01*
X177039680Y-110445273D01*
X176882637Y-110210241D01*
X176682759Y-110010363D01*
X176447727Y-109853320D01*
X176186574Y-109745147D01*
X175909335Y-109690000D01*
X175626665Y-109690000D01*
X175349426Y-109745147D01*
X175088273Y-109853320D01*
X174853241Y-110010363D01*
X174653363Y-110210241D01*
X174496320Y-110445273D01*
X174388147Y-110706426D01*
X174333000Y-110983665D01*
X174333000Y-111266335D01*
X174369312Y-111448886D01*
X172716998Y-113101201D01*
X172688000Y-113124999D01*
X172664202Y-113153997D01*
X172664201Y-113153998D01*
X172593026Y-113240724D01*
X172522454Y-113372754D01*
X172478998Y-113516015D01*
X172464324Y-113665000D01*
X172468001Y-113702332D01*
X172468000Y-120970197D01*
X170373199Y-123065000D01*
X166172801Y-123065000D01*
X167441799Y-121796003D01*
X167441803Y-121795998D01*
X168659003Y-120578799D01*
X168688001Y-120555001D01*
X168782974Y-120439276D01*
X168853546Y-120307247D01*
X168897003Y-120163986D01*
X168908000Y-120052333D01*
X168908000Y-120052324D01*
X168911676Y-120015001D01*
X168908000Y-119977678D01*
X168908000Y-118603665D01*
X169253000Y-118603665D01*
X169253000Y-118886335D01*
X169308147Y-119163574D01*
X169416320Y-119424727D01*
X169573363Y-119659759D01*
X169773241Y-119859637D01*
X170008273Y-120016680D01*
X170269426Y-120124853D01*
X170546665Y-120180000D01*
X170829335Y-120180000D01*
X171106574Y-120124853D01*
X171367727Y-120016680D01*
X171602759Y-119859637D01*
X171802637Y-119659759D01*
X171959680Y-119424727D01*
X172067853Y-119163574D01*
X172123000Y-118886335D01*
X172123000Y-118603665D01*
X172067853Y-118326426D01*
X171959680Y-118065273D01*
X171802637Y-117830241D01*
X171602759Y-117630363D01*
X171367727Y-117473320D01*
X171106574Y-117365147D01*
X170829335Y-117310000D01*
X170546665Y-117310000D01*
X170269426Y-117365147D01*
X170008273Y-117473320D01*
X169773241Y-117630363D01*
X169573363Y-117830241D01*
X169416320Y-118065273D01*
X169308147Y-118326426D01*
X169253000Y-118603665D01*
X168908000Y-118603665D01*
X168908000Y-112709801D01*
X169575703Y-112042099D01*
X169773241Y-112239637D01*
X170008273Y-112396680D01*
X170269426Y-112504853D01*
X170546665Y-112560000D01*
X170829335Y-112560000D01*
X171106574Y-112504853D01*
X171367727Y-112396680D01*
X171602759Y-112239637D01*
X171802637Y-112039759D01*
X171959680Y-111804727D01*
X172067853Y-111543574D01*
X172123000Y-111266335D01*
X172123000Y-110983665D01*
X172067853Y-110706426D01*
X171959680Y-110445273D01*
X171802637Y-110210241D01*
X171602759Y-110010363D01*
X171367727Y-109853320D01*
X171106574Y-109745147D01*
X170829335Y-109690000D01*
X170546665Y-109690000D01*
X170269426Y-109745147D01*
X170008273Y-109853320D01*
X169773241Y-110010363D01*
X169573363Y-110210241D01*
X169469957Y-110365000D01*
X169455322Y-110365000D01*
X169417999Y-110361324D01*
X169380676Y-110365000D01*
X169380667Y-110365000D01*
X169269014Y-110375997D01*
X169125753Y-110419454D01*
X168993724Y-110490026D01*
X168877999Y-110584999D01*
X168854201Y-110613997D01*
X167637003Y-111831196D01*
X167607999Y-111854999D01*
X167552871Y-111922174D01*
X167513026Y-111970724D01*
X167476126Y-112039759D01*
X167442454Y-112102754D01*
X167398997Y-112246015D01*
X167388000Y-112357668D01*
X167388000Y-112357678D01*
X167384324Y-112395000D01*
X167388000Y-112432322D01*
X167388001Y-119700197D01*
X166367002Y-120721197D01*
X166366997Y-120721201D01*
X165097002Y-121991197D01*
X165096997Y-121991201D01*
X164673209Y-122414990D01*
X144597811Y-122414990D01*
X146232730Y-120780072D01*
X147320000Y-120780072D01*
X147444482Y-120767812D01*
X147564180Y-120731502D01*
X147674494Y-120672537D01*
X147771185Y-120593185D01*
X147850537Y-120496494D01*
X147909502Y-120386180D01*
X147945812Y-120266482D01*
X147958072Y-120142000D01*
X147958072Y-118618000D01*
X147945812Y-118493518D01*
X147909502Y-118373820D01*
X147850537Y-118263506D01*
X147771185Y-118166815D01*
X147674494Y-118087463D01*
X147577850Y-118035805D01*
X147643120Y-117970535D01*
X147796005Y-117741727D01*
X147901314Y-117487490D01*
X147955000Y-117217592D01*
X147955000Y-116942408D01*
X147901314Y-116672510D01*
X147796005Y-116418273D01*
X147643120Y-116189465D01*
X147448535Y-115994880D01*
X147301766Y-115896812D01*
X147343960Y-115745565D01*
X146558000Y-114959605D01*
X145772040Y-115745565D01*
X145814234Y-115896812D01*
X145667465Y-115994880D01*
X145472880Y-116189465D01*
X145319995Y-116418273D01*
X145214686Y-116672510D01*
X145161000Y-116942408D01*
X145161000Y-117217592D01*
X145214686Y-117487490D01*
X145319995Y-117741727D01*
X145472880Y-117970535D01*
X145538150Y-118035805D01*
X145441506Y-118087463D01*
X145344815Y-118166815D01*
X145265463Y-118263506D01*
X145206498Y-118373820D01*
X145170188Y-118493518D01*
X145157928Y-118618000D01*
X145157928Y-119705270D01*
X143098219Y-121764980D01*
X134142782Y-121764980D01*
X133986688Y-121608886D01*
X134023000Y-121426335D01*
X134023000Y-121143665D01*
X133967853Y-120866426D01*
X133859680Y-120605273D01*
X133702637Y-120370241D01*
X133502759Y-120170363D01*
X133267727Y-120013320D01*
X133006574Y-119905147D01*
X132947333Y-119893363D01*
X137703000Y-119893363D01*
X137703000Y-120136637D01*
X137750460Y-120375236D01*
X137843557Y-120599992D01*
X137978713Y-120802267D01*
X138150733Y-120974287D01*
X138353008Y-121109443D01*
X138577764Y-121202540D01*
X138816363Y-121250000D01*
X139059637Y-121250000D01*
X139298236Y-121202540D01*
X139522992Y-121109443D01*
X139725267Y-120974287D01*
X139897287Y-120802267D01*
X140032443Y-120599992D01*
X140125540Y-120375236D01*
X140173000Y-120136637D01*
X140173000Y-119893363D01*
X140125540Y-119654764D01*
X140032443Y-119430008D01*
X139897287Y-119227733D01*
X139725267Y-119055713D01*
X139522992Y-118920557D01*
X139298236Y-118827460D01*
X139059637Y-118780000D01*
X138816363Y-118780000D01*
X138577764Y-118827460D01*
X138353008Y-118920557D01*
X138150733Y-119055713D01*
X137978713Y-119227733D01*
X137843557Y-119430008D01*
X137750460Y-119654764D01*
X137703000Y-119893363D01*
X132947333Y-119893363D01*
X132729335Y-119850000D01*
X132446665Y-119850000D01*
X132169426Y-119905147D01*
X131908273Y-120013320D01*
X131673241Y-120170363D01*
X131473363Y-120370241D01*
X131316320Y-120605273D01*
X131208147Y-120866426D01*
X131153000Y-121143665D01*
X131153000Y-121426335D01*
X131208147Y-121703574D01*
X131316320Y-121964727D01*
X131473363Y-122199759D01*
X131673241Y-122399637D01*
X131696218Y-122414990D01*
X128399782Y-122414990D01*
X128422759Y-122399637D01*
X128622637Y-122199759D01*
X128779680Y-121964727D01*
X128887853Y-121703574D01*
X128943000Y-121426335D01*
X128943000Y-121143665D01*
X128887853Y-120866426D01*
X128779680Y-120605273D01*
X128622637Y-120370241D01*
X128422759Y-120170363D01*
X128187727Y-120013320D01*
X127926574Y-119905147D01*
X127649335Y-119850000D01*
X127366665Y-119850000D01*
X127089426Y-119905147D01*
X126828273Y-120013320D01*
X126593241Y-120170363D01*
X126393363Y-120370241D01*
X126289957Y-120525000D01*
X118297802Y-120525000D01*
X116782802Y-119010000D01*
X116864184Y-119010000D01*
X117160743Y-118951011D01*
X117440095Y-118835299D01*
X117691505Y-118667312D01*
X117905312Y-118453505D01*
X117983000Y-118337237D01*
X118060688Y-118453505D01*
X118274495Y-118667312D01*
X118525905Y-118835299D01*
X118805257Y-118951011D01*
X119101816Y-119010000D01*
X119404184Y-119010000D01*
X119700743Y-118951011D01*
X119980095Y-118835299D01*
X120231505Y-118667312D01*
X120445312Y-118453505D01*
X120523000Y-118337237D01*
X120600688Y-118453505D01*
X120814495Y-118667312D01*
X121065905Y-118835299D01*
X121345257Y-118951011D01*
X121641816Y-119010000D01*
X121944184Y-119010000D01*
X122240743Y-118951011D01*
X122520095Y-118835299D01*
X122771505Y-118667312D01*
X122985312Y-118453505D01*
X123071334Y-118324764D01*
X138267841Y-118324764D01*
X138315148Y-118548348D01*
X138536516Y-118649237D01*
X138773313Y-118705000D01*
X139016438Y-118713495D01*
X139256549Y-118674395D01*
X139484418Y-118589202D01*
X139560852Y-118548348D01*
X139608159Y-118324764D01*
X138938000Y-117654605D01*
X138267841Y-118324764D01*
X123071334Y-118324764D01*
X123153299Y-118202095D01*
X123269011Y-117922743D01*
X123328000Y-117626184D01*
X123328000Y-117553438D01*
X137699505Y-117553438D01*
X137738605Y-117793549D01*
X137823798Y-118021418D01*
X137864652Y-118097852D01*
X138088236Y-118145159D01*
X138758395Y-117475000D01*
X139117605Y-117475000D01*
X139787764Y-118145159D01*
X140011348Y-118097852D01*
X140112237Y-117876484D01*
X140168000Y-117639687D01*
X140176495Y-117396562D01*
X140137395Y-117156451D01*
X140052202Y-116928582D01*
X140011348Y-116852148D01*
X139787764Y-116804841D01*
X139117605Y-117475000D01*
X138758395Y-117475000D01*
X138088236Y-116804841D01*
X137864652Y-116852148D01*
X137763763Y-117073516D01*
X137708000Y-117310313D01*
X137699505Y-117553438D01*
X123328000Y-117553438D01*
X123328000Y-117323816D01*
X123269011Y-117027257D01*
X123153299Y-116747905D01*
X123071335Y-116625236D01*
X138267841Y-116625236D01*
X138938000Y-117295395D01*
X139608159Y-116625236D01*
X139560852Y-116401652D01*
X139339484Y-116300763D01*
X139102687Y-116245000D01*
X138859562Y-116236505D01*
X138619451Y-116275605D01*
X138391582Y-116360798D01*
X138315148Y-116401652D01*
X138267841Y-116625236D01*
X123071335Y-116625236D01*
X122985312Y-116496495D01*
X122771505Y-116282688D01*
X122520095Y-116114701D01*
X122240743Y-115998989D01*
X121944184Y-115940000D01*
X121641816Y-115940000D01*
X121345257Y-115998989D01*
X121065905Y-116114701D01*
X120814495Y-116282688D01*
X120600688Y-116496495D01*
X120523000Y-116612763D01*
X120445312Y-116496495D01*
X120231505Y-116282688D01*
X119980095Y-116114701D01*
X119700743Y-115998989D01*
X119404184Y-115940000D01*
X119101816Y-115940000D01*
X118805257Y-115998989D01*
X118525905Y-116114701D01*
X118274495Y-116282688D01*
X118060688Y-116496495D01*
X117983000Y-116612763D01*
X117905312Y-116496495D01*
X117691505Y-116282688D01*
X117473000Y-116136687D01*
X117473000Y-114014040D01*
X126116091Y-114014040D01*
X126210930Y-114278881D01*
X126355615Y-114520131D01*
X126544586Y-114728519D01*
X126770580Y-114896037D01*
X127024913Y-115016246D01*
X127158961Y-115056904D01*
X127381000Y-114934915D01*
X127381000Y-113792000D01*
X127635000Y-113792000D01*
X127635000Y-114934915D01*
X127857039Y-115056904D01*
X127991087Y-115016246D01*
X128245420Y-114896037D01*
X128471414Y-114728519D01*
X128535632Y-114657702D01*
X131774903Y-114657702D01*
X131846486Y-114901671D01*
X132101996Y-115022571D01*
X132376184Y-115091300D01*
X132658512Y-115105217D01*
X132938130Y-115063787D01*
X133204292Y-114968603D01*
X133329514Y-114901671D01*
X133355424Y-114813363D01*
X137703000Y-114813363D01*
X137703000Y-115056637D01*
X137750460Y-115295236D01*
X137843557Y-115519992D01*
X137978713Y-115722267D01*
X138150733Y-115894287D01*
X138353008Y-116029443D01*
X138577764Y-116122540D01*
X138816363Y-116170000D01*
X139059637Y-116170000D01*
X139298236Y-116122540D01*
X139522992Y-116029443D01*
X139725267Y-115894287D01*
X139897287Y-115722267D01*
X140032443Y-115519992D01*
X140125540Y-115295236D01*
X140173000Y-115056637D01*
X140173000Y-114852017D01*
X145156090Y-114852017D01*
X145197078Y-115124133D01*
X145290364Y-115383023D01*
X145352344Y-115498980D01*
X145592435Y-115565960D01*
X146378395Y-114780000D01*
X146737605Y-114780000D01*
X147523565Y-115565960D01*
X147763656Y-115498980D01*
X147796720Y-115428665D01*
X154013000Y-115428665D01*
X154013000Y-115711335D01*
X154068147Y-115988574D01*
X154176320Y-116249727D01*
X154333363Y-116484759D01*
X154533241Y-116684637D01*
X154765759Y-116840000D01*
X154533241Y-116995363D01*
X154333363Y-117195241D01*
X154176320Y-117430273D01*
X154068147Y-117691426D01*
X154013000Y-117968665D01*
X154013000Y-118251335D01*
X154068147Y-118528574D01*
X154176320Y-118789727D01*
X154333363Y-119024759D01*
X154533241Y-119224637D01*
X154768273Y-119381680D01*
X155029426Y-119489853D01*
X155306665Y-119545000D01*
X155589335Y-119545000D01*
X155866574Y-119489853D01*
X156127727Y-119381680D01*
X156362759Y-119224637D01*
X156562637Y-119024759D01*
X156719680Y-118789727D01*
X156796749Y-118603665D01*
X164173000Y-118603665D01*
X164173000Y-118886335D01*
X164228147Y-119163574D01*
X164336320Y-119424727D01*
X164493363Y-119659759D01*
X164693241Y-119859637D01*
X164928273Y-120016680D01*
X165189426Y-120124853D01*
X165466665Y-120180000D01*
X165749335Y-120180000D01*
X166026574Y-120124853D01*
X166287727Y-120016680D01*
X166522759Y-119859637D01*
X166722637Y-119659759D01*
X166879680Y-119424727D01*
X166987853Y-119163574D01*
X167043000Y-118886335D01*
X167043000Y-118603665D01*
X166987853Y-118326426D01*
X166879680Y-118065273D01*
X166722637Y-117830241D01*
X166522759Y-117630363D01*
X166287727Y-117473320D01*
X166026574Y-117365147D01*
X165749335Y-117310000D01*
X165466665Y-117310000D01*
X165189426Y-117365147D01*
X164928273Y-117473320D01*
X164693241Y-117630363D01*
X164493363Y-117830241D01*
X164336320Y-118065273D01*
X164228147Y-118326426D01*
X164173000Y-118603665D01*
X156796749Y-118603665D01*
X156827853Y-118528574D01*
X156883000Y-118251335D01*
X156883000Y-117968665D01*
X156827853Y-117691426D01*
X156719680Y-117430273D01*
X156562637Y-117195241D01*
X156362759Y-116995363D01*
X156130241Y-116840000D01*
X156362759Y-116684637D01*
X156562637Y-116484759D01*
X156719680Y-116249727D01*
X156827853Y-115988574D01*
X156883000Y-115711335D01*
X156883000Y-115428665D01*
X156827853Y-115151426D01*
X156719680Y-114890273D01*
X156562637Y-114655241D01*
X156362759Y-114455363D01*
X156127727Y-114298320D01*
X155866574Y-114190147D01*
X155589335Y-114135000D01*
X155306665Y-114135000D01*
X155029426Y-114190147D01*
X154768273Y-114298320D01*
X154533241Y-114455363D01*
X154333363Y-114655241D01*
X154176320Y-114890273D01*
X154068147Y-115151426D01*
X154013000Y-115428665D01*
X147796720Y-115428665D01*
X147880756Y-115249952D01*
X147947023Y-114982865D01*
X147959910Y-114707983D01*
X147918922Y-114435867D01*
X147825636Y-114176977D01*
X147763656Y-114061020D01*
X147523565Y-113994040D01*
X146737605Y-114780000D01*
X146378395Y-114780000D01*
X145592435Y-113994040D01*
X145352344Y-114061020D01*
X145235244Y-114310048D01*
X145168977Y-114577135D01*
X145156090Y-114852017D01*
X140173000Y-114852017D01*
X140173000Y-114813363D01*
X140125540Y-114574764D01*
X140032443Y-114350008D01*
X139897287Y-114147733D01*
X139725267Y-113975713D01*
X139522992Y-113840557D01*
X139459928Y-113814435D01*
X145772040Y-113814435D01*
X146558000Y-114600395D01*
X147343960Y-113814435D01*
X147276980Y-113574344D01*
X147027952Y-113457244D01*
X146760865Y-113390977D01*
X146485983Y-113378090D01*
X146213867Y-113419078D01*
X145954977Y-113512364D01*
X145839020Y-113574344D01*
X145772040Y-113814435D01*
X139459928Y-113814435D01*
X139298236Y-113747460D01*
X139059637Y-113700000D01*
X138816363Y-113700000D01*
X138577764Y-113747460D01*
X138353008Y-113840557D01*
X138150733Y-113975713D01*
X137978713Y-114147733D01*
X137843557Y-114350008D01*
X137750460Y-114574764D01*
X137703000Y-114813363D01*
X133355424Y-114813363D01*
X133401097Y-114657702D01*
X132588000Y-113844605D01*
X131774903Y-114657702D01*
X128535632Y-114657702D01*
X128660385Y-114520131D01*
X128805070Y-114278881D01*
X128899909Y-114014040D01*
X128778624Y-113792000D01*
X127635000Y-113792000D01*
X127381000Y-113792000D01*
X126237376Y-113792000D01*
X126116091Y-114014040D01*
X117473000Y-114014040D01*
X117473000Y-113735512D01*
X131147783Y-113735512D01*
X131189213Y-114015130D01*
X131284397Y-114281292D01*
X131351329Y-114406514D01*
X131595298Y-114478097D01*
X132408395Y-113665000D01*
X132767605Y-113665000D01*
X133580702Y-114478097D01*
X133824671Y-114406514D01*
X133945571Y-114151004D01*
X134014300Y-113876816D01*
X134028217Y-113594488D01*
X133986787Y-113314870D01*
X133891603Y-113048708D01*
X133824671Y-112923486D01*
X133580702Y-112851903D01*
X132767605Y-113665000D01*
X132408395Y-113665000D01*
X131595298Y-112851903D01*
X131351329Y-112923486D01*
X131230429Y-113178996D01*
X131161700Y-113453184D01*
X131147783Y-113735512D01*
X117473000Y-113735512D01*
X117473000Y-113315960D01*
X126116091Y-113315960D01*
X126237376Y-113538000D01*
X127381000Y-113538000D01*
X127381000Y-112395085D01*
X127635000Y-112395085D01*
X127635000Y-113538000D01*
X128778624Y-113538000D01*
X128899909Y-113315960D01*
X128805070Y-113051119D01*
X128660385Y-112809869D01*
X128535633Y-112672298D01*
X131774903Y-112672298D01*
X132588000Y-113485395D01*
X133401097Y-112672298D01*
X133329514Y-112428329D01*
X133074004Y-112307429D01*
X132799816Y-112238700D01*
X132517488Y-112224783D01*
X132237870Y-112266213D01*
X131971708Y-112361397D01*
X131846486Y-112428329D01*
X131774903Y-112672298D01*
X128535633Y-112672298D01*
X128471414Y-112601481D01*
X128245420Y-112433963D01*
X127991087Y-112313754D01*
X127857039Y-112273096D01*
X127635000Y-112395085D01*
X127381000Y-112395085D01*
X127158961Y-112273096D01*
X127024913Y-112313754D01*
X126770580Y-112433963D01*
X126544586Y-112601481D01*
X126355615Y-112809869D01*
X126210930Y-113051119D01*
X126116091Y-113315960D01*
X117473000Y-113315960D01*
X117473000Y-110983665D01*
X164173000Y-110983665D01*
X164173000Y-111266335D01*
X164228147Y-111543574D01*
X164336320Y-111804727D01*
X164493363Y-112039759D01*
X164693241Y-112239637D01*
X164928273Y-112396680D01*
X165189426Y-112504853D01*
X165466665Y-112560000D01*
X165749335Y-112560000D01*
X166026574Y-112504853D01*
X166287727Y-112396680D01*
X166522759Y-112239637D01*
X166722637Y-112039759D01*
X166879680Y-111804727D01*
X166987853Y-111543574D01*
X167043000Y-111266335D01*
X167043000Y-110983665D01*
X166987853Y-110706426D01*
X166879680Y-110445273D01*
X166722637Y-110210241D01*
X166522759Y-110010363D01*
X166287727Y-109853320D01*
X166026574Y-109745147D01*
X165749335Y-109690000D01*
X165466665Y-109690000D01*
X165189426Y-109745147D01*
X164928273Y-109853320D01*
X164693241Y-110010363D01*
X164493363Y-110210241D01*
X164336320Y-110445273D01*
X164228147Y-110706426D01*
X164173000Y-110983665D01*
X117473000Y-110983665D01*
X117473000Y-110804801D01*
X129092802Y-99185000D01*
X134813199Y-99185000D01*
X144364847Y-108736649D01*
X144388932Y-108857729D01*
X144459414Y-109027889D01*
X144561738Y-109181028D01*
X144691972Y-109311262D01*
X144845111Y-109413586D01*
X145015271Y-109484068D01*
X145195911Y-109520000D01*
X145380089Y-109520000D01*
X145560729Y-109484068D01*
X145730889Y-109413586D01*
X145884028Y-109311262D01*
X146014262Y-109181028D01*
X146116586Y-109027889D01*
X146187068Y-108857729D01*
X146223000Y-108677089D01*
X146223000Y-108492911D01*
X146187068Y-108312271D01*
X146116586Y-108142111D01*
X146014262Y-107988972D01*
X145884028Y-107858738D01*
X145730889Y-107756414D01*
X145560729Y-107685932D01*
X145439649Y-107661847D01*
X137832372Y-100054570D01*
X166123000Y-100054570D01*
X166123000Y-100455430D01*
X166201204Y-100848587D01*
X166354607Y-101218934D01*
X166577313Y-101552237D01*
X166860763Y-101835687D01*
X167194066Y-102058393D01*
X167564413Y-102211796D01*
X167957570Y-102290000D01*
X168358430Y-102290000D01*
X168751587Y-102211796D01*
X169121934Y-102058393D01*
X169455237Y-101835687D01*
X169738687Y-101552237D01*
X169961393Y-101218934D01*
X170114796Y-100848587D01*
X170193000Y-100455430D01*
X170193000Y-100054570D01*
X170114796Y-99661413D01*
X169961393Y-99291066D01*
X169738687Y-98957763D01*
X169455237Y-98674313D01*
X169121934Y-98451607D01*
X168751587Y-98298204D01*
X168358430Y-98220000D01*
X167957570Y-98220000D01*
X167564413Y-98298204D01*
X167194066Y-98451607D01*
X166860763Y-98674313D01*
X166577313Y-98957763D01*
X166354607Y-99291066D01*
X166201204Y-99661413D01*
X166123000Y-100054570D01*
X137832372Y-100054570D01*
X135691804Y-97914003D01*
X135668001Y-97884999D01*
X135552276Y-97790026D01*
X135420247Y-97719454D01*
X135276986Y-97675997D01*
X135165333Y-97665000D01*
X135165322Y-97665000D01*
X135128000Y-97661324D01*
X135090678Y-97665000D01*
X128815325Y-97665000D01*
X128778000Y-97661324D01*
X128740675Y-97665000D01*
X100740341Y-97665000D01*
X100653120Y-97534465D01*
X100458535Y-97339880D01*
X100229727Y-97186995D01*
X100152485Y-97155000D01*
X100229727Y-97123005D01*
X100458535Y-96970120D01*
X100653120Y-96775535D01*
X100806005Y-96546727D01*
X100911314Y-96292490D01*
X100965000Y-96022592D01*
X100965000Y-95747408D01*
X100911314Y-95477510D01*
X100806005Y-95223273D01*
X100653120Y-94994465D01*
X100458535Y-94799880D01*
X100335388Y-94717595D01*
X174016282Y-94717595D01*
X174060039Y-95036675D01*
X174165205Y-95341088D01*
X174258186Y-95515044D01*
X174407223Y-95569024D01*
X174303506Y-95624463D01*
X174206815Y-95703815D01*
X174127463Y-95800506D01*
X174068498Y-95910820D01*
X174032188Y-96030518D01*
X174019928Y-96155000D01*
X174019928Y-98155000D01*
X174032188Y-98279482D01*
X174068498Y-98399180D01*
X174127463Y-98509494D01*
X174206815Y-98606185D01*
X174303506Y-98685537D01*
X174413820Y-98744502D01*
X174533518Y-98780812D01*
X174658000Y-98793072D01*
X176658000Y-98793072D01*
X176782482Y-98780812D01*
X176902180Y-98744502D01*
X177012494Y-98685537D01*
X177109185Y-98606185D01*
X177188537Y-98509494D01*
X177247502Y-98399180D01*
X177283812Y-98279482D01*
X177296072Y-98155000D01*
X177296072Y-96155000D01*
X177283812Y-96030518D01*
X177247502Y-95910820D01*
X177188537Y-95800506D01*
X177109185Y-95703815D01*
X177012494Y-95624463D01*
X176908777Y-95569024D01*
X177057814Y-95515044D01*
X177198704Y-95225429D01*
X177280384Y-94913892D01*
X177299718Y-94592405D01*
X177255961Y-94273325D01*
X177150795Y-93968912D01*
X177057814Y-93794956D01*
X176793413Y-93699192D01*
X175837605Y-94655000D01*
X175851748Y-94669143D01*
X175672143Y-94848748D01*
X175658000Y-94834605D01*
X175643858Y-94848748D01*
X175464253Y-94669143D01*
X175478395Y-94655000D01*
X174522587Y-93699192D01*
X174258186Y-93794956D01*
X174117296Y-94084571D01*
X174035616Y-94396108D01*
X174016282Y-94717595D01*
X100335388Y-94717595D01*
X100229727Y-94646995D01*
X100152485Y-94615000D01*
X100229727Y-94583005D01*
X100458535Y-94430120D01*
X100653120Y-94235535D01*
X100740341Y-94105000D01*
X112230678Y-94105000D01*
X112268000Y-94108676D01*
X112305322Y-94105000D01*
X112305333Y-94105000D01*
X112416986Y-94094003D01*
X112560247Y-94050546D01*
X112692276Y-93979974D01*
X112808001Y-93885001D01*
X112831804Y-93855997D01*
X114693834Y-91993967D01*
X174023000Y-91993967D01*
X174023000Y-92316033D01*
X174085832Y-92631912D01*
X174209082Y-92929463D01*
X174388013Y-93197252D01*
X174615748Y-93424987D01*
X174712935Y-93489925D01*
X174702192Y-93519587D01*
X175658000Y-94475395D01*
X176613808Y-93519587D01*
X176603065Y-93489925D01*
X176700252Y-93424987D01*
X176927987Y-93197252D01*
X177106918Y-92929463D01*
X177230168Y-92631912D01*
X177293000Y-92316033D01*
X177293000Y-91993967D01*
X177230168Y-91678088D01*
X177106918Y-91380537D01*
X176927987Y-91112748D01*
X176700252Y-90885013D01*
X176432463Y-90706082D01*
X176134912Y-90582832D01*
X175819033Y-90520000D01*
X175496967Y-90520000D01*
X175181088Y-90582832D01*
X174883537Y-90706082D01*
X174615748Y-90885013D01*
X174388013Y-91112748D01*
X174209082Y-91380537D01*
X174085832Y-91678088D01*
X174023000Y-91993967D01*
X114693834Y-91993967D01*
X117662802Y-89025000D01*
X134770678Y-89025000D01*
X134808000Y-89028676D01*
X134845322Y-89025000D01*
X134845333Y-89025000D01*
X134956986Y-89014003D01*
X135100247Y-88970546D01*
X135232276Y-88899974D01*
X135287600Y-88854570D01*
X166123000Y-88854570D01*
X166123000Y-89255430D01*
X166201204Y-89648587D01*
X166354607Y-90018934D01*
X166577313Y-90352237D01*
X166860763Y-90635687D01*
X167194066Y-90858393D01*
X167564413Y-91011796D01*
X167957570Y-91090000D01*
X168358430Y-91090000D01*
X168751587Y-91011796D01*
X169121934Y-90858393D01*
X169455237Y-90635687D01*
X169738687Y-90352237D01*
X169961393Y-90018934D01*
X170114796Y-89648587D01*
X170193000Y-89255430D01*
X170193000Y-88854570D01*
X170114796Y-88461413D01*
X169961393Y-88091066D01*
X169738687Y-87757763D01*
X169455237Y-87474313D01*
X169121934Y-87251607D01*
X168751587Y-87098204D01*
X168358430Y-87020000D01*
X167957570Y-87020000D01*
X167564413Y-87098204D01*
X167194066Y-87251607D01*
X166860763Y-87474313D01*
X166577313Y-87757763D01*
X166354607Y-88091066D01*
X166201204Y-88461413D01*
X166123000Y-88854570D01*
X135287600Y-88854570D01*
X135348001Y-88805001D01*
X135371804Y-88775997D01*
X137056430Y-87091372D01*
X137210408Y-87122000D01*
X137485592Y-87122000D01*
X137755490Y-87068314D01*
X138009727Y-86963005D01*
X138238535Y-86810120D01*
X138433120Y-86615535D01*
X138586005Y-86386727D01*
X138618000Y-86309485D01*
X138649995Y-86386727D01*
X138802880Y-86615535D01*
X138997465Y-86810120D01*
X139226273Y-86963005D01*
X139480510Y-87068314D01*
X139750408Y-87122000D01*
X140025592Y-87122000D01*
X140295490Y-87068314D01*
X140549727Y-86963005D01*
X140778535Y-86810120D01*
X140973120Y-86615535D01*
X141126005Y-86386727D01*
X141158000Y-86309485D01*
X141189995Y-86386727D01*
X141342880Y-86615535D01*
X141537465Y-86810120D01*
X141766273Y-86963005D01*
X142020510Y-87068314D01*
X142290408Y-87122000D01*
X142565592Y-87122000D01*
X142835490Y-87068314D01*
X143089727Y-86963005D01*
X143318535Y-86810120D01*
X143513120Y-86615535D01*
X143666005Y-86386727D01*
X143771314Y-86132490D01*
X143825000Y-85862592D01*
X143825000Y-85587408D01*
X143771314Y-85317510D01*
X143666005Y-85063273D01*
X143513120Y-84834465D01*
X143318535Y-84639880D01*
X143089727Y-84486995D01*
X142835490Y-84381686D01*
X142565592Y-84328000D01*
X142359801Y-84328000D01*
X147113217Y-79574585D01*
X147251736Y-79648625D01*
X147534223Y-79734316D01*
X147828000Y-79763251D01*
X148121776Y-79734316D01*
X148404263Y-79648625D01*
X148664605Y-79509469D01*
X148892797Y-79322197D01*
X149080069Y-79094006D01*
X149098000Y-79060459D01*
X149115931Y-79094005D01*
X149303203Y-79322197D01*
X149531394Y-79509469D01*
X149791736Y-79648625D01*
X150074223Y-79734316D01*
X150368000Y-79763251D01*
X150661776Y-79734316D01*
X150944263Y-79648625D01*
X151204605Y-79509469D01*
X151432797Y-79322197D01*
X151620069Y-79094006D01*
X151638000Y-79060459D01*
X151655931Y-79094005D01*
X151843203Y-79322197D01*
X152071394Y-79509469D01*
X152331736Y-79648625D01*
X152614223Y-79734316D01*
X152908000Y-79763251D01*
X153201776Y-79734316D01*
X153484263Y-79648625D01*
X153744605Y-79509469D01*
X153972797Y-79322197D01*
X154160069Y-79094006D01*
X154299225Y-78833664D01*
X154384916Y-78551177D01*
X154406600Y-78331019D01*
X154406600Y-77878982D01*
X154384916Y-77658824D01*
X154299225Y-77376337D01*
X154160069Y-77115994D01*
X153972797Y-76887803D01*
X153744606Y-76700531D01*
X153484264Y-76561375D01*
X153201777Y-76475684D01*
X152908000Y-76446749D01*
X152614224Y-76475684D01*
X152331737Y-76561375D01*
X152071395Y-76700531D01*
X151843203Y-76887803D01*
X151655931Y-77115994D01*
X151638000Y-77149541D01*
X151620069Y-77115994D01*
X151432797Y-76887803D01*
X151204606Y-76700531D01*
X150944264Y-76561375D01*
X150661777Y-76475684D01*
X150368000Y-76446749D01*
X150074224Y-76475684D01*
X149791737Y-76561375D01*
X149531395Y-76700531D01*
X149303203Y-76887803D01*
X149115931Y-77115994D01*
X149098000Y-77149541D01*
X149080069Y-77115994D01*
X148892797Y-76887803D01*
X148664606Y-76700531D01*
X148404264Y-76561375D01*
X148121777Y-76475684D01*
X147828000Y-76446749D01*
X147534224Y-76475684D01*
X147251737Y-76561375D01*
X146991395Y-76700531D01*
X146763203Y-76887803D01*
X146575931Y-77115994D01*
X146558000Y-77149541D01*
X146540069Y-77115994D01*
X146352797Y-76887803D01*
X146124606Y-76700531D01*
X145864264Y-76561375D01*
X145581777Y-76475684D01*
X145288000Y-76446749D01*
X144994224Y-76475684D01*
X144711737Y-76561375D01*
X144451395Y-76700531D01*
X144223203Y-76887803D01*
X144035931Y-77115994D01*
X144018000Y-77149541D01*
X144000069Y-77115994D01*
X143812797Y-76887803D01*
X143584606Y-76700531D01*
X143324264Y-76561375D01*
X143041777Y-76475684D01*
X142748000Y-76446749D01*
X142454224Y-76475684D01*
X142171737Y-76561375D01*
X141911395Y-76700531D01*
X141683203Y-76887803D01*
X141495931Y-77115994D01*
X141474576Y-77155947D01*
X141326486Y-76953271D01*
X141110035Y-76754267D01*
X140858919Y-76601314D01*
X140582789Y-76500291D01*
X140567026Y-76497642D01*
X140335000Y-76618783D01*
X140335000Y-77978000D01*
X140355000Y-77978000D01*
X140355000Y-78232000D01*
X140335000Y-78232000D01*
X140335000Y-79591217D01*
X140567026Y-79712358D01*
X140582789Y-79709709D01*
X140858919Y-79608686D01*
X141110035Y-79455733D01*
X141326486Y-79256729D01*
X141474576Y-79054053D01*
X141495931Y-79094005D01*
X141683203Y-79322197D01*
X141911394Y-79509469D01*
X142171736Y-79648625D01*
X142454223Y-79734316D01*
X142572257Y-79745942D01*
X139258199Y-83060000D01*
X131670323Y-83060000D01*
X131633000Y-83056324D01*
X131595677Y-83060000D01*
X131595667Y-83060000D01*
X131484014Y-83070997D01*
X131340753Y-83114454D01*
X131208724Y-83185026D01*
X131092999Y-83279999D01*
X131069201Y-83308997D01*
X130019570Y-84358628D01*
X129865592Y-84328000D01*
X129590408Y-84328000D01*
X129320510Y-84381686D01*
X129066273Y-84486995D01*
X128837465Y-84639880D01*
X128642880Y-84834465D01*
X128489995Y-85063273D01*
X128384686Y-85317510D01*
X128331000Y-85587408D01*
X128331000Y-85862592D01*
X128384686Y-86132490D01*
X128489995Y-86386727D01*
X128642880Y-86615535D01*
X128837465Y-86810120D01*
X129066273Y-86963005D01*
X129320510Y-87068314D01*
X129590408Y-87122000D01*
X129865592Y-87122000D01*
X130135490Y-87068314D01*
X130389727Y-86963005D01*
X130618535Y-86810120D01*
X130738090Y-86690565D01*
X131482040Y-86690565D01*
X131549020Y-86930656D01*
X131798048Y-87047756D01*
X132065135Y-87114023D01*
X132340017Y-87126910D01*
X132612133Y-87085922D01*
X132871023Y-86992636D01*
X132986980Y-86930656D01*
X133053960Y-86690565D01*
X132268000Y-85904605D01*
X131482040Y-86690565D01*
X130738090Y-86690565D01*
X130813120Y-86615535D01*
X130966005Y-86386727D01*
X130995692Y-86315057D01*
X131000364Y-86328023D01*
X131062344Y-86443980D01*
X131302435Y-86510960D01*
X132088395Y-85725000D01*
X132074253Y-85710858D01*
X132253858Y-85531253D01*
X132268000Y-85545395D01*
X133053960Y-84759435D01*
X133003902Y-84580000D01*
X134007082Y-84580000D01*
X133917465Y-84639880D01*
X133722880Y-84834465D01*
X133569995Y-85063273D01*
X133540308Y-85134943D01*
X133535636Y-85121977D01*
X133473656Y-85006020D01*
X133233565Y-84939040D01*
X132447605Y-85725000D01*
X133233565Y-86510960D01*
X133473656Y-86443980D01*
X133537485Y-86308240D01*
X133569995Y-86386727D01*
X133722880Y-86615535D01*
X133917465Y-86810120D01*
X134146273Y-86963005D01*
X134400510Y-87068314D01*
X134670408Y-87122000D01*
X134876199Y-87122000D01*
X134493199Y-87505000D01*
X118108000Y-87505000D01*
X118108000Y-79550415D01*
X118184605Y-79509469D01*
X118412797Y-79322197D01*
X118600069Y-79094006D01*
X118618000Y-79060459D01*
X118635931Y-79094005D01*
X118823203Y-79322197D01*
X119051394Y-79509469D01*
X119311736Y-79648625D01*
X119594223Y-79734316D01*
X119888000Y-79763251D01*
X120181776Y-79734316D01*
X120464263Y-79648625D01*
X120724605Y-79509469D01*
X120952797Y-79322197D01*
X121140069Y-79094006D01*
X121158000Y-79060459D01*
X121175931Y-79094005D01*
X121363203Y-79322197D01*
X121591394Y-79509469D01*
X121851736Y-79648625D01*
X122134223Y-79734316D01*
X122428000Y-79763251D01*
X122721776Y-79734316D01*
X123004263Y-79648625D01*
X123264605Y-79509469D01*
X123492797Y-79322197D01*
X123680069Y-79094006D01*
X123698000Y-79060459D01*
X123715931Y-79094005D01*
X123903203Y-79322197D01*
X124131394Y-79509469D01*
X124391736Y-79648625D01*
X124674223Y-79734316D01*
X124968000Y-79763251D01*
X125261776Y-79734316D01*
X125544263Y-79648625D01*
X125804605Y-79509469D01*
X126032797Y-79322197D01*
X126220069Y-79094006D01*
X126238000Y-79060459D01*
X126255931Y-79094005D01*
X126443203Y-79322197D01*
X126671394Y-79509469D01*
X126931736Y-79648625D01*
X127214223Y-79734316D01*
X127508000Y-79763251D01*
X127801776Y-79734316D01*
X128084263Y-79648625D01*
X128344605Y-79509469D01*
X128572797Y-79322197D01*
X128760069Y-79094006D01*
X128778000Y-79060459D01*
X128795931Y-79094005D01*
X128983203Y-79322197D01*
X129211394Y-79509469D01*
X129471736Y-79648625D01*
X129754223Y-79734316D01*
X130048000Y-79763251D01*
X130341776Y-79734316D01*
X130624263Y-79648625D01*
X130884605Y-79509469D01*
X131112797Y-79322197D01*
X131300069Y-79094006D01*
X131439225Y-78833664D01*
X131524916Y-78551177D01*
X131546600Y-78331019D01*
X131546600Y-77878982D01*
X131546600Y-77878981D01*
X133629400Y-77878981D01*
X133629400Y-78331018D01*
X133651084Y-78551176D01*
X133736775Y-78833663D01*
X133875931Y-79094005D01*
X134063203Y-79322197D01*
X134291394Y-79509469D01*
X134551736Y-79648625D01*
X134834223Y-79734316D01*
X135128000Y-79763251D01*
X135421776Y-79734316D01*
X135704263Y-79648625D01*
X135964605Y-79509469D01*
X136192797Y-79322197D01*
X136380069Y-79094006D01*
X136401424Y-79054053D01*
X136549514Y-79256729D01*
X136765965Y-79455733D01*
X137017081Y-79608686D01*
X137293211Y-79709709D01*
X137308974Y-79712358D01*
X137541000Y-79591217D01*
X137541000Y-78232000D01*
X137795000Y-78232000D01*
X137795000Y-79591217D01*
X138027026Y-79712358D01*
X138042789Y-79709709D01*
X138318919Y-79608686D01*
X138570035Y-79455733D01*
X138786486Y-79256729D01*
X138938000Y-79049367D01*
X139089514Y-79256729D01*
X139305965Y-79455733D01*
X139557081Y-79608686D01*
X139833211Y-79709709D01*
X139848974Y-79712358D01*
X140081000Y-79591217D01*
X140081000Y-78232000D01*
X137795000Y-78232000D01*
X137541000Y-78232000D01*
X137521000Y-78232000D01*
X137521000Y-77978000D01*
X137541000Y-77978000D01*
X137541000Y-76618783D01*
X137795000Y-76618783D01*
X137795000Y-77978000D01*
X140081000Y-77978000D01*
X140081000Y-76618783D01*
X139848974Y-76497642D01*
X139833211Y-76500291D01*
X139557081Y-76601314D01*
X139305965Y-76754267D01*
X139089514Y-76953271D01*
X138938000Y-77160633D01*
X138786486Y-76953271D01*
X138570035Y-76754267D01*
X138318919Y-76601314D01*
X138042789Y-76500291D01*
X138027026Y-76497642D01*
X137795000Y-76618783D01*
X137541000Y-76618783D01*
X137308974Y-76497642D01*
X137293211Y-76500291D01*
X137017081Y-76601314D01*
X136765965Y-76754267D01*
X136549514Y-76953271D01*
X136401424Y-77155947D01*
X136380069Y-77115994D01*
X136192797Y-76887803D01*
X135964606Y-76700531D01*
X135704264Y-76561375D01*
X135421777Y-76475684D01*
X135128000Y-76446749D01*
X134834224Y-76475684D01*
X134551737Y-76561375D01*
X134291395Y-76700531D01*
X134063203Y-76887803D01*
X133875931Y-77115994D01*
X133736775Y-77376336D01*
X133651084Y-77658823D01*
X133629400Y-77878981D01*
X131546600Y-77878981D01*
X131524916Y-77658824D01*
X131439225Y-77376337D01*
X131300069Y-77115994D01*
X131112797Y-76887803D01*
X130884606Y-76700531D01*
X130624264Y-76561375D01*
X130341777Y-76475684D01*
X130048000Y-76446749D01*
X129754224Y-76475684D01*
X129471737Y-76561375D01*
X129211395Y-76700531D01*
X128983203Y-76887803D01*
X128795931Y-77115994D01*
X128778000Y-77149541D01*
X128760069Y-77115994D01*
X128572797Y-76887803D01*
X128344606Y-76700531D01*
X128084264Y-76561375D01*
X127801777Y-76475684D01*
X127508000Y-76446749D01*
X127214224Y-76475684D01*
X126931737Y-76561375D01*
X126671395Y-76700531D01*
X126443203Y-76887803D01*
X126255931Y-77115994D01*
X126238000Y-77149541D01*
X126220069Y-77115994D01*
X126032797Y-76887803D01*
X125804606Y-76700531D01*
X125544264Y-76561375D01*
X125261777Y-76475684D01*
X124968000Y-76446749D01*
X124674224Y-76475684D01*
X124391737Y-76561375D01*
X124131395Y-76700531D01*
X123903203Y-76887803D01*
X123715931Y-77115994D01*
X123698000Y-77149541D01*
X123680069Y-77115994D01*
X123492797Y-76887803D01*
X123264606Y-76700531D01*
X123004264Y-76561375D01*
X122721777Y-76475684D01*
X122428000Y-76446749D01*
X122134224Y-76475684D01*
X121851737Y-76561375D01*
X121591395Y-76700531D01*
X121363203Y-76887803D01*
X121175931Y-77115994D01*
X121158000Y-77149541D01*
X121140069Y-77115994D01*
X120952797Y-76887803D01*
X120724606Y-76700531D01*
X120464264Y-76561375D01*
X120181777Y-76475684D01*
X119888000Y-76446749D01*
X119594224Y-76475684D01*
X119311737Y-76561375D01*
X119051395Y-76700531D01*
X118823203Y-76887803D01*
X118635931Y-77115994D01*
X118618000Y-77149541D01*
X118600069Y-77115994D01*
X118412797Y-76887803D01*
X118184606Y-76700531D01*
X117924264Y-76561375D01*
X117641777Y-76475684D01*
X117348000Y-76446749D01*
X117054224Y-76475684D01*
X116771737Y-76561375D01*
X116511395Y-76700531D01*
X116283203Y-76887803D01*
X116095931Y-77115994D01*
X115956775Y-77376336D01*
X115871084Y-77658823D01*
X115849400Y-77878981D01*
X115849400Y-78331018D01*
X115871084Y-78551176D01*
X115956775Y-78833663D01*
X116095931Y-79094005D01*
X116283203Y-79322197D01*
X116511394Y-79509469D01*
X116588001Y-79550416D01*
X116588000Y-87950198D01*
X111953199Y-92585000D01*
X100740341Y-92585000D01*
X100653120Y-92454465D01*
X100458535Y-92259880D01*
X100229727Y-92106995D01*
X100152485Y-92075000D01*
X100229727Y-92043005D01*
X100458535Y-91890120D01*
X100653120Y-91695535D01*
X100806005Y-91466727D01*
X100911314Y-91212490D01*
X100965000Y-90942592D01*
X100965000Y-90667408D01*
X100911314Y-90397510D01*
X100806005Y-90143273D01*
X100653120Y-89914465D01*
X100458535Y-89719880D01*
X100229727Y-89566995D01*
X100152485Y-89535000D01*
X100229727Y-89503005D01*
X100458535Y-89350120D01*
X100653120Y-89155535D01*
X100806005Y-88926727D01*
X100911314Y-88672490D01*
X100965000Y-88402592D01*
X100965000Y-88127408D01*
X100911314Y-87857510D01*
X100806005Y-87603273D01*
X100653120Y-87374465D01*
X100458535Y-87179880D01*
X100229727Y-87026995D01*
X99975490Y-86921686D01*
X99705592Y-86868000D01*
X99430408Y-86868000D01*
X99160510Y-86921686D01*
X98906273Y-87026995D01*
X98677465Y-87179880D01*
X98482880Y-87374465D01*
X98329995Y-87603273D01*
X98224686Y-87857510D01*
X98171000Y-88127408D01*
X96468000Y-88127408D01*
X96468000Y-76275000D01*
X180138001Y-76275000D01*
X180138000Y-128195000D01*
G37*
X180138000Y-128195000D02*
X96468000Y-128195000D01*
X96468000Y-101930565D01*
X98782040Y-101930565D01*
X98849020Y-102170656D01*
X99098048Y-102287756D01*
X99365135Y-102354023D01*
X99640017Y-102366910D01*
X99912133Y-102325922D01*
X100171023Y-102232636D01*
X100286980Y-102170656D01*
X100353960Y-101930565D01*
X99568000Y-101144605D01*
X98782040Y-101930565D01*
X96468000Y-101930565D01*
X96468000Y-101037017D01*
X98166090Y-101037017D01*
X98207078Y-101309133D01*
X98300364Y-101568023D01*
X98362344Y-101683980D01*
X98602435Y-101750960D01*
X99388395Y-100965000D01*
X99747605Y-100965000D01*
X100533565Y-101750960D01*
X100773656Y-101683980D01*
X100890756Y-101434952D01*
X100957023Y-101167865D01*
X100969910Y-100892983D01*
X100928922Y-100620867D01*
X100835636Y-100361977D01*
X100773656Y-100246020D01*
X100533565Y-100179040D01*
X99747605Y-100965000D01*
X99388395Y-100965000D01*
X98602435Y-100179040D01*
X98362344Y-100246020D01*
X98245244Y-100495048D01*
X98178977Y-100762135D01*
X98166090Y-101037017D01*
X96468000Y-101037017D01*
X96468000Y-88127408D01*
X98171000Y-88127408D01*
X98171000Y-88402592D01*
X98224686Y-88672490D01*
X98329995Y-88926727D01*
X98482880Y-89155535D01*
X98677465Y-89350120D01*
X98906273Y-89503005D01*
X98983515Y-89535000D01*
X98906273Y-89566995D01*
X98677465Y-89719880D01*
X98482880Y-89914465D01*
X98329995Y-90143273D01*
X98224686Y-90397510D01*
X98171000Y-90667408D01*
X98171000Y-90942592D01*
X98224686Y-91212490D01*
X98329995Y-91466727D01*
X98482880Y-91695535D01*
X98677465Y-91890120D01*
X98906273Y-92043005D01*
X98983515Y-92075000D01*
X98906273Y-92106995D01*
X98677465Y-92259880D01*
X98482880Y-92454465D01*
X98329995Y-92683273D01*
X98224686Y-92937510D01*
X98171000Y-93207408D01*
X98171000Y-93482592D01*
X98224686Y-93752490D01*
X98329995Y-94006727D01*
X98482880Y-94235535D01*
X98677465Y-94430120D01*
X98906273Y-94583005D01*
X98983515Y-94615000D01*
X98906273Y-94646995D01*
X98677465Y-94799880D01*
X98482880Y-94994465D01*
X98329995Y-95223273D01*
X98224686Y-95477510D01*
X98171000Y-95747408D01*
X98171000Y-96022592D01*
X98224686Y-96292490D01*
X98329995Y-96546727D01*
X98482880Y-96775535D01*
X98677465Y-96970120D01*
X98906273Y-97123005D01*
X98983515Y-97155000D01*
X98906273Y-97186995D01*
X98677465Y-97339880D01*
X98482880Y-97534465D01*
X98329995Y-97763273D01*
X98224686Y-98017510D01*
X98171000Y-98287408D01*
X98171000Y-98562592D01*
X98224686Y-98832490D01*
X98329995Y-99086727D01*
X98482880Y-99315535D01*
X98677465Y-99510120D01*
X98906273Y-99663005D01*
X98977943Y-99692692D01*
X98964977Y-99697364D01*
X98849020Y-99759344D01*
X98782040Y-99999435D01*
X99568000Y-100785395D01*
X100353960Y-99999435D01*
X100286980Y-99759344D01*
X100151240Y-99695515D01*
X100229727Y-99663005D01*
X100458535Y-99510120D01*
X100653120Y-99315535D01*
X100740341Y-99185000D01*
X126943198Y-99185000D01*
X116201998Y-109926201D01*
X116173000Y-109949999D01*
X116149202Y-109978997D01*
X116149201Y-109978998D01*
X116078026Y-110065724D01*
X116007454Y-110197754D01*
X115977180Y-110297558D01*
X115963998Y-110341014D01*
X115960552Y-110375998D01*
X115949324Y-110490000D01*
X115953001Y-110527332D01*
X115953000Y-116136687D01*
X115734495Y-116282688D01*
X115520688Y-116496495D01*
X115443000Y-116612763D01*
X115365312Y-116496495D01*
X115151505Y-116282688D01*
X114900095Y-116114701D01*
X114620743Y-115998989D01*
X114324184Y-115940000D01*
X114021816Y-115940000D01*
X113725257Y-115998989D01*
X113445905Y-116114701D01*
X113194495Y-116282688D01*
X112980688Y-116496495D01*
X112903000Y-116612763D01*
X112825312Y-116496495D01*
X112611505Y-116282688D01*
X112360095Y-116114701D01*
X112080743Y-115998989D01*
X111784184Y-115940000D01*
X111481816Y-115940000D01*
X111185257Y-115998989D01*
X110905905Y-116114701D01*
X110654495Y-116282688D01*
X110440688Y-116496495D01*
X110272701Y-116747905D01*
X110156989Y-117027257D01*
X110098000Y-117323816D01*
X110098000Y-117626184D01*
X110156989Y-117922743D01*
X110272701Y-118202095D01*
X110440688Y-118453505D01*
X110654495Y-118667312D01*
X110905905Y-118835299D01*
X111185257Y-118951011D01*
X111481816Y-119010000D01*
X111784184Y-119010000D01*
X112080743Y-118951011D01*
X112360095Y-118835299D01*
X112611505Y-118667312D01*
X112825312Y-118453505D01*
X112903000Y-118337237D01*
X112980688Y-118453505D01*
X113194495Y-118667312D01*
X113445905Y-118835299D01*
X113725257Y-118951011D01*
X114021816Y-119010000D01*
X114324184Y-119010000D01*
X114581930Y-118958731D01*
X117419200Y-121796002D01*
X117442999Y-121825001D01*
X117558724Y-121919974D01*
X117690753Y-121990546D01*
X117834014Y-122034003D01*
X117945667Y-122045000D01*
X117945675Y-122045000D01*
X117983000Y-122048676D01*
X118020325Y-122045000D01*
X126289957Y-122045000D01*
X126393363Y-122199759D01*
X126593241Y-122399637D01*
X126616218Y-122414990D01*
X126010080Y-122414990D01*
X125972757Y-122411314D01*
X125935435Y-122414990D01*
X125935425Y-122414990D01*
X125823772Y-122425987D01*
X125810543Y-122430000D01*
X124370323Y-122430000D01*
X124333000Y-122426324D01*
X124295677Y-122430000D01*
X124295667Y-122430000D01*
X124184014Y-122440997D01*
X124040753Y-122484454D01*
X123908724Y-122555026D01*
X123792999Y-122649999D01*
X123769201Y-122678997D01*
X121917003Y-124531196D01*
X121887999Y-124554999D01*
X121832871Y-124622174D01*
X121793026Y-124670724D01*
X121790888Y-124674724D01*
X121722454Y-124802754D01*
X121690694Y-124907454D01*
X121591395Y-124960531D01*
X121363203Y-125147803D01*
X121175931Y-125375994D01*
X121158000Y-125409541D01*
X121140069Y-125375994D01*
X120952797Y-125147803D01*
X120724606Y-124960531D01*
X120464264Y-124821375D01*
X120181777Y-124735684D01*
X119888000Y-124706749D01*
X119594224Y-124735684D01*
X119311737Y-124821375D01*
X119051395Y-124960531D01*
X118823203Y-125147803D01*
X118635931Y-125375994D01*
X118618000Y-125409541D01*
X118600069Y-125375994D01*
X118412797Y-125147803D01*
X118184606Y-124960531D01*
X117924264Y-124821375D01*
X117641777Y-124735684D01*
X117348000Y-124706749D01*
X117054224Y-124735684D01*
X116771737Y-124821375D01*
X116511395Y-124960531D01*
X116283203Y-125147803D01*
X116095931Y-125375994D01*
X115956775Y-125636336D01*
X115871084Y-125918823D01*
X115849400Y-126138981D01*
X115849400Y-126591018D01*
X115871084Y-126811176D01*
X115956775Y-127093663D01*
X116095931Y-127354005D01*
X116283203Y-127582197D01*
X116511394Y-127769469D01*
X116771736Y-127908625D01*
X117054223Y-127994316D01*
X117348000Y-128023251D01*
X117641776Y-127994316D01*
X117924263Y-127908625D01*
X118184605Y-127769469D01*
X118412797Y-127582197D01*
X118600069Y-127354006D01*
X118618000Y-127320459D01*
X118635931Y-127354005D01*
X118823203Y-127582197D01*
X119051394Y-127769469D01*
X119311736Y-127908625D01*
X119594223Y-127994316D01*
X119888000Y-128023251D01*
X120181776Y-127994316D01*
X120464263Y-127908625D01*
X120724605Y-127769469D01*
X120952797Y-127582197D01*
X121140069Y-127354006D01*
X121158000Y-127320459D01*
X121175931Y-127354005D01*
X121363203Y-127582197D01*
X121591394Y-127769469D01*
X121851736Y-127908625D01*
X122134223Y-127994316D01*
X122428000Y-128023251D01*
X122721776Y-127994316D01*
X123004263Y-127908625D01*
X123264605Y-127769469D01*
X123492797Y-127582197D01*
X123680069Y-127354006D01*
X123698000Y-127320459D01*
X123715931Y-127354005D01*
X123903203Y-127582197D01*
X124131394Y-127769469D01*
X124391736Y-127908625D01*
X124674223Y-127994316D01*
X124968000Y-128023251D01*
X125261776Y-127994316D01*
X125544263Y-127908625D01*
X125804605Y-127769469D01*
X126032797Y-127582197D01*
X126220069Y-127354006D01*
X126238000Y-127320459D01*
X126255931Y-127354005D01*
X126443203Y-127582197D01*
X126671394Y-127769469D01*
X126931736Y-127908625D01*
X127214223Y-127994316D01*
X127508000Y-128023251D01*
X127801776Y-127994316D01*
X128084263Y-127908625D01*
X128344605Y-127769469D01*
X128572797Y-127582197D01*
X128760069Y-127354006D01*
X128778000Y-127320459D01*
X128795931Y-127354005D01*
X128983203Y-127582197D01*
X129211394Y-127769469D01*
X129471736Y-127908625D01*
X129754223Y-127994316D01*
X130048000Y-128023251D01*
X130341776Y-127994316D01*
X130624263Y-127908625D01*
X130884605Y-127769469D01*
X131112797Y-127582197D01*
X131300069Y-127354006D01*
X131318000Y-127320459D01*
X131335931Y-127354005D01*
X131523203Y-127582197D01*
X131751394Y-127769469D01*
X132011736Y-127908625D01*
X132294223Y-127994316D01*
X132588000Y-128023251D01*
X132881776Y-127994316D01*
X133164263Y-127908625D01*
X133424605Y-127769469D01*
X133652797Y-127582197D01*
X133840069Y-127354006D01*
X133858000Y-127320459D01*
X133875931Y-127354005D01*
X134063203Y-127582197D01*
X134291394Y-127769469D01*
X134551736Y-127908625D01*
X134834223Y-127994316D01*
X135128000Y-128023251D01*
X135421776Y-127994316D01*
X135704263Y-127908625D01*
X135964605Y-127769469D01*
X136192797Y-127582197D01*
X136380069Y-127354006D01*
X136519225Y-127093664D01*
X136604916Y-126811177D01*
X136626600Y-126591019D01*
X136626600Y-126138982D01*
X136626600Y-126138981D01*
X137693400Y-126138981D01*
X137693400Y-126591018D01*
X137715084Y-126811176D01*
X137800775Y-127093663D01*
X137939931Y-127354005D01*
X138127203Y-127582197D01*
X138355394Y-127769469D01*
X138615736Y-127908625D01*
X138898223Y-127994316D01*
X139192000Y-128023251D01*
X139485776Y-127994316D01*
X139768263Y-127908625D01*
X140028605Y-127769469D01*
X140256797Y-127582197D01*
X140444069Y-127354006D01*
X140462000Y-127320459D01*
X140479931Y-127354005D01*
X140667203Y-127582197D01*
X140895394Y-127769469D01*
X141155736Y-127908625D01*
X141438223Y-127994316D01*
X141732000Y-128023251D01*
X142025776Y-127994316D01*
X142308263Y-127908625D01*
X142568605Y-127769469D01*
X142796797Y-127582197D01*
X142984069Y-127354006D01*
X143002000Y-127320459D01*
X143019931Y-127354005D01*
X143207203Y-127582197D01*
X143435394Y-127769469D01*
X143695736Y-127908625D01*
X143978223Y-127994316D01*
X144272000Y-128023251D01*
X144565776Y-127994316D01*
X144848263Y-127908625D01*
X145108605Y-127769469D01*
X145336797Y-127582197D01*
X145524069Y-127354006D01*
X145542000Y-127320459D01*
X145559931Y-127354005D01*
X145747203Y-127582197D01*
X145975394Y-127769469D01*
X146235736Y-127908625D01*
X146518223Y-127994316D01*
X146812000Y-128023251D01*
X147105776Y-127994316D01*
X147388263Y-127908625D01*
X147648605Y-127769469D01*
X147876797Y-127582197D01*
X148064069Y-127354006D01*
X148082000Y-127320459D01*
X148099931Y-127354005D01*
X148287203Y-127582197D01*
X148515394Y-127769469D01*
X148775736Y-127908625D01*
X149058223Y-127994316D01*
X149352000Y-128023251D01*
X149645776Y-127994316D01*
X149928263Y-127908625D01*
X150188605Y-127769469D01*
X150416797Y-127582197D01*
X150604069Y-127354006D01*
X150622000Y-127320459D01*
X150639931Y-127354005D01*
X150827203Y-127582197D01*
X151055394Y-127769469D01*
X151315736Y-127908625D01*
X151598223Y-127994316D01*
X151892000Y-128023251D01*
X152185776Y-127994316D01*
X152468263Y-127908625D01*
X152728605Y-127769469D01*
X152956797Y-127582197D01*
X153144069Y-127354006D01*
X153165424Y-127314053D01*
X153313514Y-127516729D01*
X153529965Y-127715733D01*
X153781081Y-127868686D01*
X154057211Y-127969709D01*
X154072974Y-127972358D01*
X154305000Y-127851217D01*
X154305000Y-126492000D01*
X154285000Y-126492000D01*
X154285000Y-126238000D01*
X154305000Y-126238000D01*
X154305000Y-124878783D01*
X154559000Y-124878783D01*
X154559000Y-126238000D01*
X154579000Y-126238000D01*
X154579000Y-126492000D01*
X154559000Y-126492000D01*
X154559000Y-127851217D01*
X154791026Y-127972358D01*
X154806789Y-127969709D01*
X155082919Y-127868686D01*
X155334035Y-127715733D01*
X155550486Y-127516729D01*
X155698576Y-127314053D01*
X155719931Y-127354005D01*
X155907203Y-127582197D01*
X156135394Y-127769469D01*
X156395736Y-127908625D01*
X156678223Y-127994316D01*
X156972000Y-128023251D01*
X157265776Y-127994316D01*
X157548263Y-127908625D01*
X157808605Y-127769469D01*
X158036797Y-127582197D01*
X158224069Y-127354006D01*
X158242000Y-127320459D01*
X158259931Y-127354005D01*
X158447203Y-127582197D01*
X158675394Y-127769469D01*
X158935736Y-127908625D01*
X159218223Y-127994316D01*
X159512000Y-128023251D01*
X159805776Y-127994316D01*
X160088263Y-127908625D01*
X160348605Y-127769469D01*
X160576797Y-127582197D01*
X160764069Y-127354006D01*
X160782000Y-127320459D01*
X160799931Y-127354005D01*
X160987203Y-127582197D01*
X161215394Y-127769469D01*
X161475736Y-127908625D01*
X161758223Y-127994316D01*
X162052000Y-128023251D01*
X162345776Y-127994316D01*
X162628263Y-127908625D01*
X162888605Y-127769469D01*
X163116797Y-127582197D01*
X163304069Y-127354006D01*
X163443225Y-127093664D01*
X163528916Y-126811177D01*
X163550600Y-126591019D01*
X163550600Y-126138982D01*
X163528916Y-125918824D01*
X163443225Y-125636337D01*
X163304069Y-125375994D01*
X163116797Y-125147803D01*
X162888606Y-124960531D01*
X162628264Y-124821375D01*
X162345777Y-124735684D01*
X162052000Y-124706749D01*
X161758224Y-124735684D01*
X161475737Y-124821375D01*
X161215395Y-124960531D01*
X160987203Y-125147803D01*
X160799931Y-125375994D01*
X160782000Y-125409541D01*
X160764069Y-125375994D01*
X160576797Y-125147803D01*
X160348606Y-124960531D01*
X160088264Y-124821375D01*
X159805777Y-124735684D01*
X159512000Y-124706749D01*
X159218224Y-124735684D01*
X158935737Y-124821375D01*
X158675395Y-124960531D01*
X158447203Y-125147803D01*
X158259931Y-125375994D01*
X158242000Y-125409541D01*
X158224069Y-125375994D01*
X158036797Y-125147803D01*
X157808606Y-124960531D01*
X157548264Y-124821375D01*
X157265777Y-124735684D01*
X156972000Y-124706749D01*
X156678224Y-124735684D01*
X156395737Y-124821375D01*
X156135395Y-124960531D01*
X155907203Y-125147803D01*
X155719931Y-125375994D01*
X155698576Y-125415947D01*
X155550486Y-125213271D01*
X155334035Y-125014267D01*
X155082919Y-124861314D01*
X154806789Y-124760291D01*
X154791026Y-124757642D01*
X154559000Y-124878783D01*
X154305000Y-124878783D01*
X154072974Y-124757642D01*
X154057211Y-124760291D01*
X153781081Y-124861314D01*
X153529965Y-125014267D01*
X153313514Y-125213271D01*
X153165424Y-125415947D01*
X153144069Y-125375994D01*
X152956797Y-125147803D01*
X152728606Y-124960531D01*
X152468264Y-124821375D01*
X152185777Y-124735684D01*
X151892000Y-124706749D01*
X151598224Y-124735684D01*
X151315737Y-124821375D01*
X151055395Y-124960531D01*
X150827203Y-125147803D01*
X150639931Y-125375994D01*
X150622000Y-125409541D01*
X150604069Y-125375994D01*
X150416797Y-125147803D01*
X150188606Y-124960531D01*
X149928264Y-124821375D01*
X149645777Y-124735684D01*
X149352000Y-124706749D01*
X149058224Y-124735684D01*
X148775737Y-124821375D01*
X148515395Y-124960531D01*
X148287203Y-125147803D01*
X148099931Y-125375994D01*
X148082000Y-125409541D01*
X148064069Y-125375994D01*
X147876797Y-125147803D01*
X147648606Y-124960531D01*
X147388264Y-124821375D01*
X147105777Y-124735684D01*
X146812000Y-124706749D01*
X146518224Y-124735684D01*
X146235737Y-124821375D01*
X145975395Y-124960531D01*
X145747203Y-125147803D01*
X145559931Y-125375994D01*
X145542000Y-125409541D01*
X145524069Y-125375994D01*
X145336797Y-125147803D01*
X145108606Y-124960531D01*
X144848264Y-124821375D01*
X144565777Y-124735684D01*
X144272000Y-124706749D01*
X143978224Y-124735684D01*
X143695737Y-124821375D01*
X143435395Y-124960531D01*
X143207203Y-125147803D01*
X143019931Y-125375994D01*
X143002000Y-125409541D01*
X142984069Y-125375994D01*
X142796797Y-125147803D01*
X142568606Y-124960531D01*
X142308264Y-124821375D01*
X142025777Y-124735684D01*
X141732000Y-124706749D01*
X141438224Y-124735684D01*
X141155737Y-124821375D01*
X140895395Y-124960531D01*
X140667203Y-125147803D01*
X140479931Y-125375994D01*
X140462000Y-125409541D01*
X140444069Y-125375994D01*
X140256797Y-125147803D01*
X140028606Y-124960531D01*
X139768264Y-124821375D01*
X139485777Y-124735684D01*
X139192000Y-124706749D01*
X138898224Y-124735684D01*
X138615737Y-124821375D01*
X138355395Y-124960531D01*
X138127203Y-125147803D01*
X137939931Y-125375994D01*
X137800775Y-125636336D01*
X137715084Y-125918823D01*
X137693400Y-126138981D01*
X136626600Y-126138981D01*
X136604916Y-125918824D01*
X136519225Y-125636337D01*
X136380069Y-125375994D01*
X136192797Y-125147803D01*
X135964606Y-124960531D01*
X135704264Y-124821375D01*
X135421777Y-124735684D01*
X135128000Y-124706749D01*
X134834224Y-124735684D01*
X134551737Y-124821375D01*
X134291395Y-124960531D01*
X134063203Y-125147803D01*
X133875931Y-125375994D01*
X133858000Y-125409541D01*
X133840069Y-125375994D01*
X133652797Y-125147803D01*
X133424606Y-124960531D01*
X133164264Y-124821375D01*
X132881777Y-124735684D01*
X132588000Y-124706749D01*
X132294224Y-124735684D01*
X132011737Y-124821375D01*
X131751395Y-124960531D01*
X131523203Y-125147803D01*
X131335931Y-125375994D01*
X131318000Y-125409541D01*
X131300069Y-125375994D01*
X131112797Y-125147803D01*
X130884606Y-124960531D01*
X130624264Y-124821375D01*
X130341777Y-124735684D01*
X130048000Y-124706749D01*
X129754224Y-124735684D01*
X129471737Y-124821375D01*
X129211395Y-124960531D01*
X128983203Y-125147803D01*
X128795931Y-125375994D01*
X128778000Y-125409541D01*
X128760069Y-125375994D01*
X128572797Y-125147803D01*
X128344606Y-124960531D01*
X128084264Y-124821375D01*
X127801777Y-124735684D01*
X127508000Y-124706749D01*
X127214224Y-124735684D01*
X126931737Y-124821375D01*
X126671395Y-124960531D01*
X126443203Y-125147803D01*
X126255931Y-125375994D01*
X126238000Y-125409541D01*
X126220069Y-125375994D01*
X126032797Y-125147803D01*
X126011487Y-125130314D01*
X126556802Y-124585000D01*
X170650678Y-124585000D01*
X170688000Y-124588676D01*
X170725322Y-124585000D01*
X170725333Y-124585000D01*
X170836986Y-124574003D01*
X170980247Y-124530546D01*
X171112276Y-124459974D01*
X171228001Y-124365001D01*
X171251804Y-124335997D01*
X173739009Y-121848794D01*
X173768001Y-121825001D01*
X173791795Y-121796008D01*
X173791799Y-121796004D01*
X173862973Y-121709277D01*
X173862974Y-121709276D01*
X173933546Y-121577247D01*
X173977003Y-121433986D01*
X173988000Y-121322333D01*
X173988000Y-121322324D01*
X173991676Y-121285001D01*
X173988000Y-121247678D01*
X173988000Y-118603665D01*
X174333000Y-118603665D01*
X174333000Y-118886335D01*
X174388147Y-119163574D01*
X174496320Y-119424727D01*
X174653363Y-119659759D01*
X174853241Y-119859637D01*
X175088273Y-120016680D01*
X175349426Y-120124853D01*
X175626665Y-120180000D01*
X175909335Y-120180000D01*
X176186574Y-120124853D01*
X176447727Y-120016680D01*
X176682759Y-119859637D01*
X176882637Y-119659759D01*
X177039680Y-119424727D01*
X177147853Y-119163574D01*
X177203000Y-118886335D01*
X177203000Y-118603665D01*
X177147853Y-118326426D01*
X177039680Y-118065273D01*
X176882637Y-117830241D01*
X176682759Y-117630363D01*
X176447727Y-117473320D01*
X176186574Y-117365147D01*
X175909335Y-117310000D01*
X175626665Y-117310000D01*
X175349426Y-117365147D01*
X175088273Y-117473320D01*
X174853241Y-117630363D01*
X174653363Y-117830241D01*
X174496320Y-118065273D01*
X174388147Y-118326426D01*
X174333000Y-118603665D01*
X173988000Y-118603665D01*
X173988000Y-113979801D01*
X175444114Y-112523688D01*
X175626665Y-112560000D01*
X175909335Y-112560000D01*
X176186574Y-112504853D01*
X176447727Y-112396680D01*
X176682759Y-112239637D01*
X176882637Y-112039759D01*
X177039680Y-111804727D01*
X177147853Y-111543574D01*
X177203000Y-111266335D01*
X177203000Y-110983665D01*
X177147853Y-110706426D01*
X177039680Y-110445273D01*
X176882637Y-110210241D01*
X176682759Y-110010363D01*
X176447727Y-109853320D01*
X176186574Y-109745147D01*
X175909335Y-109690000D01*
X175626665Y-109690000D01*
X175349426Y-109745147D01*
X175088273Y-109853320D01*
X174853241Y-110010363D01*
X174653363Y-110210241D01*
X174496320Y-110445273D01*
X174388147Y-110706426D01*
X174333000Y-110983665D01*
X174333000Y-111266335D01*
X174369312Y-111448886D01*
X172716998Y-113101201D01*
X172688000Y-113124999D01*
X172664202Y-113153997D01*
X172664201Y-113153998D01*
X172593026Y-113240724D01*
X172522454Y-113372754D01*
X172478998Y-113516015D01*
X172464324Y-113665000D01*
X172468001Y-113702332D01*
X172468000Y-120970197D01*
X170373199Y-123065000D01*
X166172801Y-123065000D01*
X167441799Y-121796003D01*
X167441803Y-121795998D01*
X168659003Y-120578799D01*
X168688001Y-120555001D01*
X168782974Y-120439276D01*
X168853546Y-120307247D01*
X168897003Y-120163986D01*
X168908000Y-120052333D01*
X168908000Y-120052324D01*
X168911676Y-120015001D01*
X168908000Y-119977678D01*
X168908000Y-118603665D01*
X169253000Y-118603665D01*
X169253000Y-118886335D01*
X169308147Y-119163574D01*
X169416320Y-119424727D01*
X169573363Y-119659759D01*
X169773241Y-119859637D01*
X170008273Y-120016680D01*
X170269426Y-120124853D01*
X170546665Y-120180000D01*
X170829335Y-120180000D01*
X171106574Y-120124853D01*
X171367727Y-120016680D01*
X171602759Y-119859637D01*
X171802637Y-119659759D01*
X171959680Y-119424727D01*
X172067853Y-119163574D01*
X172123000Y-118886335D01*
X172123000Y-118603665D01*
X172067853Y-118326426D01*
X171959680Y-118065273D01*
X171802637Y-117830241D01*
X171602759Y-117630363D01*
X171367727Y-117473320D01*
X171106574Y-117365147D01*
X170829335Y-117310000D01*
X170546665Y-117310000D01*
X170269426Y-117365147D01*
X170008273Y-117473320D01*
X169773241Y-117630363D01*
X169573363Y-117830241D01*
X169416320Y-118065273D01*
X169308147Y-118326426D01*
X169253000Y-118603665D01*
X168908000Y-118603665D01*
X168908000Y-112709801D01*
X169575703Y-112042099D01*
X169773241Y-112239637D01*
X170008273Y-112396680D01*
X170269426Y-112504853D01*
X170546665Y-112560000D01*
X170829335Y-112560000D01*
X171106574Y-112504853D01*
X171367727Y-112396680D01*
X171602759Y-112239637D01*
X171802637Y-112039759D01*
X171959680Y-111804727D01*
X172067853Y-111543574D01*
X172123000Y-111266335D01*
X172123000Y-110983665D01*
X172067853Y-110706426D01*
X171959680Y-110445273D01*
X171802637Y-110210241D01*
X171602759Y-110010363D01*
X171367727Y-109853320D01*
X171106574Y-109745147D01*
X170829335Y-109690000D01*
X170546665Y-109690000D01*
X170269426Y-109745147D01*
X170008273Y-109853320D01*
X169773241Y-110010363D01*
X169573363Y-110210241D01*
X169469957Y-110365000D01*
X169455322Y-110365000D01*
X169417999Y-110361324D01*
X169380676Y-110365000D01*
X169380667Y-110365000D01*
X169269014Y-110375997D01*
X169125753Y-110419454D01*
X168993724Y-110490026D01*
X168877999Y-110584999D01*
X168854201Y-110613997D01*
X167637003Y-111831196D01*
X167607999Y-111854999D01*
X167552871Y-111922174D01*
X167513026Y-111970724D01*
X167476126Y-112039759D01*
X167442454Y-112102754D01*
X167398997Y-112246015D01*
X167388000Y-112357668D01*
X167388000Y-112357678D01*
X167384324Y-112395000D01*
X167388000Y-112432322D01*
X167388001Y-119700197D01*
X166367002Y-120721197D01*
X166366997Y-120721201D01*
X165097002Y-121991197D01*
X165096997Y-121991201D01*
X164673209Y-122414990D01*
X144597811Y-122414990D01*
X146232730Y-120780072D01*
X147320000Y-120780072D01*
X147444482Y-120767812D01*
X147564180Y-120731502D01*
X147674494Y-120672537D01*
X147771185Y-120593185D01*
X147850537Y-120496494D01*
X147909502Y-120386180D01*
X147945812Y-120266482D01*
X147958072Y-120142000D01*
X147958072Y-118618000D01*
X147945812Y-118493518D01*
X147909502Y-118373820D01*
X147850537Y-118263506D01*
X147771185Y-118166815D01*
X147674494Y-118087463D01*
X147577850Y-118035805D01*
X147643120Y-117970535D01*
X147796005Y-117741727D01*
X147901314Y-117487490D01*
X147955000Y-117217592D01*
X147955000Y-116942408D01*
X147901314Y-116672510D01*
X147796005Y-116418273D01*
X147643120Y-116189465D01*
X147448535Y-115994880D01*
X147301766Y-115896812D01*
X147343960Y-115745565D01*
X146558000Y-114959605D01*
X145772040Y-115745565D01*
X145814234Y-115896812D01*
X145667465Y-115994880D01*
X145472880Y-116189465D01*
X145319995Y-116418273D01*
X145214686Y-116672510D01*
X145161000Y-116942408D01*
X145161000Y-117217592D01*
X145214686Y-117487490D01*
X145319995Y-117741727D01*
X145472880Y-117970535D01*
X145538150Y-118035805D01*
X145441506Y-118087463D01*
X145344815Y-118166815D01*
X145265463Y-118263506D01*
X145206498Y-118373820D01*
X145170188Y-118493518D01*
X145157928Y-118618000D01*
X145157928Y-119705270D01*
X143098219Y-121764980D01*
X134142782Y-121764980D01*
X133986688Y-121608886D01*
X134023000Y-121426335D01*
X134023000Y-121143665D01*
X133967853Y-120866426D01*
X133859680Y-120605273D01*
X133702637Y-120370241D01*
X133502759Y-120170363D01*
X133267727Y-120013320D01*
X133006574Y-119905147D01*
X132947333Y-119893363D01*
X137703000Y-119893363D01*
X137703000Y-120136637D01*
X137750460Y-120375236D01*
X137843557Y-120599992D01*
X137978713Y-120802267D01*
X138150733Y-120974287D01*
X138353008Y-121109443D01*
X138577764Y-121202540D01*
X138816363Y-121250000D01*
X139059637Y-121250000D01*
X139298236Y-121202540D01*
X139522992Y-121109443D01*
X139725267Y-120974287D01*
X139897287Y-120802267D01*
X140032443Y-120599992D01*
X140125540Y-120375236D01*
X140173000Y-120136637D01*
X140173000Y-119893363D01*
X140125540Y-119654764D01*
X140032443Y-119430008D01*
X139897287Y-119227733D01*
X139725267Y-119055713D01*
X139522992Y-118920557D01*
X139298236Y-118827460D01*
X139059637Y-118780000D01*
X138816363Y-118780000D01*
X138577764Y-118827460D01*
X138353008Y-118920557D01*
X138150733Y-119055713D01*
X137978713Y-119227733D01*
X137843557Y-119430008D01*
X137750460Y-119654764D01*
X137703000Y-119893363D01*
X132947333Y-119893363D01*
X132729335Y-119850000D01*
X132446665Y-119850000D01*
X132169426Y-119905147D01*
X131908273Y-120013320D01*
X131673241Y-120170363D01*
X131473363Y-120370241D01*
X131316320Y-120605273D01*
X131208147Y-120866426D01*
X131153000Y-121143665D01*
X131153000Y-121426335D01*
X131208147Y-121703574D01*
X131316320Y-121964727D01*
X131473363Y-122199759D01*
X131673241Y-122399637D01*
X131696218Y-122414990D01*
X128399782Y-122414990D01*
X128422759Y-122399637D01*
X128622637Y-122199759D01*
X128779680Y-121964727D01*
X128887853Y-121703574D01*
X128943000Y-121426335D01*
X128943000Y-121143665D01*
X128887853Y-120866426D01*
X128779680Y-120605273D01*
X128622637Y-120370241D01*
X128422759Y-120170363D01*
X128187727Y-120013320D01*
X127926574Y-119905147D01*
X127649335Y-119850000D01*
X127366665Y-119850000D01*
X127089426Y-119905147D01*
X126828273Y-120013320D01*
X126593241Y-120170363D01*
X126393363Y-120370241D01*
X126289957Y-120525000D01*
X118297802Y-120525000D01*
X116782802Y-119010000D01*
X116864184Y-119010000D01*
X117160743Y-118951011D01*
X117440095Y-118835299D01*
X117691505Y-118667312D01*
X117905312Y-118453505D01*
X117983000Y-118337237D01*
X118060688Y-118453505D01*
X118274495Y-118667312D01*
X118525905Y-118835299D01*
X118805257Y-118951011D01*
X119101816Y-119010000D01*
X119404184Y-119010000D01*
X119700743Y-118951011D01*
X119980095Y-118835299D01*
X120231505Y-118667312D01*
X120445312Y-118453505D01*
X120523000Y-118337237D01*
X120600688Y-118453505D01*
X120814495Y-118667312D01*
X121065905Y-118835299D01*
X121345257Y-118951011D01*
X121641816Y-119010000D01*
X121944184Y-119010000D01*
X122240743Y-118951011D01*
X122520095Y-118835299D01*
X122771505Y-118667312D01*
X122985312Y-118453505D01*
X123071334Y-118324764D01*
X138267841Y-118324764D01*
X138315148Y-118548348D01*
X138536516Y-118649237D01*
X138773313Y-118705000D01*
X139016438Y-118713495D01*
X139256549Y-118674395D01*
X139484418Y-118589202D01*
X139560852Y-118548348D01*
X139608159Y-118324764D01*
X138938000Y-117654605D01*
X138267841Y-118324764D01*
X123071334Y-118324764D01*
X123153299Y-118202095D01*
X123269011Y-117922743D01*
X123328000Y-117626184D01*
X123328000Y-117553438D01*
X137699505Y-117553438D01*
X137738605Y-117793549D01*
X137823798Y-118021418D01*
X137864652Y-118097852D01*
X138088236Y-118145159D01*
X138758395Y-117475000D01*
X139117605Y-117475000D01*
X139787764Y-118145159D01*
X140011348Y-118097852D01*
X140112237Y-117876484D01*
X140168000Y-117639687D01*
X140176495Y-117396562D01*
X140137395Y-117156451D01*
X140052202Y-116928582D01*
X140011348Y-116852148D01*
X139787764Y-116804841D01*
X139117605Y-117475000D01*
X138758395Y-117475000D01*
X138088236Y-116804841D01*
X137864652Y-116852148D01*
X137763763Y-117073516D01*
X137708000Y-117310313D01*
X137699505Y-117553438D01*
X123328000Y-117553438D01*
X123328000Y-117323816D01*
X123269011Y-117027257D01*
X123153299Y-116747905D01*
X123071335Y-116625236D01*
X138267841Y-116625236D01*
X138938000Y-117295395D01*
X139608159Y-116625236D01*
X139560852Y-116401652D01*
X139339484Y-116300763D01*
X139102687Y-116245000D01*
X138859562Y-116236505D01*
X138619451Y-116275605D01*
X138391582Y-116360798D01*
X138315148Y-116401652D01*
X138267841Y-116625236D01*
X123071335Y-116625236D01*
X122985312Y-116496495D01*
X122771505Y-116282688D01*
X122520095Y-116114701D01*
X122240743Y-115998989D01*
X121944184Y-115940000D01*
X121641816Y-115940000D01*
X121345257Y-115998989D01*
X121065905Y-116114701D01*
X120814495Y-116282688D01*
X120600688Y-116496495D01*
X120523000Y-116612763D01*
X120445312Y-116496495D01*
X120231505Y-116282688D01*
X119980095Y-116114701D01*
X119700743Y-115998989D01*
X119404184Y-115940000D01*
X119101816Y-115940000D01*
X118805257Y-115998989D01*
X118525905Y-116114701D01*
X118274495Y-116282688D01*
X118060688Y-116496495D01*
X117983000Y-116612763D01*
X117905312Y-116496495D01*
X117691505Y-116282688D01*
X117473000Y-116136687D01*
X117473000Y-114014040D01*
X126116091Y-114014040D01*
X126210930Y-114278881D01*
X126355615Y-114520131D01*
X126544586Y-114728519D01*
X126770580Y-114896037D01*
X127024913Y-115016246D01*
X127158961Y-115056904D01*
X127381000Y-114934915D01*
X127381000Y-113792000D01*
X127635000Y-113792000D01*
X127635000Y-114934915D01*
X127857039Y-115056904D01*
X127991087Y-115016246D01*
X128245420Y-114896037D01*
X128471414Y-114728519D01*
X128535632Y-114657702D01*
X131774903Y-114657702D01*
X131846486Y-114901671D01*
X132101996Y-115022571D01*
X132376184Y-115091300D01*
X132658512Y-115105217D01*
X132938130Y-115063787D01*
X133204292Y-114968603D01*
X133329514Y-114901671D01*
X133355424Y-114813363D01*
X137703000Y-114813363D01*
X137703000Y-115056637D01*
X137750460Y-115295236D01*
X137843557Y-115519992D01*
X137978713Y-115722267D01*
X138150733Y-115894287D01*
X138353008Y-116029443D01*
X138577764Y-116122540D01*
X138816363Y-116170000D01*
X139059637Y-116170000D01*
X139298236Y-116122540D01*
X139522992Y-116029443D01*
X139725267Y-115894287D01*
X139897287Y-115722267D01*
X140032443Y-115519992D01*
X140125540Y-115295236D01*
X140173000Y-115056637D01*
X140173000Y-114852017D01*
X145156090Y-114852017D01*
X145197078Y-115124133D01*
X145290364Y-115383023D01*
X145352344Y-115498980D01*
X145592435Y-115565960D01*
X146378395Y-114780000D01*
X146737605Y-114780000D01*
X147523565Y-115565960D01*
X147763656Y-115498980D01*
X147796720Y-115428665D01*
X154013000Y-115428665D01*
X154013000Y-115711335D01*
X154068147Y-115988574D01*
X154176320Y-116249727D01*
X154333363Y-116484759D01*
X154533241Y-116684637D01*
X154765759Y-116840000D01*
X154533241Y-116995363D01*
X154333363Y-117195241D01*
X154176320Y-117430273D01*
X154068147Y-117691426D01*
X154013000Y-117968665D01*
X154013000Y-118251335D01*
X154068147Y-118528574D01*
X154176320Y-118789727D01*
X154333363Y-119024759D01*
X154533241Y-119224637D01*
X154768273Y-119381680D01*
X155029426Y-119489853D01*
X155306665Y-119545000D01*
X155589335Y-119545000D01*
X155866574Y-119489853D01*
X156127727Y-119381680D01*
X156362759Y-119224637D01*
X156562637Y-119024759D01*
X156719680Y-118789727D01*
X156796749Y-118603665D01*
X164173000Y-118603665D01*
X164173000Y-118886335D01*
X164228147Y-119163574D01*
X164336320Y-119424727D01*
X164493363Y-119659759D01*
X164693241Y-119859637D01*
X164928273Y-120016680D01*
X165189426Y-120124853D01*
X165466665Y-120180000D01*
X165749335Y-120180000D01*
X166026574Y-120124853D01*
X166287727Y-120016680D01*
X166522759Y-119859637D01*
X166722637Y-119659759D01*
X166879680Y-119424727D01*
X166987853Y-119163574D01*
X167043000Y-118886335D01*
X167043000Y-118603665D01*
X166987853Y-118326426D01*
X166879680Y-118065273D01*
X166722637Y-117830241D01*
X166522759Y-117630363D01*
X166287727Y-117473320D01*
X166026574Y-117365147D01*
X165749335Y-117310000D01*
X165466665Y-117310000D01*
X165189426Y-117365147D01*
X164928273Y-117473320D01*
X164693241Y-117630363D01*
X164493363Y-117830241D01*
X164336320Y-118065273D01*
X164228147Y-118326426D01*
X164173000Y-118603665D01*
X156796749Y-118603665D01*
X156827853Y-118528574D01*
X156883000Y-118251335D01*
X156883000Y-117968665D01*
X156827853Y-117691426D01*
X156719680Y-117430273D01*
X156562637Y-117195241D01*
X156362759Y-116995363D01*
X156130241Y-116840000D01*
X156362759Y-116684637D01*
X156562637Y-116484759D01*
X156719680Y-116249727D01*
X156827853Y-115988574D01*
X156883000Y-115711335D01*
X156883000Y-115428665D01*
X156827853Y-115151426D01*
X156719680Y-114890273D01*
X156562637Y-114655241D01*
X156362759Y-114455363D01*
X156127727Y-114298320D01*
X155866574Y-114190147D01*
X155589335Y-114135000D01*
X155306665Y-114135000D01*
X155029426Y-114190147D01*
X154768273Y-114298320D01*
X154533241Y-114455363D01*
X154333363Y-114655241D01*
X154176320Y-114890273D01*
X154068147Y-115151426D01*
X154013000Y-115428665D01*
X147796720Y-115428665D01*
X147880756Y-115249952D01*
X147947023Y-114982865D01*
X147959910Y-114707983D01*
X147918922Y-114435867D01*
X147825636Y-114176977D01*
X147763656Y-114061020D01*
X147523565Y-113994040D01*
X146737605Y-114780000D01*
X146378395Y-114780000D01*
X145592435Y-113994040D01*
X145352344Y-114061020D01*
X145235244Y-114310048D01*
X145168977Y-114577135D01*
X145156090Y-114852017D01*
X140173000Y-114852017D01*
X140173000Y-114813363D01*
X140125540Y-114574764D01*
X140032443Y-114350008D01*
X139897287Y-114147733D01*
X139725267Y-113975713D01*
X139522992Y-113840557D01*
X139459928Y-113814435D01*
X145772040Y-113814435D01*
X146558000Y-114600395D01*
X147343960Y-113814435D01*
X147276980Y-113574344D01*
X147027952Y-113457244D01*
X146760865Y-113390977D01*
X146485983Y-113378090D01*
X146213867Y-113419078D01*
X145954977Y-113512364D01*
X145839020Y-113574344D01*
X145772040Y-113814435D01*
X139459928Y-113814435D01*
X139298236Y-113747460D01*
X139059637Y-113700000D01*
X138816363Y-113700000D01*
X138577764Y-113747460D01*
X138353008Y-113840557D01*
X138150733Y-113975713D01*
X137978713Y-114147733D01*
X137843557Y-114350008D01*
X137750460Y-114574764D01*
X137703000Y-114813363D01*
X133355424Y-114813363D01*
X133401097Y-114657702D01*
X132588000Y-113844605D01*
X131774903Y-114657702D01*
X128535632Y-114657702D01*
X128660385Y-114520131D01*
X128805070Y-114278881D01*
X128899909Y-114014040D01*
X128778624Y-113792000D01*
X127635000Y-113792000D01*
X127381000Y-113792000D01*
X126237376Y-113792000D01*
X126116091Y-114014040D01*
X117473000Y-114014040D01*
X117473000Y-113735512D01*
X131147783Y-113735512D01*
X131189213Y-114015130D01*
X131284397Y-114281292D01*
X131351329Y-114406514D01*
X131595298Y-114478097D01*
X132408395Y-113665000D01*
X132767605Y-113665000D01*
X133580702Y-114478097D01*
X133824671Y-114406514D01*
X133945571Y-114151004D01*
X134014300Y-113876816D01*
X134028217Y-113594488D01*
X133986787Y-113314870D01*
X133891603Y-113048708D01*
X133824671Y-112923486D01*
X133580702Y-112851903D01*
X132767605Y-113665000D01*
X132408395Y-113665000D01*
X131595298Y-112851903D01*
X131351329Y-112923486D01*
X131230429Y-113178996D01*
X131161700Y-113453184D01*
X131147783Y-113735512D01*
X117473000Y-113735512D01*
X117473000Y-113315960D01*
X126116091Y-113315960D01*
X126237376Y-113538000D01*
X127381000Y-113538000D01*
X127381000Y-112395085D01*
X127635000Y-112395085D01*
X127635000Y-113538000D01*
X128778624Y-113538000D01*
X128899909Y-113315960D01*
X128805070Y-113051119D01*
X128660385Y-112809869D01*
X128535633Y-112672298D01*
X131774903Y-112672298D01*
X132588000Y-113485395D01*
X133401097Y-112672298D01*
X133329514Y-112428329D01*
X133074004Y-112307429D01*
X132799816Y-112238700D01*
X132517488Y-112224783D01*
X132237870Y-112266213D01*
X131971708Y-112361397D01*
X131846486Y-112428329D01*
X131774903Y-112672298D01*
X128535633Y-112672298D01*
X128471414Y-112601481D01*
X128245420Y-112433963D01*
X127991087Y-112313754D01*
X127857039Y-112273096D01*
X127635000Y-112395085D01*
X127381000Y-112395085D01*
X127158961Y-112273096D01*
X127024913Y-112313754D01*
X126770580Y-112433963D01*
X126544586Y-112601481D01*
X126355615Y-112809869D01*
X126210930Y-113051119D01*
X126116091Y-113315960D01*
X117473000Y-113315960D01*
X117473000Y-110983665D01*
X164173000Y-110983665D01*
X164173000Y-111266335D01*
X164228147Y-111543574D01*
X164336320Y-111804727D01*
X164493363Y-112039759D01*
X164693241Y-112239637D01*
X164928273Y-112396680D01*
X165189426Y-112504853D01*
X165466665Y-112560000D01*
X165749335Y-112560000D01*
X166026574Y-112504853D01*
X166287727Y-112396680D01*
X166522759Y-112239637D01*
X166722637Y-112039759D01*
X166879680Y-111804727D01*
X166987853Y-111543574D01*
X167043000Y-111266335D01*
X167043000Y-110983665D01*
X166987853Y-110706426D01*
X166879680Y-110445273D01*
X166722637Y-110210241D01*
X166522759Y-110010363D01*
X166287727Y-109853320D01*
X166026574Y-109745147D01*
X165749335Y-109690000D01*
X165466665Y-109690000D01*
X165189426Y-109745147D01*
X164928273Y-109853320D01*
X164693241Y-110010363D01*
X164493363Y-110210241D01*
X164336320Y-110445273D01*
X164228147Y-110706426D01*
X164173000Y-110983665D01*
X117473000Y-110983665D01*
X117473000Y-110804801D01*
X129092802Y-99185000D01*
X134813199Y-99185000D01*
X144364847Y-108736649D01*
X144388932Y-108857729D01*
X144459414Y-109027889D01*
X144561738Y-109181028D01*
X144691972Y-109311262D01*
X144845111Y-109413586D01*
X145015271Y-109484068D01*
X145195911Y-109520000D01*
X145380089Y-109520000D01*
X145560729Y-109484068D01*
X145730889Y-109413586D01*
X145884028Y-109311262D01*
X146014262Y-109181028D01*
X146116586Y-109027889D01*
X146187068Y-108857729D01*
X146223000Y-108677089D01*
X146223000Y-108492911D01*
X146187068Y-108312271D01*
X146116586Y-108142111D01*
X146014262Y-107988972D01*
X145884028Y-107858738D01*
X145730889Y-107756414D01*
X145560729Y-107685932D01*
X145439649Y-107661847D01*
X137832372Y-100054570D01*
X166123000Y-100054570D01*
X166123000Y-100455430D01*
X166201204Y-100848587D01*
X166354607Y-101218934D01*
X166577313Y-101552237D01*
X166860763Y-101835687D01*
X167194066Y-102058393D01*
X167564413Y-102211796D01*
X167957570Y-102290000D01*
X168358430Y-102290000D01*
X168751587Y-102211796D01*
X169121934Y-102058393D01*
X169455237Y-101835687D01*
X169738687Y-101552237D01*
X169961393Y-101218934D01*
X170114796Y-100848587D01*
X170193000Y-100455430D01*
X170193000Y-100054570D01*
X170114796Y-99661413D01*
X169961393Y-99291066D01*
X169738687Y-98957763D01*
X169455237Y-98674313D01*
X169121934Y-98451607D01*
X168751587Y-98298204D01*
X168358430Y-98220000D01*
X167957570Y-98220000D01*
X167564413Y-98298204D01*
X167194066Y-98451607D01*
X166860763Y-98674313D01*
X166577313Y-98957763D01*
X166354607Y-99291066D01*
X166201204Y-99661413D01*
X166123000Y-100054570D01*
X137832372Y-100054570D01*
X135691804Y-97914003D01*
X135668001Y-97884999D01*
X135552276Y-97790026D01*
X135420247Y-97719454D01*
X135276986Y-97675997D01*
X135165333Y-97665000D01*
X135165322Y-97665000D01*
X135128000Y-97661324D01*
X135090678Y-97665000D01*
X128815325Y-97665000D01*
X128778000Y-97661324D01*
X128740675Y-97665000D01*
X100740341Y-97665000D01*
X100653120Y-97534465D01*
X100458535Y-97339880D01*
X100229727Y-97186995D01*
X100152485Y-97155000D01*
X100229727Y-97123005D01*
X100458535Y-96970120D01*
X100653120Y-96775535D01*
X100806005Y-96546727D01*
X100911314Y-96292490D01*
X100965000Y-96022592D01*
X100965000Y-95747408D01*
X100911314Y-95477510D01*
X100806005Y-95223273D01*
X100653120Y-94994465D01*
X100458535Y-94799880D01*
X100335388Y-94717595D01*
X174016282Y-94717595D01*
X174060039Y-95036675D01*
X174165205Y-95341088D01*
X174258186Y-95515044D01*
X174407223Y-95569024D01*
X174303506Y-95624463D01*
X174206815Y-95703815D01*
X174127463Y-95800506D01*
X174068498Y-95910820D01*
X174032188Y-96030518D01*
X174019928Y-96155000D01*
X174019928Y-98155000D01*
X174032188Y-98279482D01*
X174068498Y-98399180D01*
X174127463Y-98509494D01*
X174206815Y-98606185D01*
X174303506Y-98685537D01*
X174413820Y-98744502D01*
X174533518Y-98780812D01*
X174658000Y-98793072D01*
X176658000Y-98793072D01*
X176782482Y-98780812D01*
X176902180Y-98744502D01*
X177012494Y-98685537D01*
X177109185Y-98606185D01*
X177188537Y-98509494D01*
X177247502Y-98399180D01*
X177283812Y-98279482D01*
X177296072Y-98155000D01*
X177296072Y-96155000D01*
X177283812Y-96030518D01*
X177247502Y-95910820D01*
X177188537Y-95800506D01*
X177109185Y-95703815D01*
X177012494Y-95624463D01*
X176908777Y-95569024D01*
X177057814Y-95515044D01*
X177198704Y-95225429D01*
X177280384Y-94913892D01*
X177299718Y-94592405D01*
X177255961Y-94273325D01*
X177150795Y-93968912D01*
X177057814Y-93794956D01*
X176793413Y-93699192D01*
X175837605Y-94655000D01*
X175851748Y-94669143D01*
X175672143Y-94848748D01*
X175658000Y-94834605D01*
X175643858Y-94848748D01*
X175464253Y-94669143D01*
X175478395Y-94655000D01*
X174522587Y-93699192D01*
X174258186Y-93794956D01*
X174117296Y-94084571D01*
X174035616Y-94396108D01*
X174016282Y-94717595D01*
X100335388Y-94717595D01*
X100229727Y-94646995D01*
X100152485Y-94615000D01*
X100229727Y-94583005D01*
X100458535Y-94430120D01*
X100653120Y-94235535D01*
X100740341Y-94105000D01*
X112230678Y-94105000D01*
X112268000Y-94108676D01*
X112305322Y-94105000D01*
X112305333Y-94105000D01*
X112416986Y-94094003D01*
X112560247Y-94050546D01*
X112692276Y-93979974D01*
X112808001Y-93885001D01*
X112831804Y-93855997D01*
X114693834Y-91993967D01*
X174023000Y-91993967D01*
X174023000Y-92316033D01*
X174085832Y-92631912D01*
X174209082Y-92929463D01*
X174388013Y-93197252D01*
X174615748Y-93424987D01*
X174712935Y-93489925D01*
X174702192Y-93519587D01*
X175658000Y-94475395D01*
X176613808Y-93519587D01*
X176603065Y-93489925D01*
X176700252Y-93424987D01*
X176927987Y-93197252D01*
X177106918Y-92929463D01*
X177230168Y-92631912D01*
X177293000Y-92316033D01*
X177293000Y-91993967D01*
X177230168Y-91678088D01*
X177106918Y-91380537D01*
X176927987Y-91112748D01*
X176700252Y-90885013D01*
X176432463Y-90706082D01*
X176134912Y-90582832D01*
X175819033Y-90520000D01*
X175496967Y-90520000D01*
X175181088Y-90582832D01*
X174883537Y-90706082D01*
X174615748Y-90885013D01*
X174388013Y-91112748D01*
X174209082Y-91380537D01*
X174085832Y-91678088D01*
X174023000Y-91993967D01*
X114693834Y-91993967D01*
X117662802Y-89025000D01*
X134770678Y-89025000D01*
X134808000Y-89028676D01*
X134845322Y-89025000D01*
X134845333Y-89025000D01*
X134956986Y-89014003D01*
X135100247Y-88970546D01*
X135232276Y-88899974D01*
X135287600Y-88854570D01*
X166123000Y-88854570D01*
X166123000Y-89255430D01*
X166201204Y-89648587D01*
X166354607Y-90018934D01*
X166577313Y-90352237D01*
X166860763Y-90635687D01*
X167194066Y-90858393D01*
X167564413Y-91011796D01*
X167957570Y-91090000D01*
X168358430Y-91090000D01*
X168751587Y-91011796D01*
X169121934Y-90858393D01*
X169455237Y-90635687D01*
X169738687Y-90352237D01*
X169961393Y-90018934D01*
X170114796Y-89648587D01*
X170193000Y-89255430D01*
X170193000Y-88854570D01*
X170114796Y-88461413D01*
X169961393Y-88091066D01*
X169738687Y-87757763D01*
X169455237Y-87474313D01*
X169121934Y-87251607D01*
X168751587Y-87098204D01*
X168358430Y-87020000D01*
X167957570Y-87020000D01*
X167564413Y-87098204D01*
X167194066Y-87251607D01*
X166860763Y-87474313D01*
X166577313Y-87757763D01*
X166354607Y-88091066D01*
X166201204Y-88461413D01*
X166123000Y-88854570D01*
X135287600Y-88854570D01*
X135348001Y-88805001D01*
X135371804Y-88775997D01*
X137056430Y-87091372D01*
X137210408Y-87122000D01*
X137485592Y-87122000D01*
X137755490Y-87068314D01*
X138009727Y-86963005D01*
X138238535Y-86810120D01*
X138433120Y-86615535D01*
X138586005Y-86386727D01*
X138618000Y-86309485D01*
X138649995Y-86386727D01*
X138802880Y-86615535D01*
X138997465Y-86810120D01*
X139226273Y-86963005D01*
X139480510Y-87068314D01*
X139750408Y-87122000D01*
X140025592Y-87122000D01*
X140295490Y-87068314D01*
X140549727Y-86963005D01*
X140778535Y-86810120D01*
X140973120Y-86615535D01*
X141126005Y-86386727D01*
X141158000Y-86309485D01*
X141189995Y-86386727D01*
X141342880Y-86615535D01*
X141537465Y-86810120D01*
X141766273Y-86963005D01*
X142020510Y-87068314D01*
X142290408Y-87122000D01*
X142565592Y-87122000D01*
X142835490Y-87068314D01*
X143089727Y-86963005D01*
X143318535Y-86810120D01*
X143513120Y-86615535D01*
X143666005Y-86386727D01*
X143771314Y-86132490D01*
X143825000Y-85862592D01*
X143825000Y-85587408D01*
X143771314Y-85317510D01*
X143666005Y-85063273D01*
X143513120Y-84834465D01*
X143318535Y-84639880D01*
X143089727Y-84486995D01*
X142835490Y-84381686D01*
X142565592Y-84328000D01*
X142359801Y-84328000D01*
X147113217Y-79574585D01*
X147251736Y-79648625D01*
X147534223Y-79734316D01*
X147828000Y-79763251D01*
X148121776Y-79734316D01*
X148404263Y-79648625D01*
X148664605Y-79509469D01*
X148892797Y-79322197D01*
X149080069Y-79094006D01*
X149098000Y-79060459D01*
X149115931Y-79094005D01*
X149303203Y-79322197D01*
X149531394Y-79509469D01*
X149791736Y-79648625D01*
X150074223Y-79734316D01*
X150368000Y-79763251D01*
X150661776Y-79734316D01*
X150944263Y-79648625D01*
X151204605Y-79509469D01*
X151432797Y-79322197D01*
X151620069Y-79094006D01*
X151638000Y-79060459D01*
X151655931Y-79094005D01*
X151843203Y-79322197D01*
X152071394Y-79509469D01*
X152331736Y-79648625D01*
X152614223Y-79734316D01*
X152908000Y-79763251D01*
X153201776Y-79734316D01*
X153484263Y-79648625D01*
X153744605Y-79509469D01*
X153972797Y-79322197D01*
X154160069Y-79094006D01*
X154299225Y-78833664D01*
X154384916Y-78551177D01*
X154406600Y-78331019D01*
X154406600Y-77878982D01*
X154384916Y-77658824D01*
X154299225Y-77376337D01*
X154160069Y-77115994D01*
X153972797Y-76887803D01*
X153744606Y-76700531D01*
X153484264Y-76561375D01*
X153201777Y-76475684D01*
X152908000Y-76446749D01*
X152614224Y-76475684D01*
X152331737Y-76561375D01*
X152071395Y-76700531D01*
X151843203Y-76887803D01*
X151655931Y-77115994D01*
X151638000Y-77149541D01*
X151620069Y-77115994D01*
X151432797Y-76887803D01*
X151204606Y-76700531D01*
X150944264Y-76561375D01*
X150661777Y-76475684D01*
X150368000Y-76446749D01*
X150074224Y-76475684D01*
X149791737Y-76561375D01*
X149531395Y-76700531D01*
X149303203Y-76887803D01*
X149115931Y-77115994D01*
X149098000Y-77149541D01*
X149080069Y-77115994D01*
X148892797Y-76887803D01*
X148664606Y-76700531D01*
X148404264Y-76561375D01*
X148121777Y-76475684D01*
X147828000Y-76446749D01*
X147534224Y-76475684D01*
X147251737Y-76561375D01*
X146991395Y-76700531D01*
X146763203Y-76887803D01*
X146575931Y-77115994D01*
X146558000Y-77149541D01*
X146540069Y-77115994D01*
X146352797Y-76887803D01*
X146124606Y-76700531D01*
X145864264Y-76561375D01*
X145581777Y-76475684D01*
X145288000Y-76446749D01*
X144994224Y-76475684D01*
X144711737Y-76561375D01*
X144451395Y-76700531D01*
X144223203Y-76887803D01*
X144035931Y-77115994D01*
X144018000Y-77149541D01*
X144000069Y-77115994D01*
X143812797Y-76887803D01*
X143584606Y-76700531D01*
X143324264Y-76561375D01*
X143041777Y-76475684D01*
X142748000Y-76446749D01*
X142454224Y-76475684D01*
X142171737Y-76561375D01*
X141911395Y-76700531D01*
X141683203Y-76887803D01*
X141495931Y-77115994D01*
X141474576Y-77155947D01*
X141326486Y-76953271D01*
X141110035Y-76754267D01*
X140858919Y-76601314D01*
X140582789Y-76500291D01*
X140567026Y-76497642D01*
X140335000Y-76618783D01*
X140335000Y-77978000D01*
X140355000Y-77978000D01*
X140355000Y-78232000D01*
X140335000Y-78232000D01*
X140335000Y-79591217D01*
X140567026Y-79712358D01*
X140582789Y-79709709D01*
X140858919Y-79608686D01*
X141110035Y-79455733D01*
X141326486Y-79256729D01*
X141474576Y-79054053D01*
X141495931Y-79094005D01*
X141683203Y-79322197D01*
X141911394Y-79509469D01*
X142171736Y-79648625D01*
X142454223Y-79734316D01*
X142572257Y-79745942D01*
X139258199Y-83060000D01*
X131670323Y-83060000D01*
X131633000Y-83056324D01*
X131595677Y-83060000D01*
X131595667Y-83060000D01*
X131484014Y-83070997D01*
X131340753Y-83114454D01*
X131208724Y-83185026D01*
X131092999Y-83279999D01*
X131069201Y-83308997D01*
X130019570Y-84358628D01*
X129865592Y-84328000D01*
X129590408Y-84328000D01*
X129320510Y-84381686D01*
X129066273Y-84486995D01*
X128837465Y-84639880D01*
X128642880Y-84834465D01*
X128489995Y-85063273D01*
X128384686Y-85317510D01*
X128331000Y-85587408D01*
X128331000Y-85862592D01*
X128384686Y-86132490D01*
X128489995Y-86386727D01*
X128642880Y-86615535D01*
X128837465Y-86810120D01*
X129066273Y-86963005D01*
X129320510Y-87068314D01*
X129590408Y-87122000D01*
X129865592Y-87122000D01*
X130135490Y-87068314D01*
X130389727Y-86963005D01*
X130618535Y-86810120D01*
X130738090Y-86690565D01*
X131482040Y-86690565D01*
X131549020Y-86930656D01*
X131798048Y-87047756D01*
X132065135Y-87114023D01*
X132340017Y-87126910D01*
X132612133Y-87085922D01*
X132871023Y-86992636D01*
X132986980Y-86930656D01*
X133053960Y-86690565D01*
X132268000Y-85904605D01*
X131482040Y-86690565D01*
X130738090Y-86690565D01*
X130813120Y-86615535D01*
X130966005Y-86386727D01*
X130995692Y-86315057D01*
X131000364Y-86328023D01*
X131062344Y-86443980D01*
X131302435Y-86510960D01*
X132088395Y-85725000D01*
X132074253Y-85710858D01*
X132253858Y-85531253D01*
X132268000Y-85545395D01*
X133053960Y-84759435D01*
X133003902Y-84580000D01*
X134007082Y-84580000D01*
X133917465Y-84639880D01*
X133722880Y-84834465D01*
X133569995Y-85063273D01*
X133540308Y-85134943D01*
X133535636Y-85121977D01*
X133473656Y-85006020D01*
X133233565Y-84939040D01*
X132447605Y-85725000D01*
X133233565Y-86510960D01*
X133473656Y-86443980D01*
X133537485Y-86308240D01*
X133569995Y-86386727D01*
X133722880Y-86615535D01*
X133917465Y-86810120D01*
X134146273Y-86963005D01*
X134400510Y-87068314D01*
X134670408Y-87122000D01*
X134876199Y-87122000D01*
X134493199Y-87505000D01*
X118108000Y-87505000D01*
X118108000Y-79550415D01*
X118184605Y-79509469D01*
X118412797Y-79322197D01*
X118600069Y-79094006D01*
X118618000Y-79060459D01*
X118635931Y-79094005D01*
X118823203Y-79322197D01*
X119051394Y-79509469D01*
X119311736Y-79648625D01*
X119594223Y-79734316D01*
X119888000Y-79763251D01*
X120181776Y-79734316D01*
X120464263Y-79648625D01*
X120724605Y-79509469D01*
X120952797Y-79322197D01*
X121140069Y-79094006D01*
X121158000Y-79060459D01*
X121175931Y-79094005D01*
X121363203Y-79322197D01*
X121591394Y-79509469D01*
X121851736Y-79648625D01*
X122134223Y-79734316D01*
X122428000Y-79763251D01*
X122721776Y-79734316D01*
X123004263Y-79648625D01*
X123264605Y-79509469D01*
X123492797Y-79322197D01*
X123680069Y-79094006D01*
X123698000Y-79060459D01*
X123715931Y-79094005D01*
X123903203Y-79322197D01*
X124131394Y-79509469D01*
X124391736Y-79648625D01*
X124674223Y-79734316D01*
X124968000Y-79763251D01*
X125261776Y-79734316D01*
X125544263Y-79648625D01*
X125804605Y-79509469D01*
X126032797Y-79322197D01*
X126220069Y-79094006D01*
X126238000Y-79060459D01*
X126255931Y-79094005D01*
X126443203Y-79322197D01*
X126671394Y-79509469D01*
X126931736Y-79648625D01*
X127214223Y-79734316D01*
X127508000Y-79763251D01*
X127801776Y-79734316D01*
X128084263Y-79648625D01*
X128344605Y-79509469D01*
X128572797Y-79322197D01*
X128760069Y-79094006D01*
X128778000Y-79060459D01*
X128795931Y-79094005D01*
X128983203Y-79322197D01*
X129211394Y-79509469D01*
X129471736Y-79648625D01*
X129754223Y-79734316D01*
X130048000Y-79763251D01*
X130341776Y-79734316D01*
X130624263Y-79648625D01*
X130884605Y-79509469D01*
X131112797Y-79322197D01*
X131300069Y-79094006D01*
X131439225Y-78833664D01*
X131524916Y-78551177D01*
X131546600Y-78331019D01*
X131546600Y-77878982D01*
X131546600Y-77878981D01*
X133629400Y-77878981D01*
X133629400Y-78331018D01*
X133651084Y-78551176D01*
X133736775Y-78833663D01*
X133875931Y-79094005D01*
X134063203Y-79322197D01*
X134291394Y-79509469D01*
X134551736Y-79648625D01*
X134834223Y-79734316D01*
X135128000Y-79763251D01*
X135421776Y-79734316D01*
X135704263Y-79648625D01*
X135964605Y-79509469D01*
X136192797Y-79322197D01*
X136380069Y-79094006D01*
X136401424Y-79054053D01*
X136549514Y-79256729D01*
X136765965Y-79455733D01*
X137017081Y-79608686D01*
X137293211Y-79709709D01*
X137308974Y-79712358D01*
X137541000Y-79591217D01*
X137541000Y-78232000D01*
X137795000Y-78232000D01*
X137795000Y-79591217D01*
X138027026Y-79712358D01*
X138042789Y-79709709D01*
X138318919Y-79608686D01*
X138570035Y-79455733D01*
X138786486Y-79256729D01*
X138938000Y-79049367D01*
X139089514Y-79256729D01*
X139305965Y-79455733D01*
X139557081Y-79608686D01*
X139833211Y-79709709D01*
X139848974Y-79712358D01*
X140081000Y-79591217D01*
X140081000Y-78232000D01*
X137795000Y-78232000D01*
X137541000Y-78232000D01*
X137521000Y-78232000D01*
X137521000Y-77978000D01*
X137541000Y-77978000D01*
X137541000Y-76618783D01*
X137795000Y-76618783D01*
X137795000Y-77978000D01*
X140081000Y-77978000D01*
X140081000Y-76618783D01*
X139848974Y-76497642D01*
X139833211Y-76500291D01*
X139557081Y-76601314D01*
X139305965Y-76754267D01*
X139089514Y-76953271D01*
X138938000Y-77160633D01*
X138786486Y-76953271D01*
X138570035Y-76754267D01*
X138318919Y-76601314D01*
X138042789Y-76500291D01*
X138027026Y-76497642D01*
X137795000Y-76618783D01*
X137541000Y-76618783D01*
X137308974Y-76497642D01*
X137293211Y-76500291D01*
X137017081Y-76601314D01*
X136765965Y-76754267D01*
X136549514Y-76953271D01*
X136401424Y-77155947D01*
X136380069Y-77115994D01*
X136192797Y-76887803D01*
X135964606Y-76700531D01*
X135704264Y-76561375D01*
X135421777Y-76475684D01*
X135128000Y-76446749D01*
X134834224Y-76475684D01*
X134551737Y-76561375D01*
X134291395Y-76700531D01*
X134063203Y-76887803D01*
X133875931Y-77115994D01*
X133736775Y-77376336D01*
X133651084Y-77658823D01*
X133629400Y-77878981D01*
X131546600Y-77878981D01*
X131524916Y-77658824D01*
X131439225Y-77376337D01*
X131300069Y-77115994D01*
X131112797Y-76887803D01*
X130884606Y-76700531D01*
X130624264Y-76561375D01*
X130341777Y-76475684D01*
X130048000Y-76446749D01*
X129754224Y-76475684D01*
X129471737Y-76561375D01*
X129211395Y-76700531D01*
X128983203Y-76887803D01*
X128795931Y-77115994D01*
X128778000Y-77149541D01*
X128760069Y-77115994D01*
X128572797Y-76887803D01*
X128344606Y-76700531D01*
X128084264Y-76561375D01*
X127801777Y-76475684D01*
X127508000Y-76446749D01*
X127214224Y-76475684D01*
X126931737Y-76561375D01*
X126671395Y-76700531D01*
X126443203Y-76887803D01*
X126255931Y-77115994D01*
X126238000Y-77149541D01*
X126220069Y-77115994D01*
X126032797Y-76887803D01*
X125804606Y-76700531D01*
X125544264Y-76561375D01*
X125261777Y-76475684D01*
X124968000Y-76446749D01*
X124674224Y-76475684D01*
X124391737Y-76561375D01*
X124131395Y-76700531D01*
X123903203Y-76887803D01*
X123715931Y-77115994D01*
X123698000Y-77149541D01*
X123680069Y-77115994D01*
X123492797Y-76887803D01*
X123264606Y-76700531D01*
X123004264Y-76561375D01*
X122721777Y-76475684D01*
X122428000Y-76446749D01*
X122134224Y-76475684D01*
X121851737Y-76561375D01*
X121591395Y-76700531D01*
X121363203Y-76887803D01*
X121175931Y-77115994D01*
X121158000Y-77149541D01*
X121140069Y-77115994D01*
X120952797Y-76887803D01*
X120724606Y-76700531D01*
X120464264Y-76561375D01*
X120181777Y-76475684D01*
X119888000Y-76446749D01*
X119594224Y-76475684D01*
X119311737Y-76561375D01*
X119051395Y-76700531D01*
X118823203Y-76887803D01*
X118635931Y-77115994D01*
X118618000Y-77149541D01*
X118600069Y-77115994D01*
X118412797Y-76887803D01*
X118184606Y-76700531D01*
X117924264Y-76561375D01*
X117641777Y-76475684D01*
X117348000Y-76446749D01*
X117054224Y-76475684D01*
X116771737Y-76561375D01*
X116511395Y-76700531D01*
X116283203Y-76887803D01*
X116095931Y-77115994D01*
X115956775Y-77376336D01*
X115871084Y-77658823D01*
X115849400Y-77878981D01*
X115849400Y-78331018D01*
X115871084Y-78551176D01*
X115956775Y-78833663D01*
X116095931Y-79094005D01*
X116283203Y-79322197D01*
X116511394Y-79509469D01*
X116588001Y-79550416D01*
X116588000Y-87950198D01*
X111953199Y-92585000D01*
X100740341Y-92585000D01*
X100653120Y-92454465D01*
X100458535Y-92259880D01*
X100229727Y-92106995D01*
X100152485Y-92075000D01*
X100229727Y-92043005D01*
X100458535Y-91890120D01*
X100653120Y-91695535D01*
X100806005Y-91466727D01*
X100911314Y-91212490D01*
X100965000Y-90942592D01*
X100965000Y-90667408D01*
X100911314Y-90397510D01*
X100806005Y-90143273D01*
X100653120Y-89914465D01*
X100458535Y-89719880D01*
X100229727Y-89566995D01*
X100152485Y-89535000D01*
X100229727Y-89503005D01*
X100458535Y-89350120D01*
X100653120Y-89155535D01*
X100806005Y-88926727D01*
X100911314Y-88672490D01*
X100965000Y-88402592D01*
X100965000Y-88127408D01*
X100911314Y-87857510D01*
X100806005Y-87603273D01*
X100653120Y-87374465D01*
X100458535Y-87179880D01*
X100229727Y-87026995D01*
X99975490Y-86921686D01*
X99705592Y-86868000D01*
X99430408Y-86868000D01*
X99160510Y-86921686D01*
X98906273Y-87026995D01*
X98677465Y-87179880D01*
X98482880Y-87374465D01*
X98329995Y-87603273D01*
X98224686Y-87857510D01*
X98171000Y-88127408D01*
X96468000Y-88127408D01*
X96468000Y-76275000D01*
X180138001Y-76275000D01*
X180138000Y-128195000D01*
M02*
